<?xml version="1.0" encoding="utf-8"?>
<!-- Generator: Adobe Illustrator 15.1.0, SVG Export Plug-In . SVG Version: 6.00 Build 0)  -->
<!DOCTYPE svg PUBLIC "-//W3C//DTD SVG 1.1//EN" "http://www.w3.org/Graphics/SVG/1.1/DTD/svg11.dtd">
<svg version="1.1" xmlns="http://www.w3.org/2000/svg" xmlns:xlink="http://www.w3.org/1999/xlink" x="0px" y="0px"
	 width="2335.886px" height="562px" viewBox="0 0 2335.886 562" enable-background="new 0 0 2335.886 562" xml:space="preserve">
<g id="Layer_4" display="none">
	<path display="inline" fill="none" stroke="#000000" stroke-miterlimit="10" d="M1157.833,931.5c0,0,58.5,7.5,56-43.5
		s-70.19-46.366-81.5-17c-9.5,24.667-8,38-2,56.5c0,0-13.5-11.666-31.833,7.667S1087,1016,1118.333,993s36.5-27,64.5-15.667
		s39,20.667,68.333,19.5s31.167,29.5,61.833,25.167s40.833-36.667,23-62.5c0,0,16.333-26-9.667-42.333
		c0,0,11.833-30.334-6.667-55.333s-67.833-21.833-96.333,35c0,0-7.625,3.041-11.25,11.291S1197.708,939,1157.833,931.5z"/>
	<g display="inline">
		<path d="M1124.916,919.971c3.247,2.735,5.908,5.855,8.167,9.385c2.227,3.512,3.948,7.486,4.514,11.757
			c0.295,2.119,0.297,4.32,0,6.429c-0.317,2.203-0.96,4.231-1.795,6.188c-1.682,3.896-4.107,7.371-7.021,10.369
			c-1.458,1.499-3.044,2.882-4.779,4.097c-1.739,1.204-3.624,2.268-5.751,2.926c-2.087,0.648-4.585,0.94-6.929-0.068
			c-1.154-0.488-2.16-1.304-2.91-2.238c-0.375-0.466-0.704-0.969-0.969-1.468c-0.113-0.199-0.248-0.478-0.377-0.751
			c-0.121-0.269-0.229-0.523-0.328-0.792c-0.82-2.132-0.903-4.549-0.289-6.713c0.59-2.179,1.847-4.103,3.519-5.568
			c0.858-0.71,1.84-1.313,2.988-1.625c0.572-0.155,1.2-0.21,1.83-0.105c0.63,0.104,1.246,0.4,1.699,0.836
			c0.917,0.89,1.154,2.05,1.245,3.074c0.072,1.049-0.064,2.064-0.271,3.049c-0.078-1.003-0.19-2.001-0.468-2.92
			c-0.25-0.915-0.715-1.77-1.348-2.185c-1.261-0.825-3.044,0.195-4.205,1.454c-1.235,1.273-2.058,2.942-2.45,4.631
			c-0.373,1.704-0.231,3.461,0.409,5.05c0.668,1.639,1.698,2.975,3.092,3.505c1.383,0.566,3.123,0.402,4.792-0.171
			c3.371-1.185,6.472-3.606,9.067-6.346c2.59-2.775,4.789-5.963,6.28-9.4c0.734-1.709,1.292-3.525,1.543-5.278
			c0.258-1.844,0.254-3.673,0.001-5.509c-1.04-7.34-5.663-14.164-11.172-19.302L1124.916,919.971z"/>
	</g>
	<g display="inline">
		<path d="M1215.667,896.259c4.366-0.494,8.657-0.472,13.01,0.064c4.306,0.573,8.763,1.643,12.616,4.375
			c0.954,0.678,1.848,1.476,2.643,2.377c0.398,0.45,0.762,0.934,1.104,1.433c0.299,0.451,0.611,0.939,0.895,1.424
			c1.138,1.934,2.066,4.021,2.658,6.24c0.587,2.214,0.842,4.572,0.556,6.929c-0.286,2.35-1.145,4.678-2.533,6.639
			c-1.381,1.969-3.254,3.53-5.288,4.645c-1.019,0.558-2.078,1.016-3.157,1.382c-1.081,0.368-2.268,0.66-3.511,0.735
			c-1.237,0.074-2.541-0.072-3.767-0.533c-1.225-0.455-2.348-1.227-3.203-2.205c-1.722-1.967-2.417-4.588-2.107-7.074
			c0.267-2.497,1.819-4.908,4.035-6.135c1.092-0.632,2.303-0.943,3.476-1.084c1.147-0.106,2.276-0.139,3.436,0.036
			c1.148,0.173,2.356,0.52,3.385,1.307c1.033,0.784,1.661,2.069,1.725,3.267c0.076,1.208-0.24,2.337-0.742,3.328
			c-0.26,0.493-0.571,0.956-0.945,1.362c-0.379,0.389-0.834,0.767-1.37,0.854c0.489-0.218,0.796-0.661,1.05-1.094
			c0.256-0.438,0.444-0.915,0.578-1.398c0.272-0.962,0.341-1.979,0.122-2.864c-0.394-1.841-2.126-2.582-4.007-2.611
			c-0.939-0.016-1.929,0.059-2.869,0.235c-0.907,0.177-1.742,0.513-2.462,0.965c-1.453,0.904-2.313,2.475-2.486,4.17
			c-0.177,1.693,0.379,3.481,1.486,4.664c1.099,1.2,2.714,1.722,4.44,1.565c1.682-0.149,3.616-0.923,5.25-1.822
			c1.644-0.933,3.066-2.17,4.089-3.673c2.083-3.005,2.392-6.987,1.397-10.683c-0.492-1.857-1.283-3.66-2.279-5.357
			c-0.248-0.425-0.503-0.825-0.785-1.253c-0.254-0.369-0.522-0.73-0.823-1.07c-0.599-0.679-1.284-1.299-2.046-1.841
			c-1.517-1.1-3.305-1.903-5.172-2.536c-1.872-0.634-3.844-1.071-5.849-1.372c-4.001-0.583-8.194-0.68-12.219-0.409
			L1215.667,896.259z"/>
	</g>
	<g display="inline">
		<path d="M1219.776,994.909c2.789,0.528,5.786,0.782,8.71,0.877c2.943,0.091,5.892-0.007,8.821-0.276
			c5.858-0.53,11.645-1.797,17.123-3.865c5.478-2.062,10.633-4.938,15.227-8.541c4.584-3.605,8.691-7.883,11.857-12.698
			c3.15-4.813,5.271-10.304,5.607-15.945c0.365-5.613-1.123-11.336-4.387-15.844c-3.212-4.509-8.257-7.711-13.682-8.153
			c-0.336-0.032-0.675-0.046-1.013-0.059l-1.096-0.02c-0.731-0.007-1.464-0.002-2.197,0.014c-1.465,0.032-2.932,0.11-4.395,0.229
			c-2.926,0.24-5.838,0.648-8.705,1.238c-5.71,1.2-11.336,3.051-16.128,6.125c-2.381,1.537-4.526,3.393-6.191,5.585
			c-1.67,2.187-2.831,4.712-3.374,7.404c-0.557,2.69-0.507,5.524-0.041,8.318c0.484,2.814,1.275,5.613,2.463,8.158
			c1.185,2.548,2.798,4.861,4.862,6.646c2.052,1.795,4.552,3.026,7.235,3.612c5.4,1.184,11.285-0.118,16.327-2.744
			c2.535-1.32,4.896-2.991,6.969-4.951l0.764-0.749l0.746-0.79c0.46-0.513,0.919-1.051,1.345-1.61
			c0.843-1.116,1.58-2.294,2.106-3.528c1.075-2.453,1.215-5.168,0.023-7.371c-1.15-2.199-3.458-3.863-5.967-4.332
			c-0.624-0.125-1.257-0.167-1.877-0.124c-0.649,0.045-1.143,0.184-1.894,0.424c-1.261,0.396-2.49,1.073-3.499,1.946
			c-1.009,0.886-1.796,2.048-2.222,3.382c-0.39,1.325-0.512,2.857,0.165,4.231c-1.067-1.126-1.426-2.849-1.267-4.446
			c0.148-1.626,0.867-3.21,1.94-4.493c1.083-1.298,2.475-2.236,4.009-2.945c0.646-0.318,1.597-0.643,2.449-0.759
			c0.875-0.131,1.76-0.136,2.624-0.032c1.735,0.195,3.368,0.878,4.805,1.835c1.439,0.961,2.668,2.28,3.496,3.847
			c0.841,1.558,1.258,3.348,1.235,5.097c-0.02,1.752-0.438,3.446-1.086,4.981c-1.301,3.064-3.421,5.623-5.656,7.784
			c-2.288,2.191-4.877,4.047-7.671,5.526c-2.794,1.477-5.802,2.583-8.946,3.179c-3.138,0.594-6.433,0.668-9.64-0.018
			c-3.203-0.673-6.285-2.161-8.78-4.319c-2.513-2.146-4.422-4.88-5.79-7.773c-1.375-2.908-2.25-5.952-2.808-9.062
			c-0.542-3.131-0.639-6.42,0.004-9.641c0.623-3.218,2.021-6.31,3.992-8.918c1.965-2.621,4.439-4.769,7.098-6.51
			c5.356-3.469,11.365-5.48,17.411-6.726c3.032-0.619,6.093-1.042,9.167-1.29c1.538-0.123,3.079-0.203,4.623-0.234
			c0.772-0.016,1.544-0.021,2.318-0.011l1.162,0.023c0.414,0.015,0.828,0.034,1.24,0.073c3.306,0.286,6.513,1.393,9.313,3.101
			c2.805,1.709,5.213,4.003,7.107,6.639c3.813,5.281,5.492,11.903,5.066,18.288c-0.394,6.418-2.8,12.523-6.234,17.753
			c-3.449,5.261-7.881,9.705-12.773,13.504c-4.917,3.786-10.425,6.792-16.235,8.918c-5.811,2.133-11.906,3.406-18.041,3.905
			c-3.069,0.246-6.15,0.291-9.223,0.15c-3.087-0.155-6.106-0.444-9.225-1.085L1219.776,994.909z"/>
	</g>
	<path display="inline" fill="none" stroke="#000000" stroke-width="3" stroke-miterlimit="10" d="M1341.583,965
		c0,0-14.625-21.375-32.75-15.75s-21,24.25-14,34.125s28.125,5.125,28.875-6.75s-13.25-8.875-16.875-3.125c0,0,1.375-8.625,12.25-8
		s15,17.75,4.875,26.375s-37.25,14.5-41.625-20.375"/>
	<path display="inline" fill="none" stroke="#000000" stroke-width="3" stroke-miterlimit="10" d="M1330.458,905.75
		c0,0-3.75,29.125-42.125,41.125"/>
</g>
<g id="Layer_2" display="none">
	<path display="inline" fill="#FFFFFF" d="M2113.833,1402.25c-8-62-86.5-132.75-207.75-41.25
		c-15.017,11.332-29.445,21.171-43.229,29.739c1.942-7.76,2.979-15.878,2.979-24.239c0-54.952-44.548-99.5-99.5-99.5
		s-99.5,44.548-99.5,99.5c0,21.154,6.607,40.763,17.863,56.886c-7.048-2.338-14.766-3.636-22.863-3.636
		c-33.137,0-60,21.603-60,48.25c0,9.224,3.223,17.841,8.806,25.169c6.852,11.899,37.34,55.612,109.694,42.831
		c83.086-14.677,240.923-193.704,309.726-144.492c-25.179,6.731-43.726,29.691-43.726,56.992c0,32.585,26.415,59,59,59
		c26.722,0,49.281-17.77,56.54-42.132C2109.968,1449.326,2117.06,1427.251,2113.833,1402.25z"/>
	<g display="inline">
		<path fill="#404DA0" d="M1818.833,1373.5c0.969-0.976,1.227-2.371,1.244-3.662c0.016-1.313-0.219-2.619-0.617-3.859
			c-0.803-2.459-2.229-4.783-4.246-6.148c-1-0.676-2.118-1.093-3.267-1.161c-1.148-0.075-2.312,0.183-3.415,0.653
			c-2.209,0.971-4.184,2.638-5.933,4.528c-1.771,1.895-3.323,3.965-4.525,6.165c-1.193,2.199-1.98,4.571-2.114,6.938
			c-0.131,2.361,0.359,4.7,1.494,6.739c1.121,2.045,2.844,3.77,4.867,5.029c4.053,2.548,9.285,3.217,13.823,1.709
			c4.581-1.456,8.29-5.09,10.589-9.464c2.445-4.563,3.998-9.502,4.501-14.588c0.507-5.074-0.056-10.246-1.651-15.076
			c-1.591-4.828-4.22-9.313-7.701-12.964c-3.476-3.648-7.827-6.44-12.6-7.853c-4.768-1.441-9.902-1.452-14.76-0.195
			c-4.871,1.249-9.449,3.692-13.552,6.797c-8.153,6.315-15.008,14.734-18.578,24.342c-1.791,4.804-2.765,9.895-2.849,15.011
			c-0.091,5.117,0.699,10.247,2.256,15.143c3.101,9.809,9.195,18.654,17.078,25.341c7.875,6.705,17.581,11.27,27.786,12.84
			c5.098,0.801,10.306,0.851,15.429,0.191c4.957-0.536,9.554-2.656,13.774-5.561c4.207-2.909,7.975-6.556,11.353-10.535
			c3.374-3.994,6.367-8.341,9.016-12.894c5.28-9.122,9.256-19.033,11.892-29.269c2.62-10.239,3.864-20.849,3.405-31.383
			c-0.457-10.524-2.681-20.98-6.913-30.593c-4.203-9.619-10.425-18.329-18.142-25.501l2.711-2.941
			c8.172,7.429,14.888,16.547,19.412,26.676c4.539,10.126,6.944,21.126,7.496,32.143c0.553,11.031-0.677,22.094-3.333,32.77
			c-2.659,10.679-6.741,21.012-12.282,30.565c-2.772,4.773-5.914,9.354-9.5,13.607c-3.596,4.24-7.635,8.18-12.307,11.421
			c-2.335,1.614-4.834,3.046-7.511,4.169c-1.338,0.561-2.72,1.043-4.141,1.424c-0.7,0.188-1.438,0.354-2.198,0.498l-1.049,0.173
			l-1.045,0.146c-5.576,0.724-11.266,0.675-16.83-0.192c-22.34-3.381-42.063-19.935-48.886-41.59
			c-1.687-5.393-2.536-11.071-2.408-16.746c0.12-5.673,1.23-11.326,3.236-16.622c2.006-5.299,4.881-10.231,8.352-14.639
			c3.493-4.396,7.438-8.351,11.948-11.754c4.504-3.374,9.634-6.111,15.243-7.522c5.587-1.423,11.637-1.394,17.207,0.324
			c5.581,1.683,10.592,4.954,14.529,9.13c3.947,4.182,6.874,9.251,8.634,14.676c1.764,5.426,2.362,11.217,1.77,16.877
			c-0.578,5.656-2.369,11.193-5.044,16.124c-1.392,2.581-3.15,4.953-5.357,6.96c-2.194,2.002-4.837,3.572-7.701,4.489
			c-5.737,1.852-12.22,1.024-17.279-2.242c-2.521-1.633-4.706-3.878-6.137-6.599c-1.444-2.705-2.07-5.871-1.751-8.887
			c0.291-3.025,1.386-5.849,2.854-8.328c1.464-2.498,3.347-4.65,5.365-6.587c2.03-1.922,4.331-3.769,7.184-4.743
			c1.415-0.479,2.98-0.71,4.522-0.485c1.538,0.219,2.996,0.888,4.139,1.849c2.292,1.94,3.574,4.634,4.133,7.357
			c0.27,1.371,0.365,2.778,0.177,4.159C1820.431,1371.233,1819.936,1372.666,1818.833,1373.5z"/>
	</g>
	<path display="inline" fill="none" stroke="#404DA0" stroke-width="4" stroke-miterlimit="10" d="M1821.083,1390.25
		c0,0,33.25-12.75,23.25-53.25s-67-57.5-106.5-12.25s-22.75,122.25,3.5,148"/>
	<g display="inline">
		<path fill="#404DA0" d="M1698.583,1470.5c-0.409-5.82-1.719-11.464-4.193-16.428c-2.443-4.973-6.27-9.071-11.042-11.697
			c-4.779-2.644-10.354-3.801-15.949-4.068c-2.808-0.132-5.638-0.055-8.465,0.184l-2.119,0.207l-1.04,0.122l-1.078,0.146
			c-1.347,0.196-2.742,0.462-4.072,0.797c-2.67,0.674-5.249,1.646-7.434,3.09c-2.186,1.434-3.925,3.372-4.821,5.69
			c-0.919,2.311-1.007,4.949-0.502,7.537c0.505,2.595,1.552,5.142,2.899,7.531c2.722,4.787,6.573,8.997,10.935,12.485
			c4.375,3.481,9.333,6.268,14.608,7.963c5.259,1.693,10.889,2.24,16.171,1.059c1.319-0.287,2.61-0.688,3.864-1.181
			c0.63-0.247,1.237-0.519,1.854-0.818c0.669-0.321,1.26-0.622,1.897-0.952c2.499-1.307,4.915-2.762,7.189-4.396
			c4.533-3.255,8.59-7.235,11.251-11.961c1.322-2.354,2.271-4.888,2.666-7.485c0.402-2.595,0.237-5.242-0.501-7.748
			c-1.465-5.05-5.162-9.336-9.569-12.608c-4.435-3.299-9.579-5.734-14.901-7.64c-2.667-0.951-5.393-1.769-8.151-2.477
			c-2.774-0.724-5.479-1.262-8.283-1.611c-5.565-0.693-11.225-0.605-16.714,0.393c-5.484,0.989-10.805,2.881-15.564,5.697
			c-4.752,2.811-8.945,6.564-11.984,11.089c-3.052,4.506-4.875,9.789-5.095,15.182c-0.242,5.396,1.109,10.822,3.575,15.727
			c2.456,4.925,5.957,9.354,9.969,13.27c2.006,1.964,4.153,3.797,6.387,5.528c1.125,0.87,2.248,1.688,3.432,2.516
			c1.133,0.794,2.336,1.573,3.529,2.314c9.592,5.969,20.489,9.711,31.713,11.11c11.233,1.425,22.722,0.631,33.879-1.676
			c11.174-2.309,22.053-6.092,32.482-10.836c10.431-4.757,20.436-10.479,29.903-16.967c4.733-3.245,9.329-6.689,13.751-10.332
			c4.414-3.648,8.727-7.526,13.044-11.387c34.406-31.113,68.694-62.894,107.231-89.407c9.651-6.585,19.589-12.804,29.999-18.252
			c10.412-5.402,21.313-10.161,32.987-12.784c5.827-1.284,11.872-1.991,17.972-1.572c1.502,0.096,3.096,0.31,4.494,0.518
			c1.475,0.219,2.923,0.454,4.378,0.71c2.904,0.514,5.797,1.115,8.668,1.807c11.477,2.77,22.682,7.012,32.904,13.105
			c10.197,6.077,19.427,14.076,26.287,23.945c6.882,9.816,11.188,21.557,11.896,33.595c0.376,6.004-0.108,12.071-1.34,17.915
			c-1.263,5.932-3.377,11.606-6.232,16.907c-2.851,5.296-6.428,10.19-10.605,14.519c-4.181,4.32-8.968,8.095-14.33,10.966
			c-5.348,2.827-11.368,4.869-17.769,4.675c-3.176-0.104-6.434-0.871-9.323-2.459c-2.897-1.57-5.317-3.961-7.04-6.67
			c-1.74-2.713-2.846-5.705-3.553-8.708c-0.179-0.745-0.331-1.524-0.457-2.242c-0.137-0.786-0.242-1.534-0.331-2.303
			c-0.17-1.531-0.253-3.079-0.222-4.631c0.076-6.204,2.079-12.488,5.834-17.511c3.73-5.029,8.959-8.879,14.938-10.852
			c2.991-0.964,6.209-1.491,9.539-1.055c1.655,0.225,3.35,0.724,4.906,1.647c1.557,0.911,2.914,2.325,3.746,3.971
			c0.854,1.645,1.154,3.443,1.175,5.123c0.015,1.69-0.283,3.3-0.69,4.821c-0.837,2.951-2.112,6.079-4.858,8.31
			c-0.687,0.538-1.466,0.993-2.313,1.296c-0.851,0.291-1.758,0.423-2.642,0.385c-1.771-0.083-3.424-0.788-4.646-1.911
			c-1.205-1.104-2.157-2.626-2.154-4.323c-0.002-0.832,0.266-1.659,0.747-2.285c0.483-0.627,1.114-1.073,1.784-1.369
			c-1.145,0.928-1.79,2.323-1.473,3.558c0.292,1.228,1.185,2.264,2.253,2.917c1.075,0.647,2.307,0.986,3.446,0.853
			c1.139-0.13,2.144-0.665,2.978-1.472c0.832-0.815,1.479-1.902,1.972-3.088c0.512-1.181,0.871-2.467,1.15-3.791
			c0.556-2.578,0.563-5.206-0.466-7.081c-0.971-1.878-3.039-3.015-5.492-3.332c-2.447-0.326-5.117,0.071-7.633,0.896
			c-5.061,1.669-9.629,5.03-12.801,9.339c-3.203,4.312-4.901,9.625-4.968,15.032c-0.025,1.353,0.05,2.711,0.201,4.065
			c0.078,0.674,0.179,1.364,0.291,2.009c0.126,0.712,0.254,1.357,0.415,2.024c0.624,2.642,1.584,5.171,2.991,7.352
			c1.397,2.182,3.253,3.99,5.472,5.191c2.213,1.21,4.76,1.828,7.382,1.912c5.274,0.168,10.673-1.59,15.532-4.185
			c4.882-2.621,9.33-6.126,13.214-10.156c3.886-4.035,7.22-8.613,9.868-13.551c2.65-4.928,4.615-10.255,5.764-15.689
			c1.155-5.523,1.588-11.143,1.232-16.735c-0.68-11.188-4.678-22.074-11.137-31.266c-6.438-9.234-15.164-16.804-24.904-22.586
			c-9.76-5.8-20.535-9.873-31.63-12.532c-2.776-0.665-5.575-1.241-8.391-1.735c-1.406-0.246-2.825-0.474-4.224-0.679
			c-1.474-0.216-2.761-0.386-4.159-0.476c-5.506-0.373-11.123,0.274-16.624,1.498c-11.031,2.49-21.628,7.103-31.794,12.404
			c-10.173,5.343-19.959,11.483-29.485,18.005c-19.044,13.085-37.085,27.667-54.682,42.744
			c-17.612,15.082-34.649,30.818-51.909,46.427c-4.334,3.891-8.687,7.757-13.233,11.504c-4.556,3.729-9.274,7.246-14.132,10.557
			c-9.717,6.616-19.971,12.444-30.695,17.299c-10.724,4.84-21.938,8.712-33.535,11.074c-11.578,2.358-23.589,3.171-35.429,1.636
			c-11.823-1.504-23.396-5.511-33.525-11.857c-1.271-0.795-2.504-1.599-3.748-2.475c-1.194-0.839-2.417-1.734-3.587-2.646
			c-2.351-1.833-4.624-3.784-6.764-5.891c-4.276-4.2-8.085-9.013-10.808-14.507c-2.731-5.464-4.289-11.674-3.988-17.91
			c0.267-6.23,2.409-12.332,5.887-17.428c3.465-5.123,8.166-9.281,13.409-12.363c5.254-3.088,11.062-5.125,17.005-6.181
			c5.949-1.063,12.04-1.136,17.995-0.376c2.961,0.373,5.961,0.984,8.805,1.735c2.864,0.745,5.707,1.604,8.508,2.613
			c5.59,2.022,11.071,4.61,15.965,8.268c2.436,1.83,4.713,3.944,6.641,6.405c1.92,2.457,3.479,5.283,4.366,8.361
			c0.898,3.071,1.09,6.36,0.59,9.504c-0.489,3.15-1.633,6.137-3.159,8.838c-3.081,5.419-7.566,9.728-12.445,13.219
			c-2.45,1.749-5.027,3.29-7.678,4.667c-0.653,0.336-1.358,0.69-2,0.996c-0.689,0.332-1.409,0.652-2.133,0.933
			c-1.449,0.567-2.943,1.023-4.463,1.351c-6.1,1.344-12.437,0.671-18.198-1.203c-5.788-1.881-11.109-4.905-15.808-8.662
			c-4.683-3.774-8.819-8.29-11.837-13.622c-1.492-2.668-2.693-5.562-3.293-8.677c-0.596-3.095-0.523-6.499,0.723-9.61
			c1.213-3.123,3.581-5.681,6.246-7.407c2.679-1.755,5.63-2.827,8.58-3.566c1.487-0.369,2.95-0.645,4.478-0.862l1.082-0.143
			l1.123-0.129l2.217-0.211c2.961-0.24,5.949-0.315,8.945-0.166c5.965,0.306,12.081,1.549,17.503,4.562
			c2.698,1.495,5.185,3.44,7.22,5.78c2.048,2.33,3.615,5.038,4.75,7.859c1.106,2.841,1.771,5.808,2.024,8.78
			C1699.307,1464.639,1699.234,1467.628,1698.583,1470.5z"/>
	</g>
	<g display="inline">
		<path fill="#404DA0" d="M1813.083,1490c4.012-7.343,9.101-13.959,14.475-20.284c5.459-6.26,11.256-12.22,17.199-18.03
			c2.98-2.897,6.015-5.741,9.105-8.525c3.101-2.774,6.275-5.468,9.499-8.104c6.46-5.251,13.113-10.296,20.116-14.842
			c6.987-4.563,14.219-8.784,21.75-12.435c7.535-3.634,15.346-6.742,23.398-9.096c8.039-2.376,16.368-3.892,24.749-4.266
			c8.373-0.324,16.809,0.458,24.791,2.747c-16.513-1.495-32.837,0.565-48.338,5.473c-7.75,2.449-15.269,5.632-22.526,9.328
			c-7.266,3.682-14.302,7.839-21.084,12.388c-6.766,4.571-13.387,9.381-19.747,14.534c-3.188,2.566-6.311,5.216-9.401,7.904
			c-3.099,2.68-6.146,5.421-9.145,8.218c-6.011,5.581-11.756,11.445-17.419,17.392
			C1824.783,1478.301,1819.098,1484.221,1813.083,1490z"/>
	</g>
	<g display="inline">
		<path fill="#404DA0" d="M2044.083,1441.25c2.81-2.414,5.156-5.156,6.69-8.149c1.516-3.009,2.041-6.233,1.55-9.411
			c-0.461-3.188-1.934-6.28-3.845-9.107c-1.986-2.896-4.181-5.658-6.603-8.192c-4.849-5.045-10.537-9.339-16.843-12.078
			c-3.147-1.346-6.45-2.298-9.757-2.557c-3.298-0.259-6.597,0.206-9.466,1.656l-1.955-3.49c3.521-2.146,7.712-2.955,11.679-2.786
			c3.993,0.158,7.834,1.169,11.406,2.647c3.588,1.462,6.911,3.433,9.996,5.678c3.095,2.239,5.914,4.821,8.48,7.614
			c2.573,2.79,4.885,5.807,6.887,9.024c2.045,3.275,3.712,6.99,4.163,11.076c0.216,2.032,0.074,4.133-0.472,6.116
			c-0.552,1.979-1.463,3.835-2.675,5.411C2050.931,1437.873,2047.651,1440.143,2044.083,1441.25z"/>
	</g>
	<path display="inline" fill="none" stroke="#404DA0" stroke-width="4" stroke-miterlimit="10" d="M1712,1449.333
		c0,0,30.667,33.333,62,34"/>
</g>
<g id="Layer_6" display="none">
	<path display="inline" fill="none" stroke="#FFFFFF" stroke-miterlimit="10" d="M1572.5,1758.166
		c-2.222-36.155-32.036-64.666-69.667-64.666c-6.715,0-13.204,0.932-19.358,2.637c-19.937-12.381-44.097-19.637-70.142-19.637
		c-2.432,0-5.436-1.292-7.833-1.167c-25.107-21.04-58.391-32.583-95.667-32.583c-54.827,0-99.667,37.583-130.167,65.417
		c-13.04-10.521-24.774-13.667-42.833-13.667c-7.95,0-15.612,1.226-22.814,3.489c-18.786-25.212-48.829-41.541-82.686-41.541
		c-56.914,0-103.052,46.138-103.052,103.052s46.138,103.052,103.052,103.052c26.167,0,50.051-9.758,68.226-25.827
		c0.558,0.314,1.124,0.618,1.69,0.919c34.893-23.509,185.513-114.767,290.417-16.31c0,0-67.333-56.084-125.333-30.084
		s-39.417,71.333-9.167,82.083s56.667-2.417,60.667-12.167c0,0,14.181,12.741,34.851,24.157c0.051-0.015,0.103-0.026,0.153-0.041
		c17.888,9.05,38.521,14.218,60.496,14.218c19.17,0,37.312-3.945,53.508-10.956c14.053,9.778,34.353,17.437,61.992,13.456
		c62.5-9,43.5-44.25,43.5-44.25C1597.475,1811.521,1579.743,1771.563,1572.5,1758.166z"/>
	<path display="inline" fill="none" stroke="#FFFFFF" stroke-width="3" stroke-miterlimit="10" d="M1113,1691.834
		c-12.667-11.667-144.417-68.334-189.417,76.666"/>
	<g display="inline">
		<path fill="#FFFFFF" d="M931.898,1806.438c-1.169-3.993-1.957-7.956-2.605-11.987c-0.632-4.021-1.063-8.073-1.296-12.138
			c-0.461-8.128-0.124-16.318,1.157-24.386c1.278-8.063,3.532-15.999,6.83-23.503c3.301-7.499,7.658-14.546,12.92-20.838
			c5.256-6.299,11.39-11.836,18.059-16.566c6.672-4.738,13.873-8.669,21.335-11.945c7.475-3.264,15.305-5.823,23.386-7.307
			c8.072-1.482,16.402-1.873,24.603-0.841c8.197,1.021,16.224,3.457,23.613,7.142c7.399,3.676,14.152,8.563,20.091,14.243
			c11.885,11.4,20.616,25.757,26.133,41.146c2.742,7.712,4.678,15.729,5.549,23.91c0.427,4.094,0.595,8.214,0.381,12.365
			c-0.222,4.143-0.822,8.251-1.743,12.274c-1.843,8.052-4.919,15.771-8.915,22.953c-4.004,7.18-8.938,13.847-14.726,19.716
			c-5.788,5.855-12.458,10.939-19.959,14.575c-7.469,3.639-15.873,5.733-24.324,5.326c-8.451-0.346-16.686-3.286-23.653-7.863
			c-3.504-2.274-6.719-4.938-9.675-7.832c-2.927-2.877-5.687-5.948-8.206-9.2c-5.049-6.497-9.19-13.781-11.856-21.648
			c-2.659-7.85-3.806-16.312-2.827-24.64c0.944-8.313,4.09-16.434,9.213-23.107c5.09-6.704,12.063-11.852,19.724-15.107
			c7.678-3.278,15.981-4.757,24.205-4.935c4.124-0.088,8.219,0.136,12.314,0.626c4.04,0.488,8.117,1.21,12.104,2.323
			c3.985,1.118,7.931,2.618,11.567,4.86c3.609,2.216,6.976,5.31,8.901,9.413c0.954,2.037,1.504,4.28,1.595,6.53
			c0.091,2.251-0.262,4.486-0.935,6.58c-1.365,4.199-3.912,7.814-6.942,10.786c-6.115,5.936-14.223,9.501-22.588,10.418
			c-4.187,0.459-8.446,0.233-12.561-0.636c-2.056-0.441-4.079-1.03-6.041-1.774c-1.954-0.731-3.94-1.662-5.75-2.9
			c-1.811-1.239-3.511-2.835-4.69-4.88c-1.191-2.029-1.729-4.483-1.546-6.798c0.165-2.325,0.924-4.492,1.947-6.428
			c1.038-1.937,2.344-3.67,3.818-5.208c2.963-3.065,6.525-5.439,10.398-7.023c3.861-1.522,8.178-2.317,12.176-1.385
			c-4.054,0.255-7.778,1.643-11.148,3.543c-3.373,1.889-6.438,4.317-8.934,7.157c-2.466,2.81-4.491,6.16-4.731,9.585
			c-0.122,1.694,0.25,3.338,1.092,4.782c0.837,1.449,2.125,2.692,3.625,3.713c1.515,1.027,3.193,1.823,5.001,2.496
			c1.798,0.678,3.647,1.211,5.521,1.609c3.752,0.783,7.622,0.979,11.426,0.554c7.594-0.839,14.987-4.141,20.415-9.444
			c2.691-2.645,4.876-5.821,5.991-9.294c1.131-3.461,1.027-7.199-0.511-10.403c-1.514-3.222-4.288-5.846-7.5-7.804
			c-3.22-1.979-6.864-3.374-10.611-4.413c-3.76-1.04-7.624-1.72-11.564-2.188c-3.887-0.456-7.839-0.664-11.753-0.57
			c-7.828,0.186-15.638,1.612-22.764,4.675c-7.113,3.044-13.485,7.79-18.122,13.924c-4.666,6.107-7.527,13.522-8.382,21.18
			c-0.885,7.669,0.184,15.529,2.693,22.884c2.515,7.369,6.438,14.255,11.261,20.432c2.411,3.098,5.043,6.016,7.854,8.767
			c2.793,2.723,5.806,5.204,9.053,7.3c6.465,4.22,13.925,6.845,21.579,7.145c7.652,0.343,15.336-1.548,22.303-4.922
			c6.988-3.375,13.307-8.161,18.814-13.724c5.511-5.573,10.239-11.941,14.071-18.798c3.826-6.857,6.767-14.224,8.52-21.849
			c0.878-3.811,1.446-7.687,1.659-11.572c0.206-3.878,0.053-7.815-0.351-11.717c-0.821-7.813-2.673-15.537-5.308-22.973
			c-5.298-14.845-13.726-28.704-25.072-39.605c-5.67-5.435-12.088-10.085-19.091-13.574c-6.997-3.498-14.57-5.806-22.33-6.782
			c-7.76-0.994-15.68-0.686-23.42,0.7c-7.748,1.381-15.317,3.807-22.586,6.938c-7.27,3.148-14.274,6.928-20.739,11.471
			c-6.464,4.536-12.389,9.835-17.469,15.859c-5.085,6.018-9.301,12.759-12.515,19.959c-3.21,7.203-5.427,14.85-6.705,22.656
			c-1.281,7.81-1.652,15.774-1.243,23.698c0.207,3.962,0.607,7.917,1.204,11.84c0.604,3.906,1.376,7.849,2.449,11.578
			L931.898,1806.438z"/>
	</g>
	<path display="inline" fill="none" stroke="#FFFFFF" stroke-width="3" stroke-miterlimit="10" d="M1131.083,1692.5
		c0,0-20.5,6-41,20"/>
	<path display="inline" fill="none" stroke="#FFFFFF" stroke-width="3" stroke-miterlimit="10" d="M1097.896,1840.563
		c0,0,27.681-34.343,35.938-62.063c10.5-35.25,55.75-82.75,55.75-82.75"/>
	<g display="inline">
		<path fill="#FFFFFF" d="M1103.95,1842.018c15.28-17.454,31.131-34.346,47.445-50.812c16.34-16.432,33.17-32.406,50.911-47.377
			c8.879-7.472,17.991-14.689,27.499-21.399c9.519-6.677,19.405-12.95,30.115-17.804c21.274-9.363,43.212-17.214,65.782-22.883
			c22.555-5.617,45.761-9.045,69.091-9.028c23.291,0.003,46.74,3.601,68.654,11.8c21.925,8.135,42.063,20.877,58.996,36.987
			c8.429,8.114,15.872,17.423,21.224,27.951c5.369,10.49,8.485,22.236,8.559,34.084c0.123,11.848-2.737,23.627-7.805,34.256
			c-5.064,10.652-12.245,20.22-20.793,28.277c-8.558,8.049-18.517,14.654-29.436,19.105c-10.882,4.422-22.897,6.692-34.743,5.126
			c-2.949-0.393-5.872-1.026-8.72-1.914c-1.417-0.439-2.844-0.961-4.193-1.51c-1.347-0.537-2.712-1.103-4.046-1.681
			c-5.363-2.315-10.599-4.929-15.671-7.822c-10.168-5.764-19.597-12.687-28.719-19.827c-9.136-7.127-18.091-14.412-27.788-20.531
			c-9.664-6.148-20.114-11.003-31.113-14.152c-10.989-3.182-22.415-4.78-33.879-5.347c-11.425-0.592-22.986,0.17-33.886,3.424
			c-5.433,1.626-10.67,3.902-15.414,6.943c-4.736,3.038-8.967,6.869-12.227,11.414c-3.265,4.528-5.535,9.776-6.42,15.268
			c-0.899,5.48-0.404,11.19,1.55,16.373c1.937,5.186,5.344,9.799,9.745,13.161c2.192,1.689,4.622,3.075,7.189,4.142
			c2.596,1.05,5.33,1.942,8.063,2.711c5.48,1.526,11.12,2.49,16.789,2.742c5.661,0.248,11.366-0.197,16.821-1.594
			c5.422-1.398,10.695-3.75,14.723-7.488c1.999-1.859,3.639-4.081,4.625-6.559c0.996-2.474,1.288-5.188,0.884-7.835
			c-0.184-1.314-0.553-2.645-1.002-3.954c-0.449-1.301-1.011-2.55-1.683-3.711c-1.313-2.325-3.3-4.266-5.749-4.909
			c-1.215-0.319-2.521-0.261-3.71,0.165c-1.188,0.42-2.252,1.256-2.83,2.379c-0.611,1.111-0.618,2.511-0.076,3.766
			c0.534,1.262,1.514,2.364,2.621,3.295c-1.259-0.709-2.461-1.645-3.261-2.967c-0.818-1.296-1.058-3.068-0.452-4.609
			c0.596-1.539,1.864-2.743,3.334-3.437c1.478-0.706,3.19-0.878,4.801-0.586c1.619,0.287,3.124,1.047,4.358,2.063
			c1.245,1.011,2.259,2.24,3.09,3.548c0.833,1.312,1.459,2.717,1.985,4.138c0.512,1.416,0.95,2.879,1.193,4.428
			c0.476,3.07,0.135,6.31-1.033,9.209c-1.155,2.909-3.047,5.448-5.274,7.525c-4.496,4.169-10.147,6.65-15.875,8.143
			c-5.763,1.479-11.72,1.944-17.609,1.694c-5.895-0.256-11.735-1.249-17.4-2.82c-2.835-0.796-5.613-1.695-8.382-2.812
			c-2.774-1.149-5.418-2.65-7.81-4.49c-4.804-3.659-8.542-8.708-10.659-14.363c-2.139-5.653-2.678-11.858-1.711-17.792
			c0.952-5.945,3.399-11.602,6.891-16.456c3.487-4.87,7.987-8.943,12.978-12.153c5-3.212,10.479-5.594,16.122-7.29
			c11.318-3.391,23.203-4.167,34.844-3.579c11.635,0.563,23.288,2.174,34.547,5.42c11.266,3.209,22.02,8.193,31.881,14.455
			c9.898,6.233,18.941,13.582,28.05,20.669c9.098,7.105,18.391,13.907,28.378,19.554c4.981,2.834,10.117,5.391,15.379,7.655
			c2.643,1.116,5.285,2.25,7.94,3.07c2.677,0.831,5.429,1.425,8.214,1.793c11.181,1.471,22.683-0.685,33.167-4.962
			c10.519-4.3,20.168-10.709,28.448-18.516c8.274-7.814,15.209-17.086,20.074-27.353c4.871-10.248,7.589-21.539,7.459-32.861
			c-0.085-11.323-3.066-22.543-8.242-32.635c-5.16-10.124-12.374-19.147-20.605-27.052c-16.611-15.768-36.39-28.257-57.886-36.202
			c-21.496-8.015-44.528-11.532-67.478-11.51c-22.985,0.008-45.912,3.413-68.233,8.999c-22.339,5.575-44.152,13.324-65.247,22.563
			c-10.398,4.686-20.167,10.844-29.587,17.428c-9.416,6.616-18.476,13.763-27.315,21.172c-17.666,14.848-34.47,30.735-50.792,47.087
			c-16.292,16.379-32.161,33.226-47.401,50.565L1103.95,1842.018z"/>
	</g>
	<path display="inline" fill="none" stroke="#FFFFFF" stroke-width="3" stroke-miterlimit="10" d="M1180.083,1801
		c0,0,68-42.5,143.75-37.5s94.5,27.75,94.5,27.75"/>
	<g display="inline">
		<path fill="#FFFFFF" d="M1455.083,1825c4.298,1.013,8.635,1.744,12.978,2.176c4.338,0.409,8.701,0.521,12.94-0.012
			c4.222-0.513,8.36-1.726,11.702-4.036c3.343-2.308,5.653-5.801,6.727-9.767c0.551-1.895,0.6-3.822,0.145-5.71
			c-0.45-1.883-1.361-3.688-2.559-5.327c-2.408-3.294-5.788-5.964-9.403-8.173c-7.306-4.395-15.66-7.122-24.123-8.616
			c-8.479-1.438-17.22-1.685-25.605-0.1c-4.182,0.8-8.261,2.086-12.023,3.967c-3.754,1.884-7.185,4.375-9.964,7.47
			c-0.698,0.771-1.35,1.576-1.971,2.415c-0.648,0.879-1.244,1.73-1.836,2.63c-1.168,1.783-2.238,3.624-3.183,5.521
			c-1.887,3.793-3.231,7.842-3.813,12.003c-0.588,4.156-0.402,8.414,0.576,12.502c0.489,2.042,1.155,4.046,2.004,5.972
			c0.838,1.897,1.902,3.832,3.067,5.381l-2.314,1.91c-0.802-1.001-1.397-1.925-2.003-2.931c-0.591-0.993-1.128-2.013-1.617-3.055
			c-0.976-2.085-1.762-4.26-2.32-6.497c-1.133-4.469-1.402-9.163-0.816-13.739c0.579-4.58,1.994-9.02,3.975-13.137
			c0.985-2.064,2.122-4.047,3.368-5.947c0.616-0.942,1.282-1.898,1.939-2.794c0.687-0.933,1.42-1.843,2.198-2.708
			c3.106-3.476,6.926-6.256,11.035-8.329c4.119-2.072,8.521-3.464,12.986-4.33c8.948-1.722,18.119-1.478,26.97,0.14
			c8.842,1.646,17.516,4.539,25.298,9.304c3.853,2.41,7.532,5.313,10.316,9.175c1.378,1.925,2.494,4.131,3.049,6.545
			c0.57,2.4,0.468,5.022-0.24,7.352c-0.649,2.259-1.634,4.466-3.011,6.436c-1.361,1.979-3.15,3.659-5.13,4.975
			c-3.996,2.654-8.669,3.718-13.176,4.052c-4.541,0.296-9.038-0.123-13.414-0.959
			C1463.459,1827.906,1459.169,1826.697,1455.083,1825z"/>
	</g>
	<path display="inline" fill="none" stroke="#FFFFFF" stroke-width="3" stroke-miterlimit="10" d="M1567.583,1727.5
		c0,0,16.75,44.75-17,61.25"/>
</g>
<g id="Layer_8" display="none">
	<path display="inline" fill="#FFFFFF" d="M2052.022,1486.477c0,0,27.333-55.501,99.333-24.501s66.5,140.5-164.5,103.5
		s-313.5-107-461.5-94s-179.166,44.167-193.333,69.167s31.167,40.5,47.5,16.166c16.333-24.333-13.333-24-14-13.333
		c0,0-9.167-7.333-1.667-14s34.334-4,30.5,19s-38.001,35.5-58.167,21s-15.666-42.5-6.333-56.5c0,0-29.501,30.333-80.167,12
		s-46.166-97-46.166-97s-79.5,37.499-136.833-56.833c-57.333-94.333,53.417-145.667,94.417-62.917c0,0-18.416-51.083,9.584-115.083
		s159.999-105.333,239.999-39.333s71.334,128,71.334,128s41.334-50,90.667-50.667s111.334,32,102.667,73.333
		c0,0,71.499,28.75,103.249,47s35.305,32.347,3.5,44.5c-30.75,11.75-61,18.5-16.5,53.25s143.812,57.308,226.25,49
		C2056.355,1491.726,2052.022,1486.477,2052.022,1486.477z"/>
	<g display="inline">
		<path d="M1319.355,1420.643c2.415-0.929,4.98-1.436,7.579-1.667c2.603-0.219,5.263-0.115,7.895,0.436
			c2.624,0.549,5.229,1.606,7.462,3.3c2.243,1.672,4.034,3.999,5.099,6.569c0.541,1.283,0.925,2.614,1.182,3.955
			c0.248,1.329,0.41,2.689,0.376,4.105c-0.066,2.772-0.693,5.415-1.555,7.923c-1.758,5.016-4.442,9.557-7.536,13.739
			c-3.113,4.176-6.689,7.991-10.664,11.361c-3.978,3.36-8.366,6.293-13.186,8.446c-4.801,2.142-10.11,3.496-15.531,3.267
			c-5.414-0.184-10.767-2.169-15.066-5.401c-2.162-1.598-4.104-3.48-5.803-5.489c-1.739-2.058-3.228-4.269-4.467-6.641
			c-2.477-4.739-3.843-10.017-4.156-15.311c-0.62-10.644,2.725-21.139,8.279-29.99c5.579-8.88,13.48-16.273,22.724-21.246
			c9.228-5.019,19.81-7.438,30.27-7.215c5.245,0.091,10.425,0.846,15.491,2.027c5.067,1.197,10.052,2.909,14.741,5.297
			c4.686,2.38,9.063,5.458,12.809,9.209c3.747,3.747,6.835,8.159,9.075,12.956c4.502,9.618,5.668,20.536,4.006,30.896
			c-0.847,5.188-2.391,10.291-4.875,15.018c-0.623,1.18-1.311,2.332-2.072,3.445c-0.374,0.552-0.792,1.117-1.188,1.624l-1.192,1.523
			c-1.609,2.018-3.275,3.98-4.983,5.903c-6.858,7.667-14.376,14.683-22.305,21.175c-7.938,6.483-16.311,12.425-25.038,17.784
			c-17.448,10.73-36.315,19.131-55.941,24.938l-0.859-2.875c19.34-5.845,37.9-14.24,55.035-24.916
			c17.106-10.688,32.951-23.546,46.345-38.563c1.667-1.88,3.291-3.795,4.85-5.753l1.157-1.479c0.386-0.496,0.723-0.953,1.063-1.453
			c0.673-0.985,1.29-2.02,1.854-3.088c2.25-4.282,3.699-9.037,4.483-13.876c1.552-9.681,0.435-19.879-3.717-28.718
			c-2.065-4.415-4.898-8.455-8.343-11.897c-3.445-3.445-7.486-6.291-11.863-8.511c-4.378-2.227-9.078-3.844-13.901-4.98
			c-4.833-1.124-9.771-1.839-14.699-1.919c-9.866-0.213-19.746,2.1-28.428,6.751c-8.688,4.627-16.154,11.558-21.426,19.878
			c-5.254,8.29-8.382,18.103-7.845,27.85c0.269,4.852,1.494,9.635,3.714,13.927c1.104,2.14,2.467,4.174,4.002,6.005
			c1.576,1.878,3.306,3.56,5.229,4.993c3.82,2.884,8.423,4.606,13.19,4.795c4.77,0.225,9.593-0.956,14.06-2.929
			c4.479-1.979,8.646-4.729,12.441-7.911c3.793-3.189,7.23-6.827,10.209-10.792c2.962-3.966,5.516-8.281,7.14-12.869
			c0.8-2.288,1.354-4.656,1.415-6.976c0.036-1.127-0.096-2.306-0.31-3.474c-0.216-1.157-0.54-2.28-0.982-3.343
			c-0.877-2.129-2.289-3.974-4.117-5.354c-1.827-1.386-4.013-2.326-6.316-2.988
			C1329.518,1420.831,1324.481,1420.576,1319.355,1420.643z"/>
	</g>
	<g display="inline">
		<path d="M1311.355,1478.143c-2.584,1.991-5.55,3.457-8.613,4.632c-3.079,1.145-6.311,1.946-9.608,2.31
			c-6.591,0.748-13.419-0.179-19.613-2.688c-6.213-2.499-11.692-6.559-16.234-11.355c-4.567-4.801-8.263-10.382-11.088-16.342
			c-5.641-11.94-7.876-25.422-6.527-38.57c1.318-13.155,6.394-25.942,14.462-36.447c8.061-10.543,18.828-18.73,30.511-24.655
			c5.83-2.973,11.907-5.496,18.167-7.462c6.265-1.948,12.708-3.344,19.226-4.126c13.038-1.571,26.368-0.648,39.044,2.736
			c6.324,1.714,12.563,3.905,18.33,7.073c2.889,1.561,5.664,3.349,8.236,5.399c1.288,1.022,2.522,2.116,3.667,3.3
			c1.142,1.18,2.212,2.453,3.041,3.862c-2.454-2.134-5.184-3.771-7.927-5.361c-2.763-1.558-5.602-2.958-8.476-4.27
			c-5.771-2.564-11.689-4.831-17.819-6.396c-12.239-3.179-25.078-3.979-37.608-2.383c-12.54,1.593-24.729,5.556-36.017,11.294
			c-11.254,5.698-21.503,13.51-29.133,23.477c-7.691,9.884-12.637,21.875-14.012,34.356c-1.412,12.462,0.584,25.35,5.839,36.769
			c2.631,5.7,6.084,11.029,10.355,15.61c4.254,4.585,9.333,8.414,15.071,10.791c2.862,1.193,5.872,2.024,8.944,2.474
			c3.074,0.45,6.202,0.51,9.318,0.289C1299.128,1481.989,1305.321,1480.485,1311.355,1478.143z"/>
	</g>
	<path display="inline" fill="none" stroke="#000000" stroke-width="3" stroke-miterlimit="10" d="M1201.646,1432.438
		c4.25-9.563-12.063-101.688,77.377-120.962c83.851-18.07,150.667,16.667,224.667,5.333s136.667-71.333,136.667-71.333"/>
	<g display="inline">
		<path d="M1573.356,1375.476c3.351-1.166,6.828-1.943,10.341-2.538c1.761-0.274,3.534-0.496,5.32-0.646
			c1.787-0.126,3.586-0.186,5.394-0.151c3.607,0.09,7.278,0.561,10.82,1.831c1.76,0.653,3.48,1.52,5.043,2.679
			c1.563,1.15,2.946,2.617,3.967,4.312c1.032,1.688,1.701,3.569,2.06,5.462c0.355,1.915,0.442,3.768,0.289,5.709
			c-0.307,3.826-1.779,7.539-4.027,10.59c-2.243,3.07-5.174,5.521-8.356,7.414c-3.19,1.896-6.652,3.25-10.203,4.159
			c-14.222,3.608-29.953,0.248-41.446-8.896c-2.877-2.27-5.475-4.858-7.782-7.713c-2.308-2.86-4.234-6.075-5.641-9.498
			c-2.841-6.856-3.517-14.509-2.296-21.753c1.208-7.265,4.204-14.149,8.437-20.106c4.234-5.964,9.722-11.022,15.999-14.775
			c6.272-3.763,13.335-6.193,20.578-7.146c7.235-0.985,14.669-0.426,21.678,1.131c7.028,1.496,14,3.758,20.389,7.372
			c6.371,3.578,12.105,8.705,15.883,15.161c3.825,6.428,5.561,13.898,5.727,21.202c0.178,7.336-1.057,14.565-3.012,21.494
			c-0.984,3.469-2.151,6.874-3.475,10.209c-0.665,1.666-1.362,3.318-2.095,4.952l-0.555,1.224l-0.579,1.224
			c-0.426,0.853-0.846,1.667-1.303,2.466c-3.636,6.416-8.567,11.933-14.087,16.616c-11.102,9.344-24.492,15.647-38.555,18.803
			c-7.041,1.557-14.292,2.273-21.534,1.944c-7.235-0.328-14.471-1.747-21.255-4.45c-6.778-2.699-13.056-6.725-18.291-11.822
			c-5.254-5.086-9.434-11.188-12.577-17.706c-0.791-1.629-1.511-3.29-2.176-4.969c-0.671-1.682-1.247-3.367-1.888-4.939
			c-1.276-3.202-2.735-6.341-4.382-9.359c-3.302-6.03-7.408-11.621-12.429-16.234c-4.999-4.625-10.924-8.211-17.359-10.377
			c-6.435-2.173-13.331-2.919-20.139-2.389c-13.662,1.072-26.802,6.98-37.462,15.654c-5.336,4.355-10.087,9.44-13.977,15.113
			c-1.952,2.831-3.771,5.748-5.49,8.752c-1.705,3.016-3.272,6.121-4.887,9.33c0.262-3.588,1.182-7.105,2.49-10.464
			c1.288-3.373,3.02-6.573,5.046-9.562c4.07-5.97,9.029-11.306,14.602-15.879c5.575-4.572,11.781-8.382,18.419-11.237
			c6.636-2.848,13.726-4.733,20.977-5.313c7.241-0.585,14.647,0.186,21.59,2.51c6.944,2.313,13.353,6.175,18.714,11.111
			c5.389,4.925,9.748,10.845,13.229,17.16c1.738,3.166,3.265,6.428,4.607,9.771c0.693,1.691,1.261,3.343,1.902,4.934
			c0.637,1.596,1.325,3.171,2.078,4.71c2.994,6.163,6.929,11.858,11.83,16.576c4.886,4.729,10.712,8.443,17.039,10.944
			c6.332,2.503,13.126,3.825,19.97,4.115c6.849,0.293,13.75-0.403,20.468-1.908c13.417-3.04,26.255-9.148,36.72-18.016
			c5.206-4.438,9.791-9.628,13.098-15.507c0.418-0.731,0.802-1.486,1.163-2.211l0.549-1.167l0.533-1.187
			c0.705-1.584,1.375-3.183,2.012-4.792c1.273-3.219,2.416-6.483,3.365-9.796c1.893-6.616,3.065-13.447,2.922-20.228
			c-0.133-6.761-1.698-13.476-5.087-19.217c-3.349-5.764-8.454-10.401-14.338-13.737c-5.891-3.363-12.48-5.547-19.218-7.003
			c-6.74-1.517-13.581-2.036-20.344-1.149c-6.739,0.864-13.292,3.095-19.127,6.567c-5.838,3.462-10.956,8.146-14.903,13.668
			c-3.949,5.514-6.736,11.882-7.865,18.538c-1.141,6.643-0.54,13.575,2.005,19.781c2.498,6.213,7,11.563,12.28,15.808
			c10.581,8.503,25.254,11.686,38.421,8.385c3.278-0.827,6.452-2.062,9.331-3.761c2.873-1.693,5.459-3.862,7.391-6.49
			c1.937-2.617,3.163-5.701,3.436-8.914c0.258-3.214-0.242-6.57-1.854-9.21c-1.596-2.664-4.265-4.616-7.338-5.8
			c-3.064-1.231-6.45-1.837-9.867-2.153C1587.4,1374.111,1580.363,1374.577,1573.356,1375.476z"/>
	</g>
	<g display="inline">
		<path d="M1419.105,1382.726c2.819-1.615,5.807-2.908,8.836-4.087c3.037-1.166,6.148-2.145,9.308-2.971
			c6.327-1.599,12.881-2.526,19.498-2.415c6.595,0.105,13.318,1.196,19.505,3.95c6.185,2.714,11.629,7.253,15.423,12.848
			c3.764,5.391,6.905,11.288,9.139,17.533c2.239,6.241,3.549,12.865,3.615,19.566c0.06,6.686-1.165,13.487-4.045,19.648
			c-2.839,6.166-7.375,11.582-12.963,15.448c-2.776,1.959-5.809,3.515-8.944,4.743c-3.159,1.227-6.366,2.07-9.59,2.772
			c-6.467,1.376-13.143,1.959-19.799,1.401c-6.626-0.571-13.331-2.254-19.19-5.87c-2.913-1.803-5.57-4.131-7.634-6.959
			c-2.071-2.816-3.503-6.125-4.139-9.55c-0.651-3.429-0.547-6.931,0.057-10.271c0.304-1.674,0.723-3.313,1.249-4.913
			c0.548-1.649,1.221-3.213,2.043-4.727c3.262-6.072,8.841-10.738,15.181-13.167c3.172-1.225,6.542-1.945,9.967-2.031
			c3.408-0.08,6.949,0.486,10.089,2.227c1.543,0.89,2.983,2.086,4,3.622c1.007,1.533,1.589,3.336,1.643,5.103
			c0.063,1.769-0.284,3.475-0.884,5.033c-0.582,1.567-1.414,2.999-2.366,4.315c1.102-3.033,1.852-6.235,1.323-9.145
			c-0.494-2.913-2.473-5.159-5.07-6.382c-2.588-1.271-5.639-1.688-8.643-1.595c-3.018,0.106-6.035,0.781-8.858,1.907
			c-5.657,2.24-10.513,6.42-13.311,11.763c-0.704,1.323-1.292,2.738-1.745,4.15c-0.464,1.465-0.828,2.958-1.083,4.457
			c-0.509,2.997-0.553,6.044,0.031,8.948c0.574,2.904,1.796,5.642,3.566,7.999c1.765,2.365,4.059,4.34,6.622,5.918
			c5.159,3.158,11.306,4.715,17.476,5.209c6.196,0.489,12.495-0.083,18.615-1.418c3.065-0.683,6.103-1.504,8.947-2.628
			c2.854-1.138,5.585-2.557,8.085-4.301c5.022-3.459,9.059-8.252,11.63-13.785c2.603-5.525,3.754-11.715,3.715-17.894
			c-0.032-6.194-1.27-12.382-3.308-18.283c-2.056-5.91-4.969-11.518-8.532-16.72c-3.403-5.104-8.194-9.172-13.791-11.699
			c-5.593-2.554-11.839-3.653-18.098-3.809c-6.275-0.136-12.595,0.539-18.856,1.647
			C1431.548,1379.412,1425.323,1380.923,1419.105,1382.726z"/>
	</g>
	<g display="inline">
		<path d="M1448.605,1441.476c1.233-0.104,2.438-0.428,3.496-0.958c1.056-0.534,1.937-1.329,2.414-2.322
			c0.499-0.98,0.631-2.115,0.537-3.246c-0.089-1.132-0.353-2.277-0.745-3.385c-0.377-1.002-0.959-1.958-1.717-2.655
			c-0.757-0.711-1.707-1.183-2.735-1.426c-2.064-0.511-4.388-0.135-6.457,0.738c-2.084,0.863-3.976,2.247-5.391,3.981
			c-0.707,0.866-1.293,1.821-1.722,2.836c-0.215,0.507-0.391,1.028-0.525,1.56c-0.064,0.265-0.121,0.524-0.182,0.842l-0.153,0.863
			c-0.378,2.329-0.478,4.7-0.189,6.993c0.284,2.29,0.983,4.501,2.19,6.355c1.196,1.862,2.924,3.313,4.951,4.245
			c2.025,0.945,4.317,1.389,6.644,1.52c2.331,0.11,4.737-0.005,6.992-0.468c2.281-0.466,4.511-1.252,6.619-2.284
			c4.208-2.067,7.976-5.126,10.599-8.931c2.641-3.785,3.945-8.391,3.378-12.891c-0.517-4.517-2.777-8.768-5.761-12.403
			c-3.003-3.653-6.71-6.78-10.666-9.542c-3.86-2.71-8.264-4.566-12.887-5.238c-4.622-0.691-9.394-0.213-13.962,1.067
			c-4.574,1.292-8.976,3.3-13.138,5.743c-4.167,2.442-8.111,5.306-11.862,8.407c-3.75,3.106-7.311,6.459-10.697,9.981
			c-3.378,3.513-6.656,7.21-9.594,11.03l-2.416-1.779c6.083-8.017,12.943-15.269,20.615-21.745
			c3.843-3.216,7.902-6.205,12.247-8.788c4.342-2.573,8.977-4.77,13.927-6.146c4.933-1.378,10.21-1.92,15.381-1.14
			c5.171,0.753,10.11,2.854,14.326,5.826c4.131,2.894,8.06,6.193,11.338,10.186c3.246,3.967,5.869,8.785,6.485,14.151
			c0.319,2.662,0.087,5.397-0.63,7.975c-0.716,2.581-1.914,4.996-3.425,7.151c-3.041,4.314-7.242,7.63-11.905,9.875
			c-2.339,1.119-4.813,1.968-7.379,2.469c-2.594,0.5-5.167,0.598-7.763,0.452c-2.593-0.171-5.242-0.688-7.697-1.857
			c-2.452-1.147-4.645-3.016-6.098-5.336c-1.472-2.311-2.253-4.947-2.553-7.554c-0.303-2.616-0.161-5.229,0.274-7.771l0.18-0.959
			c0.058-0.289,0.135-0.632,0.219-0.967c0.174-0.665,0.4-1.315,0.672-1.943c0.545-1.256,1.276-2.42,2.139-3.459
			c1.731-2.079,3.965-3.678,6.451-4.686c2.48-0.979,5.3-1.408,8.045-0.654c1.354,0.397,2.654,1.134,3.645,2.177
			c1.009,1.038,1.664,2.305,2.028,3.654c0.322,1.255,0.537,2.558,0.503,3.897c-0.037,1.328-0.345,2.724-1.113,3.881
			c-0.774,1.153-1.955,1.942-3.183,2.333C1451.122,1441.528,1449.839,1441.622,1448.605,1441.476z"/>
	</g>
	<path display="inline" fill="none" stroke="#000000" stroke-width="3" stroke-miterlimit="10" d="M1757.355,1333.226
		c0,0,4.5,23.75-11.75,43s-59.5,82.25-125.75,50.25"/>
	<path display="inline" fill="none" stroke="#000000" stroke-width="3" stroke-miterlimit="10" d="M1633.855,1410.726
		c0,0,37.25,8.75,54.5-36.75s-1-75.5-1-75.5"/>
	<path display="inline" fill="none" stroke="#000000" stroke-width="3" stroke-miterlimit="10" d="M1206.833,1384.375
		c0,0-19.364-22.787,6.855-66.233c31.77-52.642,101.001-55,142.001-50.667s105.666-28.666,118.666-45.333"/>
	<g display="inline">
		<path d="M1222.025,1305.421c-2.717-6.362-4.766-12.857-6.447-19.494c-1.656-6.631-2.85-13.389-3.451-20.217
			c-0.596-6.825-0.596-13.729,0.235-20.568c0.828-6.832,2.505-13.603,5.218-19.977c2.699-6.374,6.456-12.317,11.086-17.473
			c4.625-5.165,10.087-9.53,15.987-13.09c5.905-3.565,12.234-6.349,18.728-8.535c6.479-2.167,13.173-3.847,19.939-4.894
			c13.545-2.125,27.513-1.762,40.923,1.243c13.408,2.986,26.261,8.541,37.551,16.417c5.64,3.94,10.9,8.445,15.573,13.531
			c4.671,5.078,8.717,10.79,11.721,17.081c1.494,3.146,2.706,6.45,3.484,9.886c0.778,3.431,1.111,7.009,0.76,10.577
			c-0.353,3.556-1.417,7.114-3.323,10.19c-1.934,3.052-4.832,5.457-8.176,6.569c2.199-2.749,4.169-5.263,5.665-8.057
			c1.553-2.744,2.509-5.814,2.774-8.991c0.548-6.38-1.287-12.88-4.147-18.749c-2.874-5.91-6.84-11.284-11.301-16.17
			c-4.478-4.886-9.546-9.241-14.991-13.054c-10.91-7.606-23.322-13.071-36.31-16.026c-12.989-2.977-26.542-3.4-39.734-1.397
			c-6.608,0.999-13.099,2.567-19.45,4.689c-6.323,2.128-12.452,4.828-18.134,8.259c-5.679,3.426-10.899,7.604-15.305,12.524
			c-4.412,4.913-7.982,10.56-10.56,16.644c-2.589,6.083-4.202,12.574-5.001,19.166c-0.802,6.597-0.806,13.296-0.224,19.944
			c0.585,6.651,1.751,13.258,3.373,19.751c1.635,6.474,3.679,12.921,6.278,19.004L1222.025,1305.421z"/>
	</g>
	<g display="inline">
		<path d="M1252.763,1281.291c-2.202-3.486-3.875-7.094-5.239-10.903c-1.328-3.802-2.267-7.768-2.642-11.827
			c-0.375-4.053-0.168-8.209,0.795-12.228c0.954-4.016,2.659-7.875,5.015-11.263c1.168-1.7,2.484-3.29,3.901-4.769
			c1.444-1.515,3.096-2.868,4.871-3.993c3.558-2.267,7.625-3.609,11.715-4.171c4.102-0.571,8.242-0.399,12.259,0.275
			c4.021,0.681,7.93,1.875,11.654,3.491c3.725,1.617,7.25,3.705,10.461,6.24c3.193,2.544,6.106,5.573,8.188,9.269
			c1.028,1.847,1.83,3.872,2.222,6.023c0.397,2.145,0.353,4.415-0.193,6.553c-0.271,1.068-0.649,2.106-1.129,3.083
			c-0.225,0.477-0.523,0.996-0.756,1.396c-0.286,0.472-0.561,0.916-0.863,1.348c-1.195,1.738-2.642,3.323-4.297,4.652
			c-3.312,2.682-7.399,4.242-11.501,4.802c-4.118,0.568-8.276,0.238-12.243-0.739c-3.951-0.996-7.828-2.581-11.05-5.22
			c-0.813-0.644-1.561-1.378-2.245-2.172c-0.69-0.787-1.296-1.665-1.762-2.621c-0.48-0.945-0.791-1.994-0.863-3.051
			c-0.069-1.057,0.148-2.117,0.628-2.991c-0.234,2.007,0.541,3.756,1.652,5.167c1.133,1.417,2.576,2.575,4.118,3.584
			c3.123,1.964,6.611,3.444,10.247,4.313c3.633,0.859,7.422,1.109,11.06,0.566c3.631-0.536,7.102-1.926,9.868-4.211
			c1.385-1.136,2.592-2.483,3.598-3.979c0.255-0.372,0.491-0.764,0.709-1.13c0.253-0.448,0.44-0.78,0.63-1.189
			c0.376-0.783,0.66-1.598,0.863-2.427c0.833-3.333,0.005-6.906-1.789-10.011c-1.795-3.125-4.422-5.84-7.362-8.127
			c-2.949-2.296-6.25-4.166-9.695-5.679c-6.885-2.989-14.56-4.51-21.899-3.529c-3.652,0.496-7.188,1.672-10.245,3.611
			c-1.531,0.969-2.933,2.109-4.191,3.424c-1.292,1.344-2.481,2.777-3.532,4.301c-2.101,3.046-3.681,6.433-4.579,10.023
			c-0.909,3.587-1.154,7.349-0.858,11.087c0.296,3.742,1.12,7.462,2.325,11.061c1.197,3.582,2.761,7.155,4.672,10.33
			L1252.763,1281.291z"/>
	</g>
</g>
<g id="Layer_1">
	
		<image display="none" overflow="visible" width="1638" height="1024" xlink:href="E2FED854.jpg"  transform="matrix(1 0 0 1 790.1553 861.8457)">
	</image>
</g>
<g id="Layer_4_copy">
	<g>
		<path fill="#FFFFFF" d="M2257.459,200.253c0.4,2.303,0.531,4.648,0.377,6.965c-0.394,6.418-2.799,12.523-6.234,17.753
			c-0.174,0.265-0.359,0.519-0.539,0.779c1.86,11.78,6.77,19.525,14.274,22.438c8.399,3.262,18.949-0.108,24.612-4.934
			c5.375-4.578,6.123-11.56,4.48-16.448c-1.458-4.342-4.624-7.065-8.469-7.286c-0.552-0.031-1.076-0.039-1.571-0.021
			c0.873,0.039,1.713,0.179,2.491,0.43c2.15,0.696,5.697,2.831,5.288,9.313c-0.364,5.756-5.006,10.586-12.114,12.605
			c-6.581,1.868-15.155,1.022-19.481-5.083c-3.923-5.533-4.88-13.34-2.498-20.373c2.61-7.703,8.745-13.404,17.276-16.052
			c12.151-3.769,22.602,3.619,28.713,9.657c3.119-6.286,10.555-25.873-9.459-39.451
			C2289.645,180.097,2279.162,192.978,2257.459,200.253z"/>
		<path fill="#FFFFFF" d="M2204.271,248.034c5.857-0.53,11.645-1.797,17.123-3.864c5.478-2.063,10.633-4.939,15.227-8.541
			c4.584-3.605,8.691-7.883,11.857-12.698c3.15-4.813,5.271-10.304,5.607-15.945c0.365-5.612-1.123-11.337-4.388-15.844
			c-3.212-4.509-8.257-7.712-13.683-8.153c-0.336-0.031-0.674-0.047-1.012-0.059l-1.096-0.02c-0.732-0.008-1.465-0.002-2.197,0.014
			c-1.465,0.031-2.932,0.109-4.395,0.229c-2.926,0.24-5.838,0.648-8.705,1.238c-5.709,1.199-11.336,3.051-16.127,6.125
			c-2.382,1.537-4.527,3.393-6.191,5.586c-1.671,2.186-2.831,4.712-3.374,7.403c-0.557,2.69-0.507,5.524-0.041,8.317
			c0.484,2.814,1.275,5.613,2.464,8.158c1.184,2.548,2.798,4.861,4.861,6.646c2.053,1.795,4.552,3.025,7.234,3.611
			c5.4,1.184,11.285-0.117,16.327-2.743c2.534-1.32,4.896-2.991,6.969-4.951l0.764-0.749l0.745-0.789
			c0.461-0.514,0.92-1.051,1.346-1.61c0.843-1.116,1.58-2.294,2.105-3.528c1.074-2.453,1.215-5.168,0.023-7.371
			c-1.15-2.199-3.458-3.863-5.968-4.332c-0.624-0.125-1.257-0.168-1.878-0.124c-0.648,0.045-1.143,0.185-1.893,0.424
			c-1.262,0.396-2.49,1.073-3.5,1.946c-1.009,0.886-1.795,2.048-2.222,3.383c-0.39,1.324-0.512,2.857,0.165,4.23
			c-1.067-1.126-1.426-2.849-1.267-4.445c0.148-1.627,0.867-3.211,1.94-4.494c1.082-1.298,2.475-2.236,4.01-2.944
			c0.645-0.318,1.597-0.643,2.448-0.759c0.876-0.131,1.76-0.137,2.624-0.033c1.734,0.195,3.367,0.879,4.805,1.836
			c1.439,0.961,2.668,2.279,3.496,3.847c0.841,1.558,1.258,3.349,1.234,5.097c-0.02,1.752-0.438,3.446-1.086,4.98
			c-1.301,3.064-3.421,5.623-5.656,7.785c-2.287,2.19-4.877,4.047-7.671,5.525c-2.794,1.478-5.802,2.584-8.946,3.18
			c-3.138,0.594-6.433,0.668-9.641-0.018c-3.202-0.674-6.284-2.161-8.779-4.32c-2.514-2.146-4.423-4.88-5.791-7.773
			c-1.375-2.908-2.25-5.951-2.808-9.061c-0.542-3.132-0.64-6.421,0.004-9.641c0.623-3.219,2.021-6.311,3.991-8.918
			c1.966-2.621,4.439-4.77,7.099-6.51c5.356-3.47,11.364-5.48,17.411-6.727c3.031-0.619,6.093-1.042,9.168-1.29
			c1.537-0.123,3.078-0.202,4.622-0.234c0.772-0.016,1.544-0.021,2.318-0.011l1.161,0.022c0.414,0.015,0.828,0.034,1.24,0.073
			c3.307,0.286,6.514,1.393,9.313,3.101c2.806,1.709,5.213,4.003,7.106,6.639c1.836,2.542,3.164,5.399,4.014,8.388
			c35.12-11.91,39.114-38.962,39.151-39.238l0.233,0.029c1.742-11.117,1.801-28.432-9.537-43.752
			c-18.404-24.87-67.318-21.856-95.885,34.127c1.628,0.056,3.258,0.16,4.896,0.362c4.306,0.573,8.763,1.644,12.616,4.374
			c0.954,0.679,1.848,1.477,2.643,2.377c0.398,0.451,0.763,0.934,1.104,1.434c0.299,0.451,0.611,0.939,0.895,1.424
			c1.138,1.934,2.065,4.021,2.658,6.24c0.587,2.214,0.842,4.571,0.556,6.928c-0.285,2.351-1.145,4.679-2.532,6.639
			c-1.381,1.97-3.254,3.53-5.288,4.645c-1.019,0.559-2.078,1.017-3.156,1.383c-1.081,0.367-2.268,0.66-3.512,0.735
			c-1.237,0.073-2.541-0.072-3.768-0.532c-1.225-0.455-2.348-1.228-3.203-2.205c-1.722-1.968-2.417-4.589-2.107-7.074
			c0.268-2.498,1.819-4.908,4.035-6.135c1.092-0.633,2.303-0.943,3.476-1.084c1.147-0.106,2.276-0.139,3.437,0.035
			c1.147,0.174,2.355,0.521,3.385,1.308c1.033,0.784,1.66,2.069,1.725,3.267c0.076,1.209-0.24,2.338-0.742,3.328
			c-0.26,0.493-0.57,0.956-0.944,1.362c-0.379,0.39-0.834,0.767-1.37,0.854c0.489-0.218,0.796-0.66,1.051-1.094
			c0.256-0.439,0.443-0.915,0.577-1.398c0.272-0.962,0.341-1.979,0.122-2.863c-0.395-1.842-2.126-2.582-4.008-2.611
			c-0.938-0.016-1.929,0.059-2.868,0.234c-0.907,0.178-1.742,0.514-2.462,0.965c-1.453,0.904-2.314,2.476-2.486,4.17
			c-0.178,1.693,0.379,3.482,1.485,4.664c1.099,1.199,2.714,1.722,4.44,1.565c1.682-0.149,3.616-0.923,5.25-1.821
			c1.645-0.934,3.066-2.171,4.09-3.674c2.083-3.004,2.392-6.986,1.397-10.683c-0.492-1.856-1.283-3.659-2.279-5.357
			c-0.248-0.425-0.503-0.825-0.784-1.253c-0.255-0.369-0.523-0.73-0.823-1.07c-0.599-0.68-1.284-1.299-2.046-1.842
			c-1.518-1.1-3.305-1.902-5.172-2.535c-1.872-0.635-3.845-1.071-5.85-1.371c-2.869-0.419-5.836-0.578-8.771-0.54
			c-2.433,1.771-5.452,4.662-7.364,9.015c-3.625,8.25-14.375,30.875-54.25,23.375c0,0,58.5,7.5,56-43.5s-70.19-46.365-81.5-17
			c-8.949,23.236-8.135,36.416-2.996,53.33c1.365,1.574,2.607,3.247,3.746,5.025c2.227,3.512,3.947,7.486,4.514,11.758
			c0.295,2.118,0.297,4.32,0,6.428c-0.317,2.203-0.961,4.231-1.795,6.188c-1.683,3.896-4.107,7.371-7.021,10.369
			c-1.458,1.499-3.044,2.882-4.779,4.097c-1.738,1.204-3.623,2.268-5.75,2.926c-2.088,0.648-4.586,0.941-6.93-0.067
			c-1.153-0.487-2.159-1.304-2.909-2.238c-0.375-0.466-0.704-0.969-0.97-1.468c-0.113-0.199-0.248-0.479-0.377-0.752
			c-0.121-0.269-0.229-0.522-0.328-0.792c-0.82-2.132-0.903-4.549-0.289-6.714c0.59-2.178,1.848-4.103,3.52-5.568
			c0.857-0.71,1.84-1.313,2.988-1.625c0.571-0.154,1.199-0.211,1.829-0.105c0.63,0.104,1.246,0.4,1.699,0.836
			c0.917,0.891,1.153,2.05,1.245,3.074c0.072,1.049-0.064,2.063-0.271,3.049c-0.078-1.003-0.19-2.001-0.468-2.92
			c-0.25-0.916-0.715-1.771-1.348-2.186c-1.261-0.824-3.044,0.195-4.205,1.454c-1.235,1.272-2.058,2.942-2.45,4.631
			c-0.372,1.704-0.23,3.462,0.409,5.05c0.668,1.639,1.698,2.975,3.093,3.506c1.383,0.566,3.123,0.402,4.791-0.172
			c3.371-1.185,6.472-3.605,9.067-6.346c2.591-2.775,4.789-5.963,6.28-9.4c0.734-1.709,1.293-3.525,1.543-5.277
			c0.258-1.844,0.254-3.674,0.001-5.509c-0.864-6.097-4.202-11.833-8.466-16.548c-5.458-1.902-15.313-2.409-27.207,10.134
			c-18.332,19.333-11.5,80.833,19.834,57.833s36.5-27,64.5-15.666c20.832,8.432,32.258,15.753,48.822,18.47
			C2200.506,248.3,2202.393,248.207,2204.271,248.034z"/>
		<path fill="#FFFFFF" d="M2305.395,215.918c-4.41-5.257-15.934-16.817-29.152-12.713c-7.59,2.355-13.032,7.38-15.325,14.149
			c-2.079,6.139-1.273,12.912,2.104,17.676c3.462,4.883,10.831,5.461,16.214,3.932c4.585-1.303,9.604-4.59,9.94-9.909
			c0.215-3.399-0.868-5.509-3.217-6.269c-3.435-1.109-8.931,0.928-10.892,4.038l-3.902,6.189l1.151-7.226
			c0.017-0.1,1.741-9.943,13.817-9.262c5.113,0.295,9.277,3.781,11.141,9.326c1.965,5.847,1.063,14.201-5.379,19.689
			c-4.652,3.963-11.93,6.958-19.211,6.958c-2.863,0-5.727-0.463-8.432-1.513c-5.668-2.2-12.699-7.818-15.644-21.945
			c-2.88,3.533-6.204,6.658-9.78,9.435c-4.916,3.786-10.425,6.792-16.234,8.918c-2.16,0.793-4.359,1.466-6.585,2.025
			c0.699-0.017,1.4-0.033,2.122-0.062c29.333-1.167,31.166,29.5,61.833,25.166C2309.107,270.405,2319.718,241.001,2305.395,215.918z
			"/>
	</g>
</g>
<g id="Layer_8_copy">
	<g>
		<path fill="#FFFFFF" d="M340.302,132.629c0.548-6.38-1.287-12.88-4.147-18.749c-2.874-5.91-6.84-11.284-11.301-16.17
			c-4.478-4.886-9.546-9.241-14.991-13.054c-10.91-7.606-23.322-13.071-36.31-16.026c-12.989-2.977-26.542-3.4-39.734-1.397
			c-6.608,0.999-13.099,2.567-19.45,4.689c-6.323,2.128-12.452,4.828-18.134,8.259c-5.679,3.426-10.899,7.604-15.305,12.524
			c-4.412,4.913-7.982,10.56-10.56,16.644c-2.589,6.083-4.202,12.574-5.001,19.166c-0.802,6.597-0.806,13.296-0.224,19.944
			c0.585,6.65,1.751,13.258,3.373,19.751c1.44,5.702,3.223,11.368,5.397,16.799c8.339-9.114,18.014-16.146,28.404-21.513
			c-1.961-3.237-3.504-6.58-4.765-10.098c-1.328-3.802-2.267-7.768-2.642-11.827c-0.375-4.053-0.168-8.209,0.795-12.228
			c0.954-4.016,2.659-7.875,5.015-11.263c1.168-1.7,2.484-3.29,3.901-4.769c1.444-1.515,3.096-2.868,4.871-3.993
			c3.558-2.267,7.625-3.609,11.715-4.171c4.102-0.571,8.242-0.399,12.259,0.275c4.021,0.681,7.93,1.875,11.654,3.491
			c3.725,1.617,7.25,3.705,10.461,6.24c3.193,2.544,6.106,5.573,8.188,9.269c1.028,1.847,1.83,3.872,2.222,6.023
			c0.397,2.145,0.353,4.415-0.193,6.553c-0.271,1.068-0.649,2.106-1.129,3.083c-0.225,0.477-0.523,0.996-0.756,1.396
			c-0.286,0.472-0.561,0.916-0.863,1.348c-1.195,1.738-2.642,3.323-4.297,4.652c-0.429,0.348-0.873,0.675-1.327,0.985
			c17.975-1.688,35.039-0.886,48.45,0.531c8.453,0.892,17.967,0.168,27.843-1.681c1.446-1.878,2.75-3.717,3.808-5.693
			C339.081,138.876,340.037,135.806,340.302,132.629z"/>
		<path fill="#FFFFFF" d="M639.788,257.518c-12.782,33.715-36.663,38.336-48.782,38.336c-3.922,0-6.612-0.484-7.295-0.623
			c-3.13,5.15-7.085,9.703-11.496,13.689c12.255,5.654,23.682,8.039,34.259,8.039c40.426,0.002,68.516-34.68,83.712-53.441
			c1.625-2.006,3.029-3.738,4.304-5.25c10.576-12.527,12.082-27.133,11.942-35.326c-20.585-9.98-45.317-20.617-62.005-27.608
			C647.987,208.616,650.124,230.254,639.788,257.518z"/>
		<path fill="#FFFFFF" d="M420.709,111.095c-20.259,17.951-77.847,44.822-115.147,40.883c-38.765-4.096-108.57-3.056-140.559,49.95
			c-19.48,32.279-13.279,52.879-9.266,60.801c6.909-28.346,24.884-59.34,73-69.709c45.511-9.809,86.024-4.148,125.2,1.323
			c33.791,4.72,65.707,9.179,99.556,3.993c64.26-9.842,120.615-57.275,133.225-68.531c-19.266-10.066-42.799-15.939-63.998-15.653
			c-49.333,0.667-90.667,50.667-90.667,50.667S435.123,142.826,420.709,111.095z"/>
		<path fill="#FFFFFF" d="M151.195,303.657c0.251-9.193,0.615-22.4,3.565-36.592c-3.732-5.49-15.643-28.052,7.674-66.688
			c2.815-4.664,5.917-8.928,9.251-12.84c-2.531-6.076-4.475-12.273-6.078-18.6c-1.656-6.631-2.85-13.389-3.451-20.217
			c-0.596-6.825-0.596-13.729,0.235-20.568c0.828-6.832,2.505-13.603,5.218-19.977c2.699-6.374,6.456-12.317,11.086-17.473
			c4.625-5.165,10.087-9.53,15.987-13.09c5.905-3.565,12.234-6.349,18.728-8.535c6.479-2.167,13.173-3.847,19.939-4.894
			c13.545-2.125,27.513-1.762,40.923,1.243c13.408,2.986,26.261,8.541,37.551,16.417c5.64,3.94,10.9,8.445,15.573,13.531
			c4.671,5.078,8.717,10.79,11.721,17.081c1.494,3.146,2.706,6.45,3.484,9.886c0.778,3.431,1.111,7.009,0.76,10.577
			c-0.353,3.556-1.417,7.114-3.323,10.19c-0.843,1.33-1.877,2.526-3.044,3.557c32.616-6.863,68.291-25.31,82.399-38.384
			c-10.042-20.982-27.716-45.921-58.676-71.462c-80-66-211.999-24.667-239.999,39.333s-9.584,115.084-9.584,115.084
			c-41-82.75-151.75-31.417-94.417,62.916c51.046,83.986,119.662,63.473,134.098,57.963
			C151.021,309.983,151.104,306.961,151.195,303.657z"/>
		<path fill="#FFFFFF" d="M1101.385,344.987c-72-31-99.332,24.5-99.332,24.5s4.332,5.25-60.167,11.75
			c-82.439,8.307-181.75-14.25-226.25-49s-14.25-41.5,16.5-53.25c31.805-12.154,28.25-26.25-3.5-44.5
			c-5.412-3.111-11.981-6.527-19.152-10.055c-0.04,8.854-2.056,23.161-12.701,35.771c-1.256,1.488-2.65,3.209-4.266,5.203
			c-9.231,11.396-24.683,30.473-45.29,42.646c-13.339,7.881-27.033,11.822-40.968,11.822c-12.022,0.002-24.225-2.939-36.537-8.811
			c-10.957,9.012-24.065,15.119-37.822,18.207c-7.041,1.557-14.292,2.273-21.534,1.943c-7.235-0.328-14.471-1.746-21.255-4.449
			c-6.778-2.699-13.056-6.725-18.291-11.822c-5.254-5.086-9.434-11.188-12.577-17.707c-0.791-1.629-1.511-3.289-2.176-4.969
			c-0.671-1.682-1.247-3.367-1.888-4.939c-1.276-3.201-2.735-6.34-4.382-9.359c-3.302-6.029-7.408-11.621-12.429-16.234
			c-4.999-4.625-10.924-8.211-17.359-10.377c-6.435-2.172-13.331-2.918-20.139-2.389c-13.662,1.072-26.802,6.98-37.462,15.654
			c-5.336,4.355-10.087,9.441-13.977,15.113c-1.952,2.832-3.771,5.748-5.49,8.752c-1.705,3.016-3.272,6.121-4.887,9.33
			c0.262-3.588,1.182-7.105,2.49-10.463c1.288-3.373,3.02-6.574,5.046-9.563c4.07-5.969,9.029-11.305,14.602-15.879
			c5.575-4.572,11.781-8.381,18.419-11.236c6.636-2.848,13.726-4.733,20.977-5.314c7.241-0.584,14.647,0.187,21.59,2.511
			c6.944,2.313,13.353,6.175,18.714,11.11c5.389,4.926,9.748,10.846,13.229,17.16c1.738,3.166,3.265,6.428,4.607,9.771
			c0.693,1.691,1.261,3.342,1.902,4.934c0.637,1.596,1.325,3.17,2.078,4.709c2.994,6.164,6.929,11.859,11.83,16.576
			c4.886,4.729,10.712,8.443,17.039,10.945c6.332,2.502,13.126,3.824,19.97,4.115c6.849,0.293,13.75-0.404,20.468-1.908
			c13.417-3.041,26.255-9.148,36.72-18.016c5.206-4.439,9.791-9.629,13.098-15.508c0.418-0.73,0.802-1.486,1.163-2.211l0.549-1.166
			l0.533-1.188c0.705-1.584,1.375-3.182,2.012-4.791c1.273-3.219,2.416-6.484,3.365-9.797c1.893-6.615,3.065-13.447,2.922-20.227
			c-0.133-6.762-1.698-13.477-5.087-19.217c-3.349-5.765-8.454-10.401-14.338-13.737c-5.891-3.362-12.48-5.547-19.218-7.003
			c-6.74-1.517-13.581-2.035-20.344-1.149c-6.739,0.864-13.292,3.095-19.127,6.567c-5.838,3.463-10.956,8.146-14.903,13.668
			c-3.949,5.514-6.736,11.883-7.865,18.539c-1.141,6.643-0.54,13.574,2.005,19.781c2.498,6.213,7,11.563,12.28,15.807
			c10.581,8.504,25.254,11.686,38.421,8.385c3.278-0.826,6.452-2.061,9.331-3.76c2.873-1.693,5.459-3.863,7.391-6.49
			c1.937-2.617,3.163-5.701,3.436-8.914c0.258-3.215-0.242-6.57-1.854-9.211c-1.596-2.664-4.265-4.615-7.338-5.799
			c-3.064-1.232-6.45-1.838-9.867-2.154c-6.867-0.576-13.904-0.109-20.911,0.789c3.351-1.166,6.828-1.943,10.341-2.539
			c1.761-0.273,3.534-0.496,5.32-0.646c1.787-0.125,3.586-0.186,5.394-0.15c3.607,0.09,7.278,0.561,10.82,1.83
			c1.76,0.654,3.48,1.52,5.043,2.68c1.563,1.15,2.946,2.617,3.967,4.311c1.032,1.689,1.701,3.57,2.06,5.463
			c0.355,1.914,0.442,3.768,0.289,5.709c-0.307,3.826-1.779,7.539-4.027,10.59c-2.243,3.07-5.174,5.521-8.356,7.414
			c-3.19,1.896-6.652,3.25-10.203,4.158c-14.222,3.609-29.953,0.248-41.446-8.896c-2.877-2.27-5.475-4.857-7.782-7.713
			c-2.308-2.859-4.234-6.074-5.641-9.498c-2.841-6.855-3.517-14.508-2.296-21.752c1.208-7.266,4.204-14.15,8.437-20.106
			c4.234-5.964,9.722-11.022,15.999-14.774c6.272-3.764,13.335-6.193,20.578-7.146c7.235-0.984,14.669-0.426,21.678,1.131
			c7.028,1.496,14,3.758,20.389,7.373c6.371,3.577,12.105,8.705,15.883,15.16c3.825,6.428,5.561,13.898,5.727,21.201
			c0.178,7.336-1.057,14.566-3.012,21.494c-0.984,3.469-2.151,6.875-3.475,10.209c-0.665,1.666-1.362,3.318-2.095,4.953
			l-0.555,1.223l-0.579,1.225c-0.184,0.367-0.367,0.725-0.552,1.08c2.701,0.424,10.271,1.199,19.076-1.521
			c14.684-4.535,25.657-16.139,32.615-34.492c10.606-27.977,7.537-50.075,3.79-62.646c-9.344-3.891-15.387-6.321-15.387-6.321
			c4.76-22.7-11.797-42.784-35.862-56.17c-11.066,9.987-69.082,59.802-135.578,69.987c-34.281,5.251-66.409,0.762-100.424-3.988
			c-38.918-5.437-79.163-11.057-124.154-1.362c-72.656,15.657-74.421,80.218-75.175,107.786c-0.138,5.061-0.246,8.705-0.738,10.949
			c-0.14,15.766,2.191,77.352,46.263,93.299c19.554,7.074,35.952,6.898,48.722,4.018c9.15-4.148,18.027-8.895,26.551-14.205
			c17.106-10.688,32.951-23.545,46.345-38.563c1.667-1.879,3.291-3.795,4.85-5.752l1.157-1.48c0.386-0.496,0.723-0.953,1.063-1.453
			c0.673-0.984,1.29-2.02,1.854-3.088c2.25-4.281,3.699-9.037,4.483-13.875c1.552-9.682,0.435-19.879-3.717-28.719
			c-2.065-4.414-4.898-8.455-8.343-11.896c-3.445-3.445-7.486-6.291-11.863-8.512c-4.378-2.227-9.078-3.844-13.901-4.98
			c-4.833-1.123-9.771-1.838-14.699-1.918c-9.866-0.213-19.746,2.1-28.428,6.75c-8.688,4.627-16.154,11.559-21.426,19.879
			c-5.254,8.289-8.382,18.102-7.845,27.85c0.269,4.852,1.494,9.635,3.714,13.926c1.104,2.141,2.467,4.174,4.002,6.006
			c1.576,1.877,3.306,3.559,5.229,4.992c3.82,2.885,8.423,4.607,13.19,4.795c4.77,0.225,9.593-0.955,14.06-2.928
			c4.479-1.98,8.646-4.73,12.441-7.912c3.793-3.189,7.23-6.826,10.209-10.791c2.962-3.967,5.516-8.281,7.14-12.869
			c0.8-2.289,1.354-4.656,1.415-6.977c0.036-1.127-0.096-2.305-0.31-3.473c-0.216-1.158-0.54-2.281-0.982-3.344
			c-0.877-2.129-2.289-3.973-4.117-5.354c-1.827-1.387-4.013-2.326-6.316-2.988c-4.646-1.283-9.683-1.539-14.809-1.473
			c2.415-0.928,4.98-1.436,7.579-1.666c2.603-0.219,5.263-0.115,7.895,0.436c2.624,0.549,5.229,1.605,7.462,3.299
			c2.243,1.672,4.034,4,5.099,6.57c0.541,1.283,0.925,2.613,1.182,3.955c0.248,1.328,0.41,2.689,0.376,4.105
			c-0.066,2.771-0.693,5.414-1.555,7.922c-1.758,5.016-4.442,9.557-7.536,13.74c-3.113,4.176-6.689,7.99-10.664,11.361
			c-3.978,3.359-8.366,6.293-13.186,8.445c-3.519,1.57-7.313,2.709-11.221,3.119c-0.675,0.297-1.356,0.582-2.045,0.846
			c-3.079,1.145-6.311,1.945-9.608,2.309c-6.591,0.748-13.419-0.178-19.613-2.688c-6.213-2.498-11.692-6.559-16.234-11.355
			c-4.567-4.801-8.263-10.381-11.088-16.342c-5.641-11.939-7.876-25.422-6.527-38.57c1.318-13.154,6.394-25.941,14.462-36.447
			c8.061-10.543,18.828-18.729,30.511-24.654c5.83-2.973,11.907-5.496,18.167-7.463c6.265-1.947,12.708-3.344,19.226-4.125
			c13.038-1.571,26.368-0.648,39.044,2.736c6.324,1.714,12.563,3.904,18.33,7.072c2.889,1.561,5.664,3.35,8.236,5.399
			c1.288,1.022,2.522,2.116,3.667,3.3c1.142,1.181,2.212,2.453,3.041,3.862c-2.454-2.134-5.184-3.771-7.927-5.36
			c-2.763-1.559-5.602-2.959-8.476-4.271c-5.771-2.564-11.689-4.831-17.819-6.396c-12.239-3.18-25.078-3.979-37.608-2.384
			c-12.54,1.593-24.729,5.556-36.017,11.294c-11.254,5.698-21.503,13.51-29.133,23.477c-7.691,9.885-12.637,21.875-14.012,34.357
			c-1.412,12.461,0.584,25.35,5.839,36.768c2.631,5.701,6.084,11.029,10.355,15.611c4.254,4.584,9.333,8.414,15.071,10.791
			c2.862,1.193,5.872,2.023,8.944,2.473c3.074,0.451,6.202,0.51,9.318,0.289c1.691-0.127,3.378-0.336,5.061-0.611
			c-4.532-0.619-8.912-2.443-12.54-5.172c-2.162-1.598-4.104-3.48-5.803-5.488c-1.739-2.059-3.228-4.27-4.467-6.641
			c-2.477-4.74-3.843-10.018-4.156-15.311c-0.62-10.645,2.725-21.139,8.279-29.99c5.579-8.881,13.48-16.273,22.724-21.246
			c9.228-5.02,19.81-7.439,30.27-7.215c5.245,0.09,10.425,0.846,15.491,2.027c5.067,1.197,10.052,2.908,14.741,5.297
			c4.686,2.379,9.063,5.457,12.809,9.209c3.747,3.746,6.835,8.158,9.075,12.955c2.352,5.025,3.785,10.404,4.389,15.873
			c5.28-6.457,11.094-12.391,17.477-17.781c3.843-3.215,7.902-6.205,12.247-8.787c4.342-2.574,8.977-4.77,13.927-6.146
			c4.933-1.377,10.21-1.92,15.381-1.139c5.171,0.752,10.11,2.854,14.326,5.826c4.131,2.893,8.06,6.193,11.338,10.186
			c3.246,3.967,5.869,8.785,6.485,14.15c0.319,2.662,0.087,5.398-0.63,7.975c-0.716,2.582-1.914,4.996-3.425,7.152
			c-3.041,4.314-7.242,7.629-11.905,9.875c-2.339,1.119-4.813,1.967-7.379,2.469c-2.594,0.5-5.167,0.598-7.763,0.451
			c-2.593-0.17-5.242-0.688-7.697-1.857c-2.452-1.146-4.645-3.016-6.098-5.336c-1.472-2.311-2.253-4.947-2.553-7.553
			c-0.303-2.617-0.161-5.23,0.274-7.771l0.18-0.959c0.058-0.289,0.135-0.633,0.219-0.967c0.174-0.666,0.4-1.316,0.672-1.943
			c0.545-1.256,1.276-2.42,2.139-3.459c1.731-2.08,3.965-3.678,6.451-4.686c2.48-0.979,5.3-1.408,8.045-0.654
			c1.354,0.396,2.654,1.133,3.645,2.176c1.009,1.039,1.664,2.305,2.028,3.654c0.322,1.256,0.537,2.559,0.503,3.898
			c-0.037,1.328-0.345,2.723-1.113,3.881c-0.774,1.152-1.955,1.941-3.183,2.332c-1.232,0.396-2.515,0.49-3.749,0.344
			c1.233-0.105,2.438-0.428,3.496-0.959c1.056-0.533,1.937-1.328,2.414-2.322c0.499-0.98,0.631-2.115,0.537-3.246
			c-0.089-1.131-0.353-2.277-0.745-3.385c-0.377-1.002-0.959-1.957-1.717-2.654c-0.757-0.711-1.707-1.184-2.735-1.426
			c-2.064-0.512-4.388-0.135-6.457,0.738c-2.084,0.863-3.976,2.246-5.391,3.98c-0.707,0.867-1.293,1.822-1.722,2.836
			c-0.215,0.508-0.391,1.029-0.525,1.561c-0.064,0.264-0.121,0.523-0.182,0.842l-0.153,0.863c-0.378,2.328-0.478,4.699-0.189,6.992
			c0.284,2.291,0.983,4.502,2.19,6.355c1.196,1.863,2.924,3.313,4.951,4.246c2.025,0.945,4.317,1.389,6.644,1.52
			c2.331,0.109,4.737-0.006,6.992-0.469c2.281-0.465,4.511-1.252,6.619-2.283c4.208-2.068,7.976-5.127,10.599-8.932
			c2.641-3.785,3.945-8.391,3.378-12.891c-0.517-4.516-2.777-8.768-5.761-12.402c-3.003-3.654-6.71-6.781-10.666-9.543
			c-3.86-2.709-8.264-4.566-12.887-5.238c-4.622-0.691-9.394-0.213-13.962,1.068c-4.574,1.291-8.976,3.299-13.138,5.742
			c-4.167,2.443-8.111,5.307-11.862,8.408c-3.75,3.105-7.311,6.459-10.697,9.98c-2.995,3.113-5.896,6.379-8.565,9.738
			c0.1,3.541-0.131,7.088-0.69,10.572c-0.847,5.188-2.391,10.291-4.875,15.018c-0.623,1.18-1.311,2.332-2.072,3.445
			c-0.374,0.551-0.792,1.117-1.188,1.623l-1.192,1.523c-1.609,2.018-3.275,3.98-4.983,5.904
			c-6.858,7.666-14.376,14.682-22.305,21.174c-7.732,6.316-15.883,12.105-24.365,17.355c-7.499,14.844-9.505,39.107,8.79,52.264
			c20.166,14.5,54.333,2,58.167-21s-23-25.668-30.5-19c-7.5,6.666,1.667,14,1.667,14c0.667-10.668,30.333-11,14,13.332
			c-16.333,24.333-61.667,8.834-47.5-16.166s45.333-56.166,193.333-69.166s230.5,57,461.5,94
			C1167.886,485.486,1173.386,375.987,1101.385,344.987z M450.416,329.809c-2.839,6.166-7.375,11.582-12.963,15.449
			c-2.776,1.959-5.809,3.514-8.944,4.742c-3.159,1.227-6.366,2.07-9.59,2.773c-6.467,1.375-13.143,1.959-19.799,1.4
			c-6.626-0.57-13.331-2.254-19.19-5.869c-2.913-1.803-5.57-4.131-7.634-6.959c-2.071-2.816-3.503-6.125-4.139-9.551
			c-0.651-3.428-0.547-6.93,0.057-10.271c0.304-1.674,0.723-3.313,1.249-4.912c0.548-1.65,1.221-3.213,2.043-4.727
			c3.262-6.072,8.841-10.738,15.181-13.168c3.172-1.225,6.542-1.945,9.967-2.031c3.408-0.08,6.949,0.486,10.089,2.227
			c1.543,0.891,2.983,2.086,4,3.623c1.007,1.533,1.589,3.336,1.643,5.102c0.063,1.77-0.284,3.475-0.884,5.033
			c-0.582,1.568-1.414,3-2.366,4.316c1.102-3.033,1.852-6.236,1.323-9.145c-0.494-2.914-2.473-5.16-5.07-6.383
			c-2.588-1.271-5.639-1.688-8.643-1.594c-3.018,0.105-6.035,0.781-8.858,1.906c-5.657,2.24-10.513,6.42-13.311,11.764
			c-0.704,1.322-1.292,2.738-1.745,4.15c-0.464,1.465-0.828,2.957-1.083,4.457c-0.509,2.996-0.553,6.043,0.031,8.947
			c0.574,2.904,1.796,5.643,3.566,8c1.765,2.365,4.059,4.34,6.622,5.918c5.159,3.158,11.306,4.715,17.476,5.209
			c6.196,0.488,12.495-0.084,18.615-1.418c3.065-0.684,6.103-1.504,8.947-2.629c2.854-1.137,5.585-2.557,8.085-4.301
			c5.022-3.459,9.059-8.252,11.63-13.785c2.603-5.525,3.754-11.715,3.715-17.893c-0.032-6.195-1.27-12.383-3.308-18.283
			c-2.056-5.91-4.969-11.518-8.532-16.721c-3.403-5.104-8.194-9.172-13.791-11.699c-5.593-2.553-11.839-3.652-18.098-3.809
			c-6.275-0.135-12.595,0.539-18.856,1.648c-6.273,1.094-12.499,2.605-18.716,4.408c2.819-1.615,5.807-2.908,8.836-4.088
			c3.037-1.166,6.148-2.145,9.308-2.971c6.327-1.598,12.881-2.525,19.498-2.414c6.595,0.105,13.318,1.195,19.505,3.949
			c6.185,2.715,11.629,7.254,15.423,12.848c3.764,5.391,6.905,11.289,9.139,17.533c2.239,6.242,3.549,12.865,3.615,19.566
			C454.521,316.846,453.296,323.649,450.416,329.809z"/>
		<path fill="#FFFFFF" d="M235.011,151.542c-3.951-0.996-7.828-2.581-11.05-5.22c-0.813-0.644-1.561-1.378-2.245-2.172
			c-0.69-0.787-1.296-1.665-1.762-2.621c-0.48-0.945-0.791-1.994-0.863-3.051c-0.069-1.057,0.148-2.117,0.628-2.991
			c-0.234,2.007,0.541,3.756,1.652,5.167c1.133,1.417,2.576,2.575,4.118,3.584c3.123,1.964,6.611,3.444,10.247,4.313
			c3.633,0.859,7.422,1.109,11.06,0.566c3.631-0.536,7.102-1.926,9.868-4.211c1.385-1.136,2.592-2.483,3.598-3.979
			c0.255-0.372,0.491-0.764,0.709-1.13c0.253-0.448,0.44-0.78,0.63-1.189c0.376-0.783,0.66-1.598,0.863-2.427
			c0.833-3.333,0.005-6.906-1.789-10.011c-1.795-3.125-4.422-5.84-7.362-8.127c-2.949-2.296-6.25-4.166-9.695-5.679
			c-6.885-2.989-14.56-4.51-21.899-3.529c-3.652,0.496-7.188,1.672-10.245,3.611c-1.531,0.969-2.933,2.109-4.191,3.424
			c-1.292,1.344-2.481,2.777-3.532,4.301c-2.101,3.046-3.681,6.433-4.579,10.023c-0.909,3.587-1.154,7.349-0.858,11.087
			c0.296,3.742,1.12,7.462,2.325,11.061c1.134,3.392,2.607,6.764,4.381,9.81c9.888-4.785,20.356-8.134,30.882-10.409
			C235.605,151.676,235.307,151.614,235.011,151.542z"/>
	</g>
</g>
<g id="Layer_2_copy">
	<g>
		<path fill="#FFFFFF" d="M1497.816,181.251c-8-62-86.5-132.75-207.75-41.25c-13.105,9.891-25.764,18.642-37.937,26.405
			c-2.142,5.521-4.685,10.891-7.665,16.028c-1.121,1.931-2.32,3.818-3.567,5.678c16.83-14.311,34.145-28.076,52.421-40.65
			c9.651-6.585,19.589-12.804,29.999-18.252c10.412-5.402,21.313-10.161,32.987-12.784c5.827-1.284,11.872-1.991,17.972-1.572
			c1.502,0.096,3.096,0.31,4.494,0.518c1.475,0.219,2.923,0.454,4.378,0.71c2.904,0.514,5.797,1.115,8.668,1.807
			c11.477,2.77,22.682,7.012,32.904,13.105c10.197,6.077,19.427,14.076,26.287,23.945c6.882,9.816,11.188,21.557,11.896,33.595
			c0.376,6.004-0.108,12.071-1.34,17.915c-1.263,5.932-3.377,11.606-6.232,16.907c-2.851,5.296-6.428,10.19-10.605,14.519
			c-4.181,4.32-8.968,8.095-14.33,10.966c-5.348,2.827-11.368,4.869-17.769,4.675c-3.176-0.104-6.434-0.871-9.323-2.459
			c-2.897-1.57-5.317-3.961-7.04-6.67c-1.74-2.713-2.846-5.705-3.553-8.708c-0.179-0.745-0.331-1.524-0.457-2.242
			c-0.137-0.786-0.242-1.534-0.331-2.303c-0.17-1.531-0.253-3.079-0.222-4.631c0.076-6.204,2.079-12.488,5.834-17.511
			c3.73-5.029,8.959-8.879,14.938-10.852c2.991-0.964,6.209-1.491,9.539-1.055c1.655,0.225,3.35,0.724,4.906,1.647
			c1.557,0.911,2.914,2.325,3.746,3.971c0.854,1.645,1.154,3.443,1.175,5.123c0.015,1.69-0.283,3.3-0.69,4.821
			c-0.837,2.951-2.112,6.079-4.858,8.31c-0.687,0.538-1.466,0.993-2.313,1.296c-0.851,0.291-1.758,0.423-2.642,0.385
			c-1.771-0.083-3.424-0.788-4.646-1.911c-1.205-1.104-2.157-2.626-2.154-4.323c-0.002-0.832,0.266-1.659,0.747-2.285
			c0.483-0.627,1.114-1.073,1.784-1.369c-1.145,0.928-1.79,2.323-1.473,3.558c0.292,1.228,1.185,2.264,2.253,2.917
			c1.075,0.647,2.307,0.986,3.446,0.853c1.139-0.13,2.144-0.665,2.978-1.472c0.832-0.815,1.479-1.902,1.972-3.088
			c0.512-1.181,0.871-2.467,1.15-3.791c0.556-2.578,0.563-5.206-0.466-7.081c-0.971-1.878-3.039-3.015-5.492-3.332
			c-2.447-0.326-5.117,0.071-7.633,0.896c-5.061,1.669-9.629,5.03-12.801,9.339c-3.203,4.312-4.901,9.625-4.968,15.032
			c-0.025,1.353,0.05,2.711,0.201,4.065c0.078,0.674,0.179,1.364,0.291,2.009c0.126,0.712,0.254,1.357,0.415,2.024
			c0.624,2.642,1.584,5.171,2.991,7.352c1.397,2.182,3.253,3.99,5.472,5.191c2.213,1.21,4.76,1.828,7.382,1.912
			c5.274,0.168,10.673-1.59,15.532-4.185c4.882-2.621,9.33-6.126,13.214-10.156c3.886-4.035,7.22-8.613,9.868-13.551
			c2.65-4.928,4.615-10.255,5.764-15.689c1.155-5.523,1.588-11.143,1.232-16.735c-0.68-11.188-4.678-22.074-11.137-31.266
			c-6.438-9.234-15.164-16.804-24.904-22.586c-9.76-5.8-20.535-9.873-31.63-12.532c-2.776-0.665-5.575-1.241-8.391-1.735
			c-1.406-0.246-2.825-0.474-4.224-0.679c-1.474-0.216-2.761-0.386-4.159-0.476c-5.506-0.373-11.123,0.274-16.624,1.498
			c-11.031,2.49-21.628,7.103-31.794,12.404c-10.173,5.343-19.959,11.483-29.485,18.005c-19.044,13.085-37.085,27.667-54.682,42.744
			c-17.612,15.082-34.649,30.818-51.909,46.427c-4.334,3.891-8.687,7.757-13.233,11.504c-4.556,3.729-9.274,7.246-14.132,10.557
			c-9.717,6.616-19.971,12.444-30.695,17.299c-10.724,4.84-21.938,8.712-33.535,11.074c-11.578,2.358-23.589,3.171-35.429,1.636
			c-11.823-1.504-23.396-5.511-33.525-11.857c-1.271-0.795-2.504-1.599-3.748-2.475c-1.194-0.839-2.417-1.734-3.587-2.646
			c-2.351-1.833-4.624-3.784-6.764-5.891c-4.276-4.2-8.085-9.013-10.808-14.507c-2.731-5.464-4.289-11.674-3.988-17.91
			c0.267-6.23,2.409-12.332,5.887-17.428c3.465-5.123,8.166-9.281,13.409-12.363c5.254-3.088,11.062-5.125,17.005-6.181
			c5.949-1.063,12.04-1.136,17.995-0.376c2.961,0.373,5.961,0.984,8.805,1.735c2.864,0.745,5.707,1.604,8.508,2.613
			c5.59,2.022,11.071,4.61,15.965,8.268c2.436,1.83,4.713,3.944,6.641,6.405c1.832,2.346,3.33,5.029,4.234,7.945
			c2.32,2.367,8.55,8.451,17.028,14.721c-9.649-14.674-16.617-35.792-18.571-57.502c-2.946-32.743,5.36-62.151,23.392-82.808
			c19.326-22.139,45.38-31.837,69.703-25.941c20.082,4.867,35.503,19.822,40.245,39.027c9.169,37.134-17.081,52.097-23.224,55.037
			c-1.715,1.213-3.614,2.186-5.627,2.83c-5.737,1.852-12.22,1.024-17.279-2.242c-2.521-1.633-4.706-3.878-6.137-6.599
			c-1.444-2.705-2.07-5.871-1.751-8.887c0.291-3.025,1.386-5.849,2.854-8.328c1.464-2.498,3.347-4.65,5.365-6.587
			c2.03-1.922,4.331-3.769,7.184-4.743c1.415-0.479,2.98-0.71,4.522-0.485c1.538,0.219,2.996,0.888,4.139,1.849
			c2.292,1.94,3.574,4.634,4.133,7.357c0.27,1.371,0.365,2.778,0.177,4.159c-0.2,1.352-0.695,2.784-1.798,3.618
			c0.969-0.976,1.227-2.371,1.244-3.662c0.016-1.313-0.219-2.619-0.617-3.859c-0.803-2.459-2.229-4.783-4.246-6.148
			c-1-0.676-2.118-1.093-3.267-1.161c-1.148-0.075-2.312,0.183-3.415,0.653c-2.209,0.971-4.184,2.638-5.933,4.528
			c-1.771,1.895-3.323,3.965-4.525,6.165c-1.193,2.199-1.98,4.571-2.114,6.938c-0.131,2.361,0.359,4.7,1.494,6.739
			c1.121,2.045,2.844,3.77,4.867,5.029c4.053,2.548,9.285,3.217,13.823,1.709c4.581-1.456,8.29-5.09,10.589-9.464
			c2.445-4.563,3.998-9.502,4.501-14.588c0.507-5.074-0.056-10.246-1.651-15.076c-1.591-4.828-4.22-9.313-7.701-12.964
			c-3.476-3.648-7.827-6.44-12.6-7.853c-4.768-1.441-9.902-1.452-14.76-0.195c-4.871,1.249-9.449,3.692-13.552,6.797
			c-8.153,6.315-15.008,14.734-18.578,24.342c-1.791,4.804-2.765,9.895-2.849,15.011c-0.091,5.117,0.699,10.247,2.256,15.143
			c3.101,9.809,9.195,18.654,17.078,25.341c7.875,6.705,17.581,11.27,27.786,12.84c5.098,0.801,10.306,0.851,15.429,0.191
			c4.957-0.536,9.554-2.656,13.774-5.561c4.207-2.909,7.975-6.556,11.353-10.535c3.374-3.994,6.367-8.341,9.016-12.894
			c3.174-5.483,5.867-11.256,8.091-17.208c0.982-5.606,1.507-11.371,1.507-17.259c0-54.952-44.548-99.5-99.5-99.5
			s-99.5,44.548-99.5,99.5c0,21.154,6.607,40.763,17.863,56.886c-7.048-2.338-14.766-3.636-22.863-3.636
			c-33.137,0-60,21.603-60,48.25c0,9.224,3.223,17.841,8.806,25.169c6.852,11.899,37.34,55.612,109.694,42.831
			c26.074-4.605,59.51-25.398,95.245-50.242c3.539-5.684,7.662-10.96,11.979-16.042c5.459-6.26,11.256-12.22,17.199-18.03
			c2.98-2.897,6.015-5.741,9.105-8.525c3.101-2.774,6.275-5.468,9.499-8.104c6.46-5.251,13.113-10.296,20.116-14.842
			c6.987-4.563,14.219-8.784,21.75-12.435c7.535-3.634,15.346-6.742,23.398-9.096c8.039-2.376,16.368-3.892,24.749-4.266
			c1.171-0.045,2.344-0.063,3.517-0.064c28.12-12.376,53.086-16.132,71.779-3.794c2.929,1.356,5.686,3.021,8.266,4.899
			c3.095,2.239,5.914,4.821,8.48,7.614c2.573,2.79,4.885,5.807,6.887,9.024c2.045,3.275,3.712,6.99,4.163,11.076
			c0.216,2.032,0.074,4.133-0.472,6.116c-0.552,1.979-1.463,3.835-2.675,5.411c-2.39,3.171-5.669,5.44-9.237,6.548
			c2.81-2.414,5.156-5.156,6.69-8.149c1.516-3.009,2.041-6.233,1.55-9.411c-0.461-3.188-1.934-6.28-3.845-9.107
			c-1.986-2.896-4.181-5.658-6.603-8.192c-4.849-5.045-10.537-9.339-16.843-12.078c-0.511-0.218-1.025-0.422-1.543-0.618
			c-21.769,8.683-37.157,29.941-37.157,54.807c0,32.585,26.415,59,59,59c26.722,0,49.281-17.77,56.54-42.132
			C1493.951,228.328,1501.043,206.252,1497.816,181.251z"/>
		<path fill="#FFFFFF" d="M1173.043,248.256c4.414-3.648,8.727-7.526,13.044-11.387c9.017-8.154,18.028-16.352,27.107-24.491
			c-0.719,0.251-1.447,0.479-2.188,0.678c-0.7,0.188-1.438,0.354-2.198,0.498l-1.049,0.173l-1.045,0.146
			c-5.576,0.724-11.266,0.675-16.83-0.192c-22.34-3.381-42.063-19.935-48.886-41.59c-1.687-5.393-2.536-11.071-2.408-16.746
			c0.12-5.673,1.23-11.326,3.236-16.622c2.006-5.299,4.881-10.231,8.352-14.639c3.493-4.396,7.438-8.351,11.948-11.754
			c4.504-3.374,9.634-6.111,15.243-7.522c5.587-1.423,11.637-1.394,17.207,0.324c5.581,1.683,10.592,4.954,14.529,9.13
			c3.947,4.182,6.874,9.251,8.634,14.676c1.764,5.426,2.362,11.217,1.77,16.877c-0.517,5.057-2.008,10.015-4.229,14.532
			c8.092-7.262,16.781-20.832,11.094-43.867c-4.384-17.752-18.678-31.584-37.305-36.099c-22.838-5.536-47.421,3.691-65.747,24.685
			c-17.307,19.826-25.27,48.172-22.421,79.817c2.384,26.489,12.358,51.947,25.459,65.078c9.223,5.417,19.799,9.775,30.425,10.306
			c0.838-0.557,1.677-1.111,2.506-1.68C1164.025,255.343,1168.621,251.899,1173.043,248.256z"/>
		<path fill="#FFFFFF" d="M1291.285,190.968c-7.266,3.682-14.302,7.839-21.084,12.388c-6.766,4.571-13.387,9.381-19.747,14.534
			c-3.188,2.566-6.311,5.216-9.401,7.904c-3.099,2.68-6.146,5.421-9.145,8.218c-6.011,5.581-11.756,11.445-17.419,17.392
			c-2.959,3.05-5.909,6.104-8.899,9.143c42.295-29.695,87.372-64.045,127.016-83.349c-6.367,1.006-12.646,2.496-18.794,4.442
			C1306.062,184.089,1298.543,187.272,1291.285,190.968z"/>
		<path fill="#FFFFFF" d="M1085.116,216.969c-4.435-3.299-9.579-5.734-14.901-7.64c-2.667-0.951-5.393-1.769-8.151-2.477
			c-2.774-0.724-5.479-1.262-8.283-1.611c-5.565-0.693-11.225-0.605-16.714,0.393c-5.484,0.989-10.805,2.881-15.564,5.697
			c-4.752,2.811-8.945,6.564-11.984,11.089c-3.052,4.506-4.875,9.789-5.095,15.182c-0.242,5.396,1.109,10.822,3.575,15.727
			c2.456,4.925,5.957,9.354,9.969,13.27c2.006,1.964,4.153,3.797,6.387,5.528c1.125,0.87,2.248,1.688,3.432,2.516
			c1.133,0.794,2.336,1.573,3.529,2.314c9.592,5.969,20.489,9.711,31.713,11.11c11.233,1.425,22.722,0.631,33.879-1.676
			c11.174-2.309,22.053-6.092,32.482-10.836c7.569-3.452,14.91-7.418,21.988-11.811c-22.251-3.382-42.801-20.503-51.93-29.126
			c-0.006,1.116-0.09,2.23-0.265,3.326c-0.489,3.15-1.633,6.137-3.159,8.838c-3.081,5.419-7.566,9.728-12.445,13.219
			c-2.45,1.749-5.027,3.29-7.678,4.667c-0.653,0.336-1.358,0.69-2,0.996c-0.689,0.332-1.409,0.652-2.133,0.933
			c-1.449,0.567-2.943,1.023-4.463,1.351c-6.1,1.344-12.437,0.671-18.198-1.203c-5.788-1.881-11.109-4.905-15.808-8.662
			c-4.683-3.774-8.819-8.29-11.837-13.622c-1.492-2.668-2.693-5.562-3.293-8.677c-0.596-3.095-0.523-6.499,0.723-9.61
			c1.213-3.123,3.581-5.681,6.246-7.407c2.679-1.755,5.63-2.827,8.58-3.566c1.487-0.369,2.95-0.645,4.478-0.862l1.082-0.143
			l1.123-0.129l2.217-0.211c2.961-0.24,5.949-0.315,8.945-0.166c5.965,0.306,12.081,1.549,17.503,4.562
			c2.698,1.495,5.185,3.44,7.22,5.78c2.048,2.33,3.615,5.038,4.75,7.859c1.106,2.841,1.771,5.808,2.024,8.78
			c0.23,2.97,0.158,5.959-0.493,8.831c-0.409-5.82-1.719-11.464-4.193-16.428c-2.443-4.973-6.27-9.071-11.042-11.697
			c-4.779-2.644-10.354-3.801-15.949-4.068c-2.808-0.132-5.638-0.055-8.465,0.184l-2.119,0.207l-1.04,0.122l-1.078,0.146
			c-1.347,0.196-2.742,0.462-4.072,0.797c-2.67,0.674-5.249,1.646-7.434,3.09c-2.186,1.434-3.925,3.372-4.821,5.69
			c-0.919,2.311-1.007,4.949-0.502,7.537c0.505,2.595,1.552,5.142,2.899,7.531c2.722,4.787,6.573,8.997,10.935,12.485
			c4.375,3.481,9.333,6.268,14.608,7.963c5.259,1.693,10.889,2.24,16.171,1.059c1.319-0.287,2.61-0.688,3.864-1.181
			c0.63-0.247,1.237-0.519,1.854-0.818c0.669-0.321,1.26-0.622,1.897-0.952c2.499-1.307,4.915-2.762,7.189-4.396
			c4.533-3.255,8.59-7.235,11.251-11.961c1.322-2.354,2.271-4.888,2.666-7.485c0.382-2.459,0.235-4.962-0.407-7.351
			c-0.124-0.131-0.221-0.235-0.268-0.286l0.161-0.148C1093.2,224.507,1089.513,220.234,1085.116,216.969z"/>
	</g>
</g>
<g id="Layer_6_copy">
	<g>
		<path fill="#FFFFFF" d="M1971.812,508.734c4.981,2.834,10.117,5.391,15.38,7.655c2.643,1.116,5.284,2.25,7.939,3.07
			c2.678,0.831,5.43,1.425,8.215,1.793c11.181,1.471,22.683-0.685,33.168-4.962c10.519-4.3,20.168-10.709,28.447-18.516
			c8.274-7.814,15.209-17.086,20.074-27.353c4.871-10.248,7.59-21.539,7.46-32.861c-0.085-11.323-3.066-22.543-8.242-32.635
			c-5.159-10.124-12.374-19.147-20.604-27.052c-16.611-15.768-36.391-28.257-57.887-36.202
			c-21.496-8.015-44.528-11.532-67.478-11.51c-22.985,0.008-45.912,3.413-68.233,8.999c-22.339,5.575-44.152,13.324-65.246,22.563
			c-10.398,4.686-20.168,10.844-29.588,17.428c-9.415,6.616-18.475,13.763-27.314,21.172c-17.666,14.848-34.47,30.735-50.792,47.087
			c-9.51,9.561-18.869,19.284-28.05,29.169c18.012-10.298,42.519-22.56,70.412-31.836c24.953-12.236,74.767-32.257,127.952-28.747
			c68.093,4.494,90.438,23.107,94.751,27.425c1.744-1.271,3.59-2.395,5.502-3.359c4.119-2.072,8.521-3.464,12.986-4.33
			c8.947-1.722,18.118-1.478,26.969,0.14c8.843,1.646,17.517,4.539,25.299,9.304c3.853,2.41,7.531,5.313,10.315,9.175
			c1.378,1.925,2.494,4.131,3.049,6.545c0.57,2.4,0.468,5.022-0.239,7.352c-0.65,2.259-1.635,4.466-3.012,6.436
			c-1.361,1.979-3.149,3.659-5.13,4.975c-3.996,2.654-8.669,3.718-13.176,4.052c-4.54,0.296-9.038-0.123-13.413-0.959
			c-4.373-0.85-8.664-2.059-12.75-3.756c4.298,1.013,8.635,1.744,12.978,2.176c4.339,0.409,8.7,0.521,12.94-0.012
			c4.221-0.513,8.359-1.726,11.701-4.036c3.344-2.308,5.653-5.801,6.727-9.767c0.551-1.895,0.6-3.822,0.145-5.71
			c-0.45-1.883-1.361-3.688-2.559-5.327c-2.408-3.294-5.787-5.964-9.402-8.173c-7.307-4.395-15.66-7.122-24.123-8.616
			c-8.479-1.438-17.22-1.685-25.605-0.1c-4.182,0.8-8.261,2.086-12.023,3.967c-3.754,1.884-7.185,4.375-9.963,7.47
			c-0.698,0.771-1.35,1.576-1.972,2.415c-0.648,0.879-1.243,1.73-1.836,2.63c-1.169,1.783-2.237,3.624-3.183,5.521
			c-1.887,3.793-3.231,7.842-3.814,12.003c-0.588,4.156-0.401,8.414,0.576,12.502c0.489,2.042,1.155,4.046,2.004,5.972
			c0.838,1.897,1.902,3.832,3.067,5.381l-0.024,0.021C1959.895,501.417,1965.723,505.292,1971.812,508.734z"/>
		<path fill="#FFFFFF" d="M1678.764,432.922c-6.477,21.743-24.406,47.053-32.357,57.603c3.602-2.395,8.203-5.353,13.67-8.66
			c11.334-12.479,22.946-24.688,34.813-36.664c16.34-16.432,33.17-32.406,50.91-47.377c8.88-7.472,17.991-14.689,27.5-21.399
			c9.519-6.677,19.404-12.95,30.114-17.804c21.274-9.363,43.212-17.214,65.782-22.883c22.555-5.617,45.761-9.045,69.091-9.028
			c2.547,0,5.095,0.052,7.644,0.14c-24.724-19.463-56.822-30.104-92.604-30.104c-52.549,0-95.913,34.52-126.281,61.895
			C1713.918,373.568,1686.527,406.86,1678.764,432.922z"/>
		<path fill="#FFFFFF" d="M1650.643,343.714c-14.82-8.344-57.244-24.464-99.268-13.156c-11.328,3.047-21.703,7.816-31.12,14.265
			c3.748-2.112,7.604-4.026,11.537-5.753c7.475-3.264,15.305-5.823,23.386-7.307c8.072-1.482,16.402-1.873,24.604-0.841
			c8.197,1.021,16.224,3.457,23.613,7.142c7.399,3.676,14.152,8.563,20.092,14.243c3.875,3.717,7.408,7.753,10.611,12.032
			c8.182-5.448,16.332-9.655,23.129-12.729C1655.163,348.867,1652.963,346.234,1650.643,343.714z"/>
		<path fill="#FFFFFF" d="M2065.936,375.496c8.43,8.114,15.872,17.423,21.225,27.951c5.368,10.49,8.484,22.236,8.559,34.084
			c0.009,0.886-0.004,1.771-0.028,2.654c18.517-10.564,19.202-31.045,17.202-44.667c-8.846-27.887-34.942-48.024-66.566-48.024
			c-5.506,0-10.855,0.636-15.998,1.801C2043.238,356.475,2055.229,365.31,2065.936,375.496z"/>
		<path fill="#FFFFFF" d="M2116.248,412.636c-1.367,11.689-6.65,23.829-20.738,31.058c-0.734,9.743-3.409,19.312-7.596,28.094
			c-5.064,10.652-12.245,20.22-20.794,28.277c-8.558,8.049-18.517,14.654-29.436,19.105c-10.882,4.422-22.897,6.692-34.743,5.126
			c-2.949-0.393-5.871-1.026-8.719-1.914c-1.418-0.439-2.844-0.961-4.193-1.51c-1.347-0.537-2.712-1.103-4.046-1.681
			c-5.363-2.315-10.599-4.929-15.671-7.822c-10.168-5.764-19.597-12.687-28.719-19.827c-9.136-7.127-18.091-14.412-27.788-20.531
			c-9.663-6.148-20.114-11.003-31.112-14.152c-10.989-3.182-22.415-4.78-33.879-5.347c-11.426-0.592-22.986,0.17-33.887,3.424
			c-5.432,1.626-10.67,3.902-15.414,6.943c-4.735,3.038-8.967,6.869-12.227,11.414c-3.266,4.528-5.535,9.776-6.42,15.268
			c-0.9,5.48-0.404,11.19,1.55,16.373c1.937,5.186,5.344,9.799,9.745,13.161c2.192,1.689,4.622,3.075,7.189,4.142
			c2.596,1.05,5.329,1.942,8.063,2.711c5.48,1.526,11.119,2.49,16.788,2.742c5.661,0.248,11.366-0.197,16.821-1.594
			c5.422-1.398,10.695-3.75,14.723-7.488c1.999-1.859,3.639-4.081,4.625-6.559c0.996-2.474,1.288-5.188,0.885-7.835
			c-0.184-1.314-0.553-2.645-1.002-3.954c-0.449-1.301-1.011-2.55-1.683-3.711c-1.313-2.325-3.3-4.266-5.749-4.909
			c-1.215-0.319-2.521-0.261-3.711,0.165c-1.188,0.42-2.252,1.256-2.83,2.379c-0.611,1.111-0.617,2.511-0.076,3.766
			c0.535,1.262,1.515,2.364,2.621,3.295c-1.26-0.709-2.461-1.645-3.261-2.967c-0.817-1.296-1.058-3.068-0.452-4.609
			c0.596-1.539,1.864-2.743,3.334-3.437c1.479-0.706,3.189-0.878,4.801-0.586c1.619,0.287,3.124,1.047,4.358,2.063
			c1.245,1.011,2.259,2.24,3.091,3.548c0.832,1.312,1.459,2.717,1.984,4.138c0.512,1.416,0.95,2.879,1.193,4.428
			c0.475,3.07,0.135,6.31-1.033,9.209c-0.334,0.841-0.736,1.646-1.184,2.423c2.23,1.953,15.676,13.457,34.52,23.864
			c0.051-0.015,0.102-0.026,0.152-0.041c17.888,9.05,38.521,14.218,60.496,14.218c19.17,0,37.312-3.945,53.508-10.956
			c14.053,9.778,34.354,17.437,61.992,13.456c62.5-9,43.5-44.25,43.5-44.25C2140.679,466.047,2123.639,426.48,2116.248,412.636z"/>
		<path fill="#FFFFFF" d="M1471.778,413.183c0,0.104-0.004,0.207-0.004,0.312c0,1.472,0.038,2.934,0.1,4.39
			c0.202-1.993,0.459-3.981,0.773-5.962c0.108-0.687,0.235-1.37,0.357-2.055C1472.59,410.962,1472.181,412.066,1471.778,413.183z"/>
		<path fill="#FFFFFF" d="M1675.889,432.066c7.375-24.758,31.221-54.972,45.358-71.39c-12.294-9.324-23.749-12.183-40.921-12.183
			c-2.867,0-5.696,0.165-8.48,0.476c-6.285,2.179-21.07,7.884-35.985,17.798c5.782,8.213,10.377,17.253,13.759,26.685
			c2.742,7.712,4.678,15.729,5.549,23.91c0.428,4.094,0.596,8.214,0.381,12.365c-0.222,4.143-0.821,8.251-1.742,12.274
			c-1.844,8.052-4.92,15.771-8.916,22.953c-4.004,7.18-8.938,13.847-14.726,19.716c-5.788,5.855-12.458,10.939-19.96,14.575
			c-7.469,3.639-15.873,5.733-24.323,5.326c-8.45-0.346-16.686-3.286-23.653-7.863c-3.504-2.274-6.719-4.938-9.675-7.832
			c-2.927-2.877-5.687-5.948-8.206-9.2c-5.049-6.497-9.189-13.781-11.855-21.648c-2.659-7.85-3.807-16.312-2.827-24.64
			c0.944-8.313,4.09-16.434,9.214-23.107c5.09-6.704,12.063-11.852,19.724-15.107c7.678-3.278,15.981-4.757,24.205-4.935
			c4.124-0.088,8.219,0.136,12.314,0.626c4.04,0.488,8.116,1.21,12.104,2.323c3.984,1.118,7.931,2.618,11.566,4.86
			c3.609,2.216,6.976,5.31,8.901,9.413c0.954,2.037,1.505,4.28,1.595,6.53c0.091,2.251-0.262,4.486-0.935,6.58
			c-1.365,4.199-3.912,7.814-6.942,10.786c-6.115,5.936-14.223,9.501-22.588,10.418c-4.188,0.459-8.445,0.233-12.561-0.636
			c-2.057-0.441-4.079-1.03-6.041-1.774c-1.953-0.731-3.939-1.662-5.75-2.9c-1.811-1.239-3.511-2.835-4.689-4.88
			c-1.191-2.029-1.729-4.483-1.547-6.798c0.164-2.325,0.924-4.492,1.947-6.428c1.037-1.937,2.344-3.67,3.818-5.208
			c2.963-3.065,6.525-5.439,10.398-7.023c3.86-1.522,8.178-2.317,12.176-1.385c-4.054,0.255-7.778,1.643-11.148,3.543
			c-3.373,1.889-6.438,4.317-8.934,7.157c-2.466,2.81-4.49,6.16-4.731,9.585c-0.122,1.694,0.25,3.338,1.093,4.782
			c0.836,1.449,2.125,2.692,3.625,3.713c1.516,1.027,3.193,1.823,5.001,2.496c1.798,0.678,3.647,1.211,5.521,1.609
			c3.753,0.783,7.622,0.979,11.427,0.554c7.594-0.839,14.986-4.141,20.414-9.444c2.691-2.645,4.877-5.821,5.992-9.294
			c1.131-3.461,1.027-7.199-0.512-10.403c-1.514-3.222-4.287-5.846-7.5-7.804c-3.219-1.979-6.863-3.374-10.611-4.413
			c-3.76-1.04-7.623-1.72-11.563-2.188c-3.887-0.456-7.839-0.664-11.753-0.57c-7.828,0.186-15.639,1.612-22.764,4.675
			c-7.113,3.044-13.485,7.79-18.123,13.924c-4.665,6.107-7.526,13.522-8.382,21.18c-0.885,7.669,0.184,15.529,2.692,22.884
			c2.516,7.369,6.438,14.255,11.262,20.432c2.411,3.098,5.043,6.016,7.854,8.767c2.793,2.723,5.806,5.204,9.054,7.3
			c6.465,4.22,13.925,6.845,21.578,7.145c7.652,0.343,15.336-1.548,22.304-4.922c6.987-3.375,13.307-8.161,18.814-13.724
			c5.511-5.573,10.239-11.941,14.071-18.798c3.826-6.857,6.767-14.224,8.52-21.849c0.879-3.811,1.446-7.687,1.659-11.572
			c0.206-3.878,0.053-7.815-0.351-11.717c-0.822-7.813-2.674-15.537-5.309-22.973c-5.298-14.845-13.726-28.704-25.072-39.605
			c-5.67-5.435-12.088-10.085-19.091-13.574c-6.997-3.498-14.57-5.806-22.329-6.782c-7.76-0.994-15.68-0.686-23.421,0.7
			c-7.747,1.381-15.317,3.807-22.587,6.938c-7.27,3.148-14.273,6.928-20.738,11.471c-6.464,4.536-12.389,9.835-17.469,15.859
			c-5.085,6.018-9.301,12.759-12.515,19.959c-3.21,7.203-5.427,14.85-6.705,22.656c-1.281,7.81-1.652,15.774-1.243,23.698
			c0.034,0.647,0.082,1.293,0.125,1.939c11.025,45.043,51.653,78.469,100.094,78.469c25.345,0,48.548-9.154,66.496-24.331
			C1646.508,485.546,1668.736,456.077,1675.889,432.066z"/>
		<path fill="#FFFFFF" d="M1824.083,530.393c-5.896-0.256-11.735-1.249-17.399-2.82c-2.836-0.796-5.613-1.695-8.383-2.812
			c-2.774-1.149-5.418-2.65-7.811-4.49c-4.803-3.659-8.542-8.708-10.658-14.363c-2.14-5.653-2.679-11.858-1.712-17.792
			c0.952-5.945,3.399-11.602,6.891-16.456c3.487-4.87,7.987-8.943,12.978-12.153c5-3.212,10.479-5.594,16.122-7.29
			c11.318-3.391,23.203-4.167,34.845-3.579c11.635,0.563,23.287,2.174,34.547,5.42c11.266,3.209,22.02,8.193,31.881,14.455
			c9.898,6.233,18.941,13.582,28.051,20.669c1.551,1.211,3.109,2.408,4.674,3.598c-0.884-1.953-1.608-3.979-2.129-6.062
			c-1.133-4.469-1.402-9.163-0.815-13.739c0.579-4.58,1.994-9.02,3.975-13.137c0.985-2.064,2.122-4.047,3.368-5.947
			c0.615-0.942,1.281-1.898,1.939-2.794c0.686-0.933,1.42-1.843,2.197-2.708c0.98-1.098,2.04-2.118,3.15-3.077
			c-4.461-4.184-27.1-22.002-92.565-26.323c-40.714-2.688-79.435,8.596-106.268,19.437c55.743-14.174,120.877-13.145,174.2,36.9
			c0,0-67.334-56.084-125.334-30.084s-39.416,71.333-9.166,82.083c15.324,5.446,29.658,4.749,40.6,1.473
			C1835.631,530.193,1829.825,530.637,1824.083,530.393z"/>
		<path fill="#FFFFFF" d="M1480.713,385.739c3.067-6.376,6.91-12.385,11.428-17.839c15.385-20.428,34.918-33.909,58.455-40.24
			c37.131-9.989,73.694,0.508,93.205,9.274c-18.264-16.467-42.447-26.492-68.975-26.492c-53.568,0-97.586,40.876-102.575,93.138
			C1474.844,397.261,1477.67,391.321,1480.713,385.739z"/>
	</g>
</g>
</svg>
