<?xml version="1.0" encoding="utf-8"?>
<!-- Generator: Adobe Illustrator 15.1.0, SVG Export Plug-In . SVG Version: 6.00 Build 0)  -->
<!DOCTYPE svg PUBLIC "-//W3C//DTD SVG 1.1//EN" "http://www.w3.org/Graphics/SVG/1.1/DTD/svg11.dtd">
<svg version="1.1" id="Layer_1_copy" xmlns="http://www.w3.org/2000/svg" xmlns:xlink="http://www.w3.org/1999/xlink" x="0px"
	 y="0px" width="395.334px" height="395.333px" viewBox="73.847 40.521 395.334 395.333"
	 enable-background="new 73.847 40.521 395.334 395.333" xml:space="preserve">
<path fill="#F8F8F8" stroke="#F0F0F0" stroke-width="6" stroke-miterlimit="10" d="M271.515,43.521
	c-107.513,0-194.668,87.154-194.668,194.666s87.155,194.667,194.668,194.667c107.51,0,194.666-87.154,194.666-194.667
	S379.024,43.521,271.515,43.521z M271.515,386.483c-81.902,0-148.297-66.395-148.297-148.296S189.612,89.893,271.515,89.893
	c81.899,0,148.295,66.394,148.295,148.295S353.414,386.483,271.515,386.483z"/>
<path id="outer_feathers_1_" fill="#F8F8F8" stroke="#F0F0F0" stroke-width="6" stroke-miterlimit="10" d="M165.93,311.524
	c0,0,44.928,13.965,79.223,4.154c34.302-9.811,3.169-30.751,3.169-30.751c3.699-2.333,32.497-2.306,39.212-2.504
	c6.716-0.202,61.196,9.921,56.662-12.148c-4.537-22.069-56.586-28.232-56.586-28.232s32.552-15.337,54.427-21.823
	c21.877-6.484,66.806-21.224,46.121-38.058c-20.693-16.836-112.145,16.309-112.145,16.309c3.875-8.477,21.872-18.922,21.872-18.922
	c59.27-34.439,35.961-52.408-6.059-35.785c-42.016,16.623-70.57,64.366-86.848,90.476c-16.282,26.111-38.067,41.962-38.067,41.962
	C157.371,283.27,152.236,305.902,165.93,311.524z"/>
<path id="inner_feathers_1_" fill="none" stroke="#F0F0F0" stroke-width="6" stroke-miterlimit="10" d="M222.008,207.779
	c0,0,18.087-21.129,31.223-14.612c13.14,6.517-10.119,40.591-20.437,49.593c0,0,10.506-4.153,22.334-2.762
	c11.837,1.394,24.575,25.563-43.062,48.709c0,0,23.599,15.865-14.438,29.032"/>
<g>
	<g>
		<path display="none" fill="#F8F8F8" stroke="#456BAF" stroke-width="6" stroke-miterlimit="10" d="M271.521,43.521
			c-107.513,0-194.668,87.154-194.668,194.666s87.155,194.667,194.668,194.667c107.51,0,194.666-87.154,194.666-194.667
			S379.03,43.521,271.521,43.521z M271.521,386.483c-81.901,0-148.297-66.395-148.297-148.296S189.618,89.893,271.521,89.893
			c81.9,0,148.295,66.394,148.295,148.295S353.421,386.483,271.521,386.483z"/>
	</g>
</g>
</svg>
