<?xml version="1.0" encoding="utf-8"?>
<!-- Generator: Adobe Illustrator 15.1.0, SVG Export Plug-In . SVG Version: 6.00 Build 0)  -->
<!DOCTYPE svg PUBLIC "-//W3C//DTD SVG 1.1//EN" "http://www.w3.org/Graphics/SVG/1.1/DTD/svg11.dtd">
<svg version="1.1" id="Layer_1" xmlns:sketch="http://www.bohemiancoding.com/sketch/ns"
	 xmlns="http://www.w3.org/2000/svg" xmlns:xlink="http://www.w3.org/1999/xlink" x="0px" y="0px" width="1020px" height="1020px"
	 viewBox="0 0 1020 1020" enable-background="new 0 0 1020 1020" xml:space="preserve">
<title>Cloudsdale Black 2</title>
<description>Created with Sketch (http://www.bohemiancoding.com/sketch)</description>
<g id="Page_1">
	<path id="Background" fill="#404B52" stroke="#404C53" stroke-width="10" d="M510,1010c276.143,0,500-223.857,500-500
		S786.143,10,510,10S10,233.857,10,510S233.857,1010,510,1010z"/>
	
		<g id="Rainbow" transform="translate(459.794955, 557.757412) rotate(-344.000000) translate(-459.794955, -557.757412) translate(-86.494047, 2.092176)">
		<g id="layer1" transform="translate(0.986972, 0.986972)">
			<path id="Shape" fill="#B390CC" stroke="#404C53" stroke-width="15" d="M143.196,261.483
				c88.145,11.047,159.176,53.24,215.925,118.783c111.377,130.216,181.846,306.519,283.644,466.439
				c50.851,73.07,133.33,80.321,171.543,81.04c-70.059,38.178-150.396,59.874-235.799,59.873
				c-6.001,0.001-11.977-0.107-17.927-0.319C443.56,846.814,399.314,643.381,298.339,481.666
				c-46.291-74.137-105.58-128.321-185.04-152.581C121.6,305.689,131.616,283.105,143.196,261.483z"/>
			<path id="path3849" fill="#6EA0D6" stroke="#404C53" stroke-width="15" d="M173.247,212.47
				c71.112,8.241,133.354,38.875,187.783,87.119c127.523,114.415,220.525,279.874,342.446,424.983
				c66.536,72.882,244.228,57.404,274.669,53.373l-3.309,10.268c-52.682,70.882-123.931,127.147-206.552,161.596
				c-46.278-14.856-88.34-40.046-126.551-73.915C506.411,752.111,435.79,555.53,314.057,408.057
				c-51.435-62.312-108.145-109.321-180.647-127.296C144.885,256.868,158.227,234.041,173.247,212.47z"/>
			<path id="path3851" fill="#7CDD8C" stroke="#404C53" stroke-width="15" d="M218.837,156.248
				c46.19,5.348,86.981,24.96,135.398,57.666c141.408,96.768,255.215,248.601,395.061,376.509
				c68.698,57.831,250.158,45.195,304.639,36.457c-18.344,65.836-49.996,126.127-91.874,177.788
				c-93.978,16.949-178.469-5.05-254.316-56.285c-150.364-105.034-246.02-290.615-385.988-420.89
				c-49.006-45.614-102.883-78.82-162.846-93.234C176.287,206.266,196.386,180.138,218.837,156.248z"/>
			<path id="path3853" fill="#E6FB69" stroke="#404C53" stroke-width="15" d="M265.854,112.309
				c26.62,6.585,52.789,16.439,78.492,29.26c152.881,77.415,285.646,213.079,441.076,321.588
				c75.004,47.901,234.192,14.831,285.569-0.779c0.667,10.499,1.005,21.087,1.005,31.754c0,50.717-7.651,99.647-21.861,145.698
				c-96.669,34.304-199.801,28.038-285.124-14.523c-162.845-84.44-282.059-255.964-437.918-366.805
				c-44.666-31.765-89.851-56.102-137.613-68.024C211.982,161.69,237.61,135.464,265.854,112.309z"/>
			<path id="path3855" fill="#F7BE6A" stroke="#404C53" stroke-width="15" d="M326.123,69.981
				c157.589,57.981,304.074,171.832,468.634,257.089c73.098,34.136,185.534-1.929,238.621-24.636
				c22.011,52.164,35.311,108.902,38.077,168.393c-91.335,48.469-183.899,51.203-275.648,19.653
				c-172.434-62.332-311.308-222.236-480.285-311.656c-28.198-14.922-56.434-26.709-84.853-34.742
				C259.257,115.674,291.304,90.744,326.123,69.981z"/>
			<path id="path3857" fill="#E46666" stroke="#404C53" stroke-width="15" d="M334.106,65.322
				c157.989,47.456,316.048,121.49,470.608,133.403c53.325,3.272,104.118-3.534,151.543-22.155
				c34.832,41.39,62.985,88.585,82.801,139.927c-73.107,39.149-150.949,47.178-231.43,30.83
				C628.48,308.007,468.872,173.37,289.629,106.766c-3.855-1.432-7.701-2.823-11.538-4.171
				C295.847,88.951,314.558,76.488,334.106,65.322z"/>
		</g>
	</g>
	
		<g id="Wing" transform="translate(509.500000, 449.500000) rotate(-11.000000) translate(-509.500000, -449.500000) translate(100.000000, 140.000000)">
		<path id="Large_Wing_FL" fill="#FFFFFF" d="M251.315,225.644C344.936,78.783,541.011-36.18,607.613,26.365
			c24.86,23.288-32.934,83.305-95.145,114.158c-43.437,21.542-80.682,43.278-86.057,68.797
			c135.645-33.527,334.425-111.258,381.108-33.903c24.168,66.193-95.542,72.036-341.361,180.033
			c139.589,28.434,180.539,68.623,184.142,105.321c-6.279,44.343-81.216,40.767-190.571,31.476
			c-44.481-3.779-87.885-2.387-128.01,6.995c39.202,24.857,130.177,140.782-226.795,103.147
			C2.503,581.04-15.408,531.929,38.873,490.475C141.38,410.095,187.764,324.4,251.315,225.644z"/>
		<path id="Small_Wing_FL" fill="#FFFFFF" d="M39.201,489.023c83.791-65.38,129.476-130.125,184.341-219.06
			c29.757-39.783,86.968-100.357,119.036-76.877c59.094,50.435-59.222,154.723-68.611,169.46
			c67.298-21.995,97.868-12.514,107.656,7.314c23.342,47.284-106.317,136.338-175.854,141.481
			c58.665,28.946,15.501,86.21-48.358,95.89C41.113,600.435-38.049,552.327,39.201,489.023L39.201,489.023z"/>
		<path id="Large_Wing_OL" fill="#404C53" d="M558.191,0.754c-7.207-0.084-14.678,0.514-22.351,1.637
			c-30.687,4.493-65.144,17.952-100.296,37.95c-70.294,39.99-143.448,106.068-191.132,180.851c-0.008,0.011,0.008,0.039,0,0.051
			c-63.71,99.008-109.341,183.381-210.515,262.735c-0.019,0.015-0.032,0.036-0.051,0.051
			c-14.331,10.955-24.453,22.706-29.562,35.342c-5.117,12.655-4.692,26.321,1.585,38.36c12.554,24.077,45.037,41.768,97.381,52.68
			l0.409,0.051l0.409,0.052c89.642,9.45,151.408,9.349,193.586,3.222c42.179-6.127,65.658-18.171,76.207-35.188
			c10.55-17.016,5.439-36.531-3.887-51.708c-5.381-8.758-12.181-16.369-19.077-22.759c34.209-5.939,70.611-6.87,108.122-3.682
			c54.746,4.651,100.993,7.971,135.485,4.347c17.246-1.812,31.702-5.28,42.963-12.019c11.259-6.738,19.029-17.451,20.918-30.789
			l0.153-0.972l-0.103-0.972c-2.068-21.06-15.236-42.753-44.752-61.835c-25.776-16.663-65.197-31.85-121.369-45.008
			c110.827-47.369,194.303-73.817,248.823-95.796c29.134-11.745,50.254-22.058,63.575-35.24
			c13.32-13.181,17.287-30.88,10.485-49.509l-0.256-0.716l-0.41-0.716c-13.311-22.057-37.541-32.728-66.284-35.955
			c-28.745-3.227-62.818,0.461-99.479,7.518c-67.285,12.953-142.763,37.152-206.832,53.958c4.36-5.441,10.372-11.033,18.054-16.673
			c14.673-10.774,34.535-21.473,56.107-32.171c32.094-15.917,62.698-38.994,82.754-61.835c10.027-11.42,17.519-22.724,20.97-33.909
			c3.45-11.186,2.051-23.608-6.598-31.71C598.957,6.997,579.815,1.007,558.191,0.754L558.191,0.754z M598.547,29.559
			c3.78,3.542,7.963,10.157,5.625,17.738c-2.339,7.581-8.556,17.574-17.646,27.926c-18.179,20.703-47.573,43.012-77.69,57.948
			c-21.866,10.845-42.358,21.794-58.51,33.654c-16.152,11.859-28.538,24.783-31.915,40.814l-2.71,12.735l12.684-3.12
			c68.348-16.893,151.856-44.615,223.506-58.409c35.826-6.896,68.673-10.272,94.568-7.365c25.532,2.866,43.487,11.351,53.601,27.516
			c4.9,13.932,2.959,21.744-6.853,31.455c-10.009,9.905-29.704,20.22-58.204,31.71c-57.001,22.979-148.839,51.647-272.146,105.821
			l-23.578,10.331l25.266,5.166c69.209,14.097,113.486,31.087,140.242,48.384c26.119,16.885,35.328,33.271,37.183,48.588
			c-1.385,8.314-5.237,13.598-12.94,18.208c-7.975,4.772-20.268,8.145-36.212,9.82c-31.885,3.351-77.807,0.24-132.416-4.399
			c-45.096-3.831-89.3-2.428-130.524,7.212l-19.026,4.399l16.469,10.484c8.58,5.44,21.141,16.881,28.744,29.255
			c7.603,12.374,10.315,24.156,3.887,34.523c-6.428,10.367-24.712,21.817-64.648,27.618c-39.895,5.795-100.597,6.012-189.29-3.324
			c-49.698-10.454-77.215-27.922-85.618-44.037c-4.218-8.089-4.511-15.822-0.921-24.703c3.591-8.88,11.567-18.781,24.345-28.539
			c103.888-81.435,150.987-168.411,214.352-266.878c45.99-72.115,117.666-136.916,185.454-175.481
			c33.894-19.282,66.834-31.997,94.568-36.058c6.933-1.015,13.473-1.485,19.64-1.432C576.335,17.28,587.838,19.504,598.547,29.559z"
			/>
		<path id="Small_Wing_OL" fill="#404C53" d="M321.439,179.969c-3.041,0.307-6.123,0.925-9.104,1.79
			c-11.926,3.459-23.679,10.613-35.188,19.589c-23.018,17.951-44.955,43.417-60.148,63.727l-0.204,0.256l-0.205,0.358
			c-54.73,88.718-99.574,152.202-182.437,216.858l-0.051,0.102L34,482.7C13.764,499.283,2.594,515.681,0.602,532.26
			c-1.993,16.58,6.152,31.782,19.845,43.321c27.385,23.077,77.345,36.385,136.508,39.842l0.818,0.052l0.869-0.153
			c34.024-5.158,62.656-22.435,75.901-44.6c6.623-11.081,9.23-24.001,5.165-36.16c-2.262-6.769-6.66-12.929-12.684-18.514
			c34.233-8.028,73.989-28.606,106.434-53.089c19.604-14.794,36.391-30.96,47.156-47.259c10.766-16.299,15.955-34.026,8.336-49.458
			c-6.161-12.482-19.452-21.506-38.615-23.834c-13.659-1.659-30.675-0.237-51.657,4.706c1.557-1.688,2.674-2.813,4.347-4.655
			c11.603-12.763,25.656-29.014,37.694-46.644c12.039-17.63,22.206-36.585,25.471-55.647c3.265-19.062-1.452-38.906-18.31-53.294
			l-0.204-0.205l-0.257-0.205C339.691,180.805,330.56,179.048,321.439,179.969L321.439,179.969z M328.445,196.029
			c3.298,0.34,6.263,1.544,9.053,3.529c12.431,10.764,15.103,22.83,12.531,37.848c-2.593,15.138-11.484,32.615-22.811,49.202
			c-11.327,16.588-24.938,32.343-36.314,44.855c-5.687,6.255-10.814,11.694-14.883,16.111c-4.07,4.416-6.86,7.305-8.951,10.587
			l-12.275,19.282l21.737-7.109c32.971-10.776,56.466-13.583,71.86-11.713c15.393,1.871,22.253,7.538,25.88,14.883
			c4.053,8.21,1.84,19.335-7.315,33.194c-9.153,13.859-24.786,29.143-43.371,43.167c-37.169,28.048-86.725,50.951-118.402,53.294
			l-29.971,2.25l26.954,13.247c13.349,6.586,19.645,14.1,21.993,21.123c2.347,7.022,1.186,14.494-3.631,22.555
			c-9.547,15.974-34.058,31.977-63.524,36.671c-56.741-3.433-104.179-17.548-126.023-35.955
			c-10.979-9.251-15.373-18.388-14.116-28.846c1.252-10.422,9.105-23.709,27.363-38.717c0.062-0.051,0.092-0.104,0.153-0.153
			c84.537-66.003,131.066-131.869,185.966-220.847c0.046-0.075,0.108-0.13,0.153-0.205c14.558-19.39,35.865-43.779,56.721-60.045
			c10.522-8.206,20.966-14.238,29.716-16.776C321.313,196.192,325.048,195.678,328.445,196.029L328.445,196.029z"/>
	</g>
</g>
</svg>
