<?xml version="1.0" encoding="UTF-8" standalone="no"?>
<!-- Generator: Adobe Illustrator 15.1.0, SVG Export Plug-In . SVG Version: 6.00 Build 0)  -->

<svg
   xmlns:dc="http://purl.org/dc/elements/1.1/"
   xmlns:cc="http://creativecommons.org/ns#"
   xmlns:rdf="http://www.w3.org/1999/02/22-rdf-syntax-ns#"
   xmlns:svg="http://www.w3.org/2000/svg"
   xmlns="http://www.w3.org/2000/svg"
   xmlns:sodipodi="http://sodipodi.sourceforge.net/DTD/sodipodi-0.dtd"
   xmlns:inkscape="http://www.inkscape.org/namespaces/inkscape"
   version="1.1"
   id="Layer_1"
   x="0px"
   y="0px"
   width="990.69122"
   height="983.95361"
   viewBox="0 0 990.69122 983.95361"
   enable-background="new 0 0 1020 1020"
   xml:space="preserve"
   inkscape:version="0.48.2 r9819"
   sodipodi:docname="icon_color.svg"
   inkscape:export-filename="/Users/johnhopkins/Pictures/Equestria Gaming/cloudsdale_icon_color.png"
   inkscape:export-xdpi="8.4653463"
   inkscape:export-ydpi="8.4653463"><metadata
   id="metadata26"><rdf:RDF><cc:Work
       rdf:about=""><dc:format>image/svg+xml</dc:format><dc:type
         rdf:resource="http://purl.org/dc/dcmitype/StillImage" /><dc:title>Cloudsdale Black 2</dc:title></cc:Work></rdf:RDF></metadata><defs
   id="defs24" /><sodipodi:namedview
   pagecolor="#ffffff"
   bordercolor="#666666"
   borderopacity="1"
   objecttolerance="10"
   gridtolerance="10"
   guidetolerance="10"
   inkscape:pageopacity="0"
   inkscape:pageshadow="2"
   inkscape:window-width="1920"
   inkscape:window-height="944"
   id="namedview22"
   showgrid="false"
   inkscape:snap-object-midpoints="false"
   inkscape:snap-page="true"
   fit-margin-top="0"
   fit-margin-left="0"
   fit-margin-right="0"
   fit-margin-bottom="0"
   inkscape:zoom="0.23137255"
   inkscape:cx="1069.9874"
   inkscape:cy="488.68214"
   inkscape:window-x="0"
   inkscape:window-y="0"
   inkscape:window-maximized="1"
   inkscape:current-layer="Layer_1" />
<title
   id="title3">Cloudsdale Black 2</title>
<description
   id="description5">Created with Sketch (http://www.bohemiancoding.com/sketch)</description>
<rect
   style="fill:#63a0d0;fill-opacity:1;stroke:none"
   id="rect3771"
   width="990.69122"
   height="983.95361"
   x="-5.6843419e-14"
   y="-7.905237e-08"
   ry="76.944458" /><g
   id="Page_1"
   transform="matrix(0.9,0,0,0.9,35.5,30.45361)">
	<path
   id="Background"
   d="m 510,1010 c 276.143,0 500,-223.857 500,-500 C 1010,233.857 786.143,10 510,10 233.857,10 10,233.857 10,510 c 0,276.143 223.857,500 500,500 z"
   inkscape:connector-curvature="0"
   style="fill:#404b52;stroke:#404c53;stroke-width:10" />
	
		<g
   id="Rainbow"
   transform="matrix(0.9612617,0.27563736,-0.27563736,0.9612617,87.830359,-126.95995)">
		<g
   id="layer1"
   transform="translate(0.986972,0.986972)">
			<path
   id="Shape"
   d="m 143.196,261.483 c 88.145,11.047 159.176,53.24 215.925,118.783 111.377,130.216 181.846,306.519 283.644,466.439 50.851,73.07 133.33,80.321 171.543,81.04 -70.059,38.178 -150.396,59.874 -235.799,59.873 -6.001,10e-4 -11.977,-0.107 -17.927,-0.319 C 443.56,846.814 399.314,643.381 298.339,481.666 252.048,407.529 192.759,353.345 113.299,329.085 c 8.301,-23.396 18.317,-45.98 29.897,-67.602 z"
   inkscape:connector-curvature="0"
   style="fill:#b390cc;stroke:#404c53;stroke-width:15" />
			<path
   id="path3849"
   d="m 173.247,212.47 c 71.112,8.241 133.354,38.875 187.783,87.119 127.523,114.415 220.525,279.874 342.446,424.983 66.536,72.882 244.228,57.404 274.669,53.373 l -3.309,10.268 C 922.154,859.095 850.905,915.36 768.284,949.809 722.006,934.953 679.944,909.763 641.733,875.894 506.411,752.111 435.79,555.53 314.057,408.057 262.622,345.745 205.912,298.736 133.41,280.761 c 11.475,-23.893 24.817,-46.72 39.837,-68.291 z"
   inkscape:connector-curvature="0"
   style="fill:#6ea0d6;stroke:#404c53;stroke-width:15" />
			<path
   id="path3851"
   d="m 218.837,156.248 c 46.19,5.348 86.981,24.96 135.398,57.666 141.408,96.768 255.215,248.601 395.061,376.509 68.698,57.831 250.158,45.195 304.639,36.457 -18.344,65.836 -49.996,126.127 -91.874,177.788 -93.978,16.949 -178.469,-5.05 -254.316,-56.285 C 557.381,643.349 461.725,457.768 321.757,327.493 272.751,281.879 218.874,248.673 158.911,234.259 c 17.376,-27.993 37.475,-54.121 59.926,-78.011 z"
   inkscape:connector-curvature="0"
   style="fill:#7cdd8c;stroke:#404c53;stroke-width:15" />
			<path
   id="path3853"
   d="m 265.854,112.309 c 26.62,6.585 52.789,16.439 78.492,29.26 152.881,77.415 285.646,213.079 441.076,321.588 75.004,47.901 234.192,14.831 285.569,-0.779 0.667,10.499 1.005,21.087 1.005,31.754 0,50.717 -7.651,99.647 -21.861,145.698 C 953.466,674.134 850.334,667.868 765.011,625.307 602.166,540.867 482.952,369.343 327.093,258.502 282.427,226.737 237.242,202.4 189.48,190.478 c 22.502,-28.788 48.13,-55.014 76.374,-78.169 z"
   inkscape:connector-curvature="0"
   style="fill:#e6fb69;stroke:#404c53;stroke-width:15" />
			<path
   id="path3855"
   d="m 326.123,69.981 c 157.589,57.981 304.074,171.832 468.634,257.089 73.098,34.136 185.534,-1.929 238.621,-24.636 22.011,52.164 35.311,108.902 38.077,168.393 C 980.12,519.296 887.556,522.03 795.807,490.48 623.373,428.148 484.499,268.244 315.522,178.824 287.324,163.902 259.088,152.115 230.669,144.082 259.257,115.674 291.304,90.744 326.123,69.981 z"
   inkscape:connector-curvature="0"
   style="fill:#f7be6a;stroke:#404c53;stroke-width:15" />
			<path
   id="path3857"
   d="m 334.106,65.322 c 157.989,47.456 316.048,121.49 470.608,133.403 53.325,3.272 104.118,-3.534 151.543,-22.155 34.832,41.39 62.985,88.585 82.801,139.927 -73.107,39.149 -150.949,47.178 -231.43,30.83 C 628.48,308.007 468.872,173.37 289.629,106.766 c -3.855,-1.432 -7.701,-2.823 -11.538,-4.171 17.756,-13.644 36.467,-26.107 56.015,-37.273 z"
   inkscape:connector-curvature="0"
   style="fill:#e46666;stroke:#404c53;stroke-width:15" />
		</g>
	</g>
	
		<g
   id="Wing"
   transform="matrix(0.98162718,-0.190809,0.190809,0.98162718,48.468284,223.82267)">
		<path
   id="Large_Wing_FL"
   d="M 251.315,225.644 C 344.936,78.783 541.011,-36.18 607.613,26.365 c 24.86,23.288 -32.934,83.305 -95.145,114.158 -43.437,21.542 -80.682,43.278 -86.057,68.797 135.645,-33.527 334.425,-111.258 381.108,-33.903 24.168,66.193 -95.542,72.036 -341.361,180.033 139.589,28.434 180.539,68.623 184.142,105.321 -6.279,44.343 -81.216,40.767 -190.571,31.476 -44.481,-3.779 -87.885,-2.387 -128.01,6.995 39.202,24.857 130.177,140.782 -226.795,103.147 C 2.503,581.04 -15.408,531.929 38.873,490.475 141.38,410.095 187.764,324.4 251.315,225.644 z"
   inkscape:connector-curvature="0"
   style="fill:#ffffff" />
		<path
   id="Small_Wing_FL"
   d="m 39.201,489.023 c 83.791,-65.38 129.476,-130.125 184.341,-219.06 29.757,-39.783 86.968,-100.357 119.036,-76.877 59.094,50.435 -59.222,154.723 -68.611,169.46 67.298,-21.995 97.868,-12.514 107.656,7.314 23.342,47.284 -106.317,136.338 -175.854,141.481 58.665,28.946 15.501,86.21 -48.358,95.89 C 41.113,600.435 -38.049,552.327 39.201,489.023 l 0,0 z"
   inkscape:connector-curvature="0"
   style="fill:#ffffff" />
		<path
   id="Large_Wing_OL"
   d="M 558.191,0.754 C 550.984,0.67 543.513,1.268 535.84,2.391 505.153,6.884 470.696,20.343 435.544,40.341 365.25,80.331 292.096,146.409 244.412,221.192 c -0.008,0.011 0.008,0.039 0,0.051 -63.71,99.008 -109.341,183.381 -210.515,262.735 -0.019,0.015 -0.032,0.036 -0.051,0.051 -14.331,10.955 -24.453,22.706 -29.562,35.342 -5.117,12.655 -4.692,26.321 1.585,38.36 12.554,24.077 45.037,41.768 97.381,52.68 l 0.409,0.051 0.409,0.052 c 89.642,9.45 151.408,9.349 193.586,3.222 42.179,-6.127 65.658,-18.171 76.207,-35.188 10.55,-17.016 5.439,-36.531 -3.887,-51.708 -5.381,-8.758 -12.181,-16.369 -19.077,-22.759 34.209,-5.939 70.611,-6.87 108.122,-3.682 54.746,4.651 100.993,7.971 135.485,4.347 17.246,-1.812 31.702,-5.28 42.963,-12.019 11.259,-6.738 19.029,-17.451 20.918,-30.789 l 0.153,-0.972 -0.103,-0.972 c -2.068,-21.06 -15.236,-42.753 -44.752,-61.835 -25.776,-16.663 -65.197,-31.85 -121.369,-45.008 110.827,-47.369 194.303,-73.817 248.823,-95.796 29.134,-11.745 50.254,-22.058 63.575,-35.24 13.32,-13.181 17.287,-30.88 10.485,-49.509 l -0.256,-0.716 -0.41,-0.716 c -13.311,-22.057 -37.541,-32.728 -66.284,-35.955 -28.745,-3.227 -62.818,0.461 -99.479,7.518 -67.285,12.953 -142.763,37.152 -206.832,53.958 4.36,-5.441 10.372,-11.033 18.054,-16.673 14.673,-10.774 34.535,-21.473 56.107,-32.171 32.094,-15.917 62.698,-38.994 82.754,-61.835 10.027,-11.42 17.519,-22.724 20.97,-33.909 3.45,-11.186 2.051,-23.608 -6.598,-31.71 C 598.957,6.997 579.815,1.007 558.191,0.754 l 0,0 z m 40.356,28.805 c 3.78,3.542 7.963,10.157 5.625,17.738 -2.339,7.581 -8.556,17.574 -17.646,27.926 -18.179,20.703 -47.573,43.012 -77.69,57.948 -21.866,10.845 -42.358,21.794 -58.51,33.654 -16.152,11.859 -28.538,24.783 -31.915,40.814 l -2.71,12.735 12.684,-3.12 c 68.348,-16.893 151.856,-44.615 223.506,-58.409 35.826,-6.896 68.673,-10.272 94.568,-7.365 25.532,2.866 43.487,11.351 53.601,27.516 4.9,13.932 2.959,21.744 -6.853,31.455 -10.009,9.905 -29.704,20.22 -58.204,31.71 -57.001,22.979 -148.839,51.647 -272.146,105.821 l -23.578,10.331 25.266,5.166 c 69.209,14.097 113.486,31.087 140.242,48.384 26.119,16.885 35.328,33.271 37.183,48.588 -1.385,8.314 -5.237,13.598 -12.94,18.208 -7.975,4.772 -20.268,8.145 -36.212,9.82 -31.885,3.351 -77.807,0.24 -132.416,-4.399 -45.096,-3.831 -89.3,-2.428 -130.524,7.212 l -19.026,4.399 16.469,10.484 c 8.58,5.44 21.141,16.881 28.744,29.255 7.603,12.374 10.315,24.156 3.887,34.523 -6.428,10.367 -24.712,21.817 -64.648,27.618 -39.895,5.795 -100.597,6.012 -189.29,-3.324 C 56.316,583.793 28.799,566.325 20.396,550.21 16.178,542.121 15.885,534.388 19.475,525.507 23.066,516.627 31.042,506.726 43.82,496.968 147.708,415.533 194.807,328.557 258.172,230.09 304.162,157.975 375.838,93.174 443.626,54.609 477.52,35.327 510.46,22.612 538.194,18.551 c 6.933,-1.015 13.473,-1.485 19.64,-1.432 18.501,0.161 30.004,2.385 40.713,12.44 z"
   inkscape:connector-curvature="0"
   style="fill:#404c53" />
		<path
   id="Small_Wing_OL"
   d="m 321.439,179.969 c -3.041,0.307 -6.123,0.925 -9.104,1.79 -11.926,3.459 -23.679,10.613 -35.188,19.589 -23.018,17.951 -44.955,43.417 -60.148,63.727 l -0.204,0.256 -0.205,0.358 C 161.86,354.407 117.016,417.891 34.153,482.547 L 34.102,482.649 34,482.7 c -20.236,16.583 -31.406,32.981 -33.398,49.56 -1.993,16.58 6.152,31.782 19.845,43.321 27.385,23.077 77.345,36.385 136.508,39.842 l 0.818,0.052 0.869,-0.153 c 34.024,-5.158 62.656,-22.435 75.901,-44.6 6.623,-11.081 9.23,-24.001 5.165,-36.16 -2.262,-6.769 -6.66,-12.929 -12.684,-18.514 34.233,-8.028 73.989,-28.606 106.434,-53.089 19.604,-14.794 36.391,-30.96 47.156,-47.259 10.766,-16.299 15.955,-34.026 8.336,-49.458 -6.161,-12.482 -19.452,-21.506 -38.615,-23.834 -13.659,-1.659 -30.675,-0.237 -51.657,4.706 1.557,-1.688 2.674,-2.813 4.347,-4.655 11.603,-12.763 25.656,-29.014 37.694,-46.644 12.039,-17.63 22.206,-36.585 25.471,-55.647 3.265,-19.062 -1.452,-38.906 -18.31,-53.294 l -0.204,-0.205 -0.257,-0.205 c -7.728,-5.659 -16.859,-7.416 -25.98,-6.495 l 0,0 z m 7.006,16.06 c 3.298,0.34 6.263,1.544 9.053,3.529 12.431,10.764 15.103,22.83 12.531,37.848 -2.593,15.138 -11.484,32.615 -22.811,49.202 -11.327,16.588 -24.938,32.343 -36.314,44.855 -5.687,6.255 -10.814,11.694 -14.883,16.111 -4.07,4.416 -6.86,7.305 -8.951,10.587 l -12.275,19.282 21.737,-7.109 c 32.971,-10.776 56.466,-13.583 71.86,-11.713 15.393,1.871 22.253,7.538 25.88,14.883 4.053,8.21 1.84,19.335 -7.315,33.194 -9.153,13.859 -24.786,29.143 -43.371,43.167 -37.169,28.048 -86.725,50.951 -118.402,53.294 l -29.971,2.25 26.954,13.247 c 13.349,6.586 19.645,14.1 21.993,21.123 2.347,7.022 1.186,14.494 -3.631,22.555 -9.547,15.974 -34.058,31.977 -63.524,36.671 C 100.264,595.572 52.826,581.457 30.982,563.05 20.003,553.799 15.609,544.662 16.866,534.204 c 1.252,-10.422 9.105,-23.709 27.363,-38.717 0.062,-0.051 0.092,-0.104 0.153,-0.153 84.537,-66.003 131.066,-131.869 185.966,-220.847 0.046,-0.075 0.108,-0.13 0.153,-0.205 14.558,-19.39 35.865,-43.779 56.721,-60.045 10.522,-8.206 20.966,-14.238 29.716,-16.776 4.375,-1.269 8.11,-1.783 11.507,-1.432 l 0,0 z"
   inkscape:connector-curvature="0"
   style="fill:#404c53" />
	</g>
</g>
</svg>