<?xml version="1.0" encoding="UTF-8" standalone="no"?>
<!-- Generator: Adobe Illustrator 15.1.0, SVG Export Plug-In . SVG Version: 6.00 Build 0)  -->

<svg
   xmlns:dc="http://purl.org/dc/elements/1.1/"
   xmlns:cc="http://creativecommons.org/ns#"
   xmlns:rdf="http://www.w3.org/1999/02/22-rdf-syntax-ns#"
   xmlns:svg="http://www.w3.org/2000/svg"
   xmlns="http://www.w3.org/2000/svg"
   xmlns:xlink="http://www.w3.org/1999/xlink"
   xmlns:sodipodi="http://sodipodi.sourceforge.net/DTD/sodipodi-0.dtd"
   xmlns:inkscape="http://www.inkscape.org/namespaces/inkscape"
   version="1.1"
   id="Layer_1_copy"
   x="0px"
   y="0px"
   width="59.976288"
   height="60.005253"
   viewBox="73.711 40.386 59.976287 60.005252"
   enable-background="new 73.711 40.386 395.604 395.604"
   xml:space="preserve"
   inkscape:version="0.48.2 r9819"
   sodipodi:docname="color_icon_button.svg"
   inkscape:export-filename="/Users/johnhopkins/Documents/Cloudsdale/Cloudsdale/app/assets/images/logo/color_icon_button_BIGGER.png"
   inkscape:export-xdpi="1536.6073"
   inkscape:export-ydpi="1536.6073"><metadata
   id="metadata151"><rdf:RDF><cc:Work
       rdf:about=""><dc:format>image/svg+xml</dc:format><dc:type
         rdf:resource="http://purl.org/dc/dcmitype/StillImage" /><dc:title></dc:title></cc:Work></rdf:RDF></metadata><defs
   id="defs149"><linearGradient
     inkscape:collect="always"
     id="linearGradient4946"><stop
       style="stop-color:#1d90c6;stop-opacity:1"
       offset="0"
       id="stop4948" /><stop
       style="stop-color:#a7e9ff;stop-opacity:1"
       offset="1"
       id="stop4950" /></linearGradient><marker
     inkscape:stockid="Arrow1Lstart"
     orient="auto"
     refY="0.0"
     refX="0.0"
     id="Arrow1Lstart"
     style="overflow:visible"><path
       id="path4278"
       d="M 0.0,0.0 L 5.0,-5.0 L -12.5,0.0 L 5.0,5.0 L 0.0,0.0 z "
       style="fill-rule:evenodd;stroke:#000000;stroke-width:1.0pt;marker-start:none"
       transform="scale(0.8) translate(12.5,0)" /></marker><filter
     id="filter4253"
     inkscape:label="Drop shadow"
     width="1.5"
     height="1.5"
     x="-.25"
     y="-.25"><feGaussianBlur
       id="feGaussianBlur4255"
       in="SourceAlpha"
       stdDeviation="2"
       result="blur" /><feColorMatrix
       id="feColorMatrix4257"
       result="bluralpha"
       type="matrix"
       values="1 0 0 0 0 0 1 0 0 0 0 0 1 0 0 0 0 0 0.2 0 " /><feOffset
       id="feOffset4259"
       in="bluralpha"
       dx="0"
       dy="0"
       result="offsetBlur" /><feMerge
       id="feMerge4261"><feMergeNode
         id="feMergeNode4263"
         in="offsetBlur" /><feMergeNode
         id="feMergeNode4265"
         in="SourceGraphic" /></feMerge></filter><linearGradient
     inkscape:collect="always"
     xlink:href="#linearGradient4946"
     id="linearGradient4952"
     x1="56.798119"
     y1="84.623672"
     x2="56.783817"
     y2="44.602291"
     gradientUnits="userSpaceOnUse"
     gradientTransform="translate(49.4505,-2.8287362)" /></defs><sodipodi:namedview
   pagecolor="#ffffff"
   bordercolor="#666666"
   borderopacity="1"
   objecttolerance="10"
   gridtolerance="10"
   guidetolerance="10"
   inkscape:pageopacity="0"
   inkscape:pageshadow="2"
   inkscape:window-width="1920"
   inkscape:window-height="905"
   id="namedview147"
   showgrid="false"
   fit-margin-top="0"
   fit-margin-left="0"
   fit-margin-right="0"
   fit-margin-bottom="0"
   inkscape:zoom="6.7492624"
   inkscape:cx="1.280336"
   inkscape:cy="46.655947"
   inkscape:window-x="0"
   inkscape:window-y="0"
   inkscape:window-maximized="1"
   inkscape:current-layer="Layer_1_copy" />
<rect
   style="fill:url(#linearGradient4952);fill-opacity:1;stroke:#0fb1ef;stroke-width:4.69999980999999956;stroke-linecap:round;stroke-linejoin:round;stroke-miterlimit:4;stroke-opacity:1;stroke-dasharray:none;stroke-dashoffset:0"
   id="rect4944"
   width="55.200058"
   height="55.125954"
   x="76.089981"
   y="42.88633"
   ry="6.3710651" /><circle
   id="back_1_"
   cx="271.51501"
   cy="238.188"
   r="194.66701"
   sodipodi:cx="271.51501"
   sodipodi:cy="238.188"
   sodipodi:rx="194.66701"
   sodipodi:ry="194.66701"
   transform="matrix(0.12643232,0,0,0.12643232,69.373143,40.279968)"
   style="fill:#1a4066" />
<g
   id="rainbow_copy"
   transform="matrix(0.12643232,0,0,0.12643232,69.373143,40.279968)">
	<g
   id="g5">
		<g
   id="g7">
			<defs
   id="defs9">
				<circle
   id="SVGID_1_"
   cx="271.51501"
   cy="238.188"
   r="194.66701"
   sodipodi:cx="271.51501"
   sodipodi:cy="238.188"
   sodipodi:rx="194.66701"
   sodipodi:ry="194.66701" />
			</defs>
			<clipPath
   id="SVGID_2_">
				<use
   xlink:href="#SVGID_1_"
   overflow="visible"
   id="use13"
   style="overflow:visible"
   x="0"
   y="0"
   width="395.604"
   height="395.604" />
			</clipPath>
			<path
   clip-path="url(#SVGID_2_)"
   d="m 444.435,314.399 13.813,-18.418 C 360.937,179.943 244.285,116.5 135.921,89.077 l -17.345,14.888"
   id="path15"
   inkscape:connector-curvature="0"
   style="fill:#dc2600" />
		</g>
		<g
   id="g17">
			<defs
   id="defs19">
				<circle
   id="SVGID_3_"
   cx="271.51501"
   cy="238.188"
   r="194.66701"
   sodipodi:cx="271.51501"
   sodipodi:cy="238.188"
   sodipodi:rx="194.66701"
   sodipodi:ry="194.66701" />
			</defs>
			<clipPath
   id="SVGID_4_">
				<use
   xlink:href="#SVGID_3_"
   overflow="visible"
   id="use23"
   style="overflow:visible"
   x="0"
   y="0"
   width="395.604"
   height="395.604" />
			</clipPath>
			<path
   clip-path="url(#SVGID_4_)"
   d="M 432.615,331.13 443.82,309.027 C 346.508,192.989 229.856,129.547 121.493,102.123 L 108.6,122.845"
   id="path25"
   inkscape:connector-curvature="0"
   style="fill:#fc8800" />
		</g>
		<g
   id="g27">
			<defs
   id="defs29">
				<circle
   id="SVGID_5_"
   cx="271.51501"
   cy="238.188"
   r="194.66701"
   sodipodi:cx="271.51501"
   sodipodi:cy="238.188"
   sodipodi:rx="194.66701"
   sodipodi:ry="194.66701" />
			</defs>
			<clipPath
   id="SVGID_6_">
				<use
   xlink:href="#SVGID_5_"
   overflow="visible"
   id="use33"
   style="overflow:visible"
   x="0"
   y="0"
   width="395.604"
   height="395.604" />
			</clipPath>
			<path
   clip-path="url(#SVGID_6_)"
   d="m 424.327,346.325 12.74,-18.572 C 339.755,211.715 223.103,148.272 114.74,120.849 l -13.2,19.647"
   id="path35"
   inkscape:connector-curvature="0"
   style="fill:#ffe600" />
		</g>
		<g
   id="g37">
			<defs
   id="defs39">
				<circle
   id="SVGID_7_"
   cx="271.51501"
   cy="238.188"
   r="194.66701"
   sodipodi:cx="271.51501"
   sodipodi:cy="238.188"
   sodipodi:rx="194.66701"
   sodipodi:ry="194.66701" />
			</defs>
			<clipPath
   id="SVGID_8_">
				<use
   xlink:href="#SVGID_7_"
   overflow="visible"
   id="use43"
   style="overflow:visible"
   x="0"
   y="0"
   width="395.604"
   height="395.604" />
			</clipPath>
			<path
   clip-path="url(#SVGID_8_)"
   d="M 408.672,360.14 422.64,340.8 C 325.327,224.762 208.676,161.319 100.312,133.896 l -10.591,22.87"
   id="path45"
   inkscape:connector-curvature="0"
   style="fill:#80ce00" />
		</g>
		<g
   id="g47">
			<defs
   id="defs49">
				<circle
   id="SVGID_9_"
   cx="271.51501"
   cy="238.188"
   r="194.66701"
   sodipodi:cx="271.51501"
   sodipodi:cy="238.188"
   sodipodi:rx="194.66701"
   sodipodi:ry="194.66701" />
			</defs>
			<clipPath
   id="SVGID_10_">
				<use
   xlink:href="#SVGID_9_"
   overflow="visible"
   id="use53"
   style="overflow:visible"
   x="0"
   y="0"
   width="395.604"
   height="395.604" />
			</clipPath>
			<path
   clip-path="url(#SVGID_10_)"
   d="m 393.323,374.261 15.963,-17.498 C 311.974,240.725 195.322,177.282 86.958,149.859 l -16.271,19.34 c 0,0 108.518,42.67 164.694,79.814 56.176,37.144 157.942,125.248 157.942,125.248 z"
   id="path55"
   inkscape:connector-curvature="0"
   style="fill:#00a5ff" />
		</g>
		<g
   id="g57">
			<defs
   id="defs59">
				<circle
   id="SVGID_11_"
   cx="271.51501"
   cy="238.188"
   r="194.66701"
   sodipodi:cx="271.51501"
   sodipodi:cy="238.188"
   sodipodi:rx="194.66701"
   sodipodi:ry="194.66701" />
			</defs>
			<clipPath
   id="SVGID_12_">
				<use
   xlink:href="#SVGID_11_"
   overflow="visible"
   id="use63"
   style="overflow:visible"
   x="0"
   y="0"
   width="395.604"
   height="395.604" />
			</clipPath>
			<path
   clip-path="url(#SVGID_12_)"
   d="M 61.172,180.096 C 169.535,207.52 286.188,270.962 383.5,387 l 11.357,-17.19 C 297.545,253.771 180.894,190.329 72.53,162.905 l -11.358,17.191 z"
   id="path65"
   inkscape:connector-curvature="0"
   style="fill:#6946ff" />
		</g>
	</g>
</g>
<g
   id="flare_1_"
   transform="matrix(0.12643232,0,0,0.12643232,69.373143,40.279968)">
	<g
   id="g68">
		<defs
   id="defs70">
			<circle
   id="SVGID_13_"
   cx="271.51401"
   cy="238.189"
   r="194.66701"
   sodipodi:cx="271.51401"
   sodipodi:cy="238.189"
   sodipodi:rx="194.66701"
   sodipodi:ry="194.66701" />
		</defs>
		<clipPath
   id="SVGID_14_">
			<use
   xlink:href="#SVGID_13_"
   overflow="visible"
   id="use74"
   style="overflow:visible"
   x="0"
   y="0"
   width="395.604"
   height="395.604" />
		</clipPath>
		
			<radialGradient
   id="SVGID_15_"
   cx="293.67209"
   cy="-10.8242"
   r="194.71091"
   gradientTransform="matrix(0.8846,0.4663,0.4663,-0.8846,102.8574,80.3535)"
   gradientUnits="userSpaceOnUse">
			<stop
   offset="0"
   style="stop-color:#FFFFFF;stop-opacity:0.85"
   id="stop77" />
			<stop
   offset="0.2545"
   style="stop-color:#FFFFFF;stop-opacity:0.58"
   id="stop79" />
			<stop
   offset="0.4242"
   style="stop-color:#FFFFFF;stop-opacity:0"
   id="stop81" />
		</radialGradient>
		<circle
   clip-path="url(#SVGID_14_)"
   cx="357.59299"
   cy="226.868"
   r="194.66701"
   id="circle83"
   style="fill:url(#SVGID_15_)"
   sodipodi:cx="357.59299"
   sodipodi:cy="226.868"
   sodipodi:rx="194.66701"
   sodipodi:ry="194.66701"
   d="m 552.25999,226.868 c 0,107.51162 -87.15538,194.667 -194.667,194.667 -107.51162,0 -194.66701,-87.15538 -194.66701,-194.667 0,-107.51162 87.15539,-194.667011 194.66701,-194.667011 107.51162,0 194.667,87.155391 194.667,194.667011 z" />
	</g>
</g>
<g
   id="g85"
   transform="matrix(0.12643232,0,0,0.12643232,69.373143,40.279968)">
	<g
   id="g87">
		<defs
   id="defs89">
			<path
   id="SVGID_16_"
   d="M 363.733,63.244 C 267.114,12.312 147.5,49.348 96.569,145.968 c -50.932,96.62 -13.895,216.233 82.727,267.164 96.616,50.932 216.231,13.896 267.162,-82.725 50.931,-96.62 13.893,-216.232 -82.725,-267.163 z"
   inkscape:connector-curvature="0" />
		</defs>
		<clipPath
   id="SVGID_17_">
			<use
   xlink:href="#SVGID_16_"
   overflow="visible"
   id="use93"
   style="overflow:visible"
   x="0"
   y="0"
   width="395.604"
   height="395.604" />
		</clipPath>
		
			<linearGradient
   id="SVGID_18_"
   gradientUnits="userSpaceOnUse"
   x1="24.0413"
   y1="-67.403801"
   x2="348.06491"
   y2="104.8826"
   gradientTransform="matrix(0.8846,0.4663,0.4663,-0.8846,102.8574,80.3535)">
			<stop
   offset="0"
   style="stop-color:#B4B4B4;stop-opacity:0.5"
   id="stop96" />
			<stop
   offset="0.4606"
   style="stop-color:#F1F1F1;stop-opacity:0.66"
   id="stop98" />
			<stop
   offset="1"
   style="stop-color:#FFFFFF;stop-opacity:0.54"
   id="stop100" />
		</linearGradient>
		<path
   clip-path="url(#SVGID_17_)"
   enable-background="new    "
   d="m 458.571,238.481 c 1.119,-8.282 1.549,-16.741 1.238,-25.33 C 456.537,122.317 353.33,33.461 252.056,37.11 150.783,40.759 89.793,135.53 93.065,226.362 c 0.479,13.288 2.702,26.146 6.464,38.402 0,0 45.926,-65.542 176.825,-75.527 130.902,-9.987 182.217,49.244 182.217,49.244 z"
   id="path102"
   style="opacity:0.70999995;fill:url(#SVGID_18_)"
   inkscape:connector-curvature="0" />
	</g>
</g>
<radialGradient
   id="SVGID_19_"
   cx="271.37381"
   cy="840.86719"
   r="194.6665"
   gradientTransform="matrix(0.12643232,0,0,-0.12643232,69.390863,176.70735)"
   gradientUnits="userSpaceOnUse">
	<stop
   offset="0.7333"
   style="stop-color:#63A0D0"
   id="stop105" />
	<stop
   offset="1"
   style="stop-color:#3F85B3"
   id="stop107" />
</radialGradient>
<path
   stroke-miterlimit="10"
   d="m 103.70141,45.782426 c -13.593116,0 -24.612325,11.019084 -24.612325,24.612076 0,13.592993 11.019209,24.612201 24.612325,24.612201 13.59275,0 24.61208,-11.019083 24.61208,-24.612201 0,-13.593117 -11.01946,-24.612076 -24.61208,-24.612076 z m 0,43.361486 c -10.355057,0 -18.749533,-8.394476 -18.749533,-18.74941 0,-10.354933 8.394351,-18.749159 18.749533,-18.749159 10.35469,0 18.74929,8.394351 18.74929,18.749284 0,10.354934 -8.3946,18.749285 -18.74929,18.749285 z"
   id="path109"
   style="fill:url(#SVGID_19_);stroke:#456baf;stroke-width:0.75859392000000003;stroke-miterlimit:10;filter:url(#filter4253)"
   inkscape:connector-curvature="0" />
<path
   id="outer_feathers_1_"
   stroke-miterlimit="10"
   d="m 87.422619,82.270545 c 0,0 7.466717,2.320916 13.166281,0.690441 5.70071,-1.630466 0.52672,-5.110642 0.52672,-5.110642 0.61472,-0.387641 5.40069,-0.383216 6.51683,-0.416091 1.11615,-0.03367 10.17034,1.6488 9.41668,-2.019 -0.75404,-3.667801 -9.40429,-4.692026 -9.40429,-4.692026 0,0 5.40992,-2.548875 9.04535,-3.626841 3.63581,-1.077584 11.10253,-3.527209 7.66496,-6.325026 -3.43896,-2.798075 -18.63752,2.71045 -18.63752,2.71045 0.64405,-1.408833 3.63493,-3.14475 3.63493,-3.14475 9.85021,-5.723592 5.97658,-8.709792 -1.0069,-5.947125 -6.98274,2.76255 -11.728249,10.697192 -14.433399,15.036476 -2.7059,4.339408 -6.326542,6.97375 -6.326542,6.97375 -1.585467,1.174683 -2.438883,4.936042 -0.1631,5.870384 z"
   inkscape:connector-curvature="0"
   style="fill:#f5f5f5;stroke:#dfdfdf;stroke-width:0.75859392;stroke-miterlimit:10" />
<path
   id="inner_feathers_1_"
   stroke-miterlimit="10"
   d="m 96.742328,65.028836 c 0,0 3.005925,-3.511401 5.189032,-2.428384 2.18361,1.083025 -1.6818,6.7458 -3.396474,8.242 0,0 1.746024,-0.6902 3.711804,-0.459075 1.96716,0.231625 4.08414,4.248376 -7.156579,8.095076 0,0 3.92205,2.636625 -2.399558,4.824917"
   inkscape:connector-curvature="0"
   style="fill:none;stroke:#dfdfdf;stroke-width:0.75859392;stroke-miterlimit:10" />
<g
   id="g113"
   transform="matrix(0.12643232,0,0,0.12643232,69.373143,40.279968)">
	<g
   id="g115">
		<defs
   id="defs117">
			<rect
   id="SVGID_20_"
   x="56.853001"
   y="275.854"
   width="127.5"
   height="88.5" />
		</defs>
		<clipPath
   id="SVGID_21_">
			<use
   xlink:href="#SVGID_20_"
   overflow="visible"
   id="use121"
   style="overflow:visible"
   x="0"
   y="0"
   width="395.604"
   height="395.604" />
		</clipPath>
		
			<radialGradient
   id="SVGID_22_"
   cx="271.37961"
   cy="840.86719"
   r="194.6665"
   gradientTransform="matrix(1,0,0,-1,0.1401,1079.0547)"
   gradientUnits="userSpaceOnUse">
			<stop
   offset="0.7333"
   style="stop-color:#63A0D0"
   id="stop124" />
			<stop
   offset="1"
   style="stop-color:#3F85B3"
   id="stop126" />
		</radialGradient>
		<path
   clip-path="url(#SVGID_21_)"
   stroke-miterlimit="10"
   d="m 271.521,43.521 c -107.513,0 -194.668,87.154 -194.668,194.666 0,107.512 87.155,194.667 194.668,194.667 107.51,0 194.666,-87.154 194.666,-194.667 0,-107.513 -87.157,-194.666 -194.666,-194.666 z m 0,342.962 c -81.901,0 -148.297,-66.395 -148.297,-148.296 0,-81.901 66.394,-148.294 148.297,-148.294 81.9,0 148.295,66.394 148.295,148.295 0,81.901 -66.395,148.295 -148.295,148.295 z"
   id="path128"
   style="fill:url(#SVGID_22_);stroke:#456baf;stroke-width:6;stroke-miterlimit:10"
   inkscape:connector-curvature="0" />
	</g>
</g>
<g
   id="clouds_copy"
   transform="matrix(0.12643232,0,0,0.12643232,69.373143,40.279968)">
	<g
   id="g131">
		<path
   d="M 391.131,101.336"
   id="path133"
   inkscape:connector-curvature="0"
   style="fill:#dfdfdf" />
	</g>
	<path
   stroke-miterlimit="10"
   d="M 134.803,365.989"
   id="path135"
   inkscape:connector-curvature="0"
   style="fill:#f5f5f5;stroke:#dfdfdf;stroke-width:1.5;stroke-miterlimit:10" />
	<path
   stroke-miterlimit="10"
   d="M 128.747,355.069"
   id="path137"
   inkscape:connector-curvature="0"
   style="fill:#f5f5f5;stroke:#dfdfdf;stroke-width:1.5;stroke-miterlimit:10" />
	<path
   stroke-miterlimit="10"
   d="M 138.808,348.916"
   id="path139"
   inkscape:connector-curvature="0"
   style="fill:#f5f5f5;stroke:#dfdfdf;stroke-width:1.5;stroke-miterlimit:10" />
	<g
   id="g141">
		<path
   d="M 392.624,351.618"
   id="path143"
   inkscape:connector-curvature="0"
   style="fill:#f5f5f5" />
		<path
   d="M 396.428,348.535"
   id="path145"
   inkscape:connector-curvature="0"
   style="fill:#dfdfdf" />
	</g>
</g>
<path
   style="fill:#ffffff;fill-opacity:0.51315792;stroke:none"
   d="m 81.685181,45.272751 43.854009,0 c 1.84687,0 3.3337,2.147642 3.3337,4.81534 l 0,15.927448 c -14.39883,-8.2726 -50.851344,16.788928 -50.521411,0 l 0,-15.927448 c 0,-2.667698 1.486831,-4.81534 3.333702,-4.81534 z"
   id="rect4956"
   inkscape:connector-curvature="0"
   sodipodi:nodetypes="sssccss" /></svg>