<?xml version="1.0" encoding="UTF-8" standalone="no"?>
<!-- Generator: Adobe Illustrator 15.1.0, SVG Export Plug-In . SVG Version: 6.00 Build 0)  -->

<svg
   xmlns:dc="http://purl.org/dc/elements/1.1/"
   xmlns:cc="http://creativecommons.org/ns#"
   xmlns:rdf="http://www.w3.org/1999/02/22-rdf-syntax-ns#"
   xmlns:svg="http://www.w3.org/2000/svg"
   xmlns="http://www.w3.org/2000/svg"
   xmlns:xlink="http://www.w3.org/1999/xlink"
   xmlns:sodipodi="http://sodipodi.sourceforge.net/DTD/sodipodi-0.dtd"
   xmlns:inkscape="http://www.inkscape.org/namespaces/inkscape"
   version="1.1"
   id="Layer_1"
   x="0px"
   y="0px"
   width="176.50055"
   height="28.999678"
   viewBox="341.872 471.695 176.50055 28.999678"
   enable-background="new 341.872 471.695 1154.251 181.125"
   xml:space="preserve"
   inkscape:version="0.48.2 r9819"
   sodipodi:docname="sub_logo.svg"><metadata
   id="metadata108"><rdf:RDF><cc:Work
       rdf:about=""><dc:format>image/svg+xml</dc:format><dc:type
         rdf:resource="http://purl.org/dc/dcmitype/StillImage" /><dc:title></dc:title></cc:Work></rdf:RDF></metadata><defs
   id="defs106" /><sodipodi:namedview
   pagecolor="#ffffff"
   bordercolor="#666666"
   borderopacity="1"
   objecttolerance="10"
   gridtolerance="10"
   guidetolerance="10"
   inkscape:pageopacity="0"
   inkscape:pageshadow="2"
   inkscape:window-width="736"
   inkscape:window-height="480"
   id="namedview104"
   showgrid="false"
   fit-margin-top="0"
   fit-margin-left="0"
   fit-margin-right="0"
   fit-margin-bottom="0"
   inkscape:zoom="2.2317503"
   inkscape:cx="93.950497"
   inkscape:cy="15.224495"
   inkscape:window-x="247"
   inkscape:window-y="66"
   inkscape:window-maximized="0"
   inkscape:current-layer="Layer_1" />
<g
   id="wing"
   display="none"
   style="display:none"
   transform="translate(-490.85911,-76.787319)">
	<g
   display="inline"
   id="g4"
   style="display:inline">
		<path
   id="outer_feathers_1_"
   d="m 959.181,447.891 c 0,0 28.637,-20.835 50.039,-55.158 21.398,-34.321 58.932,-97.079 114.16,-118.929 55.233,-21.851 85.874,1.769 7.964,47.039 0,0 -23.656,13.73 -28.75,24.873 0,0 120.21,-43.569 147.412,-21.438 27.188,22.129 -31.87,41.504 -60.625,50.028 -28.756,8.525 -71.543,28.685 -71.543,28.685 0,0 68.418,8.101 74.38,37.11 5.962,29.011 -65.653,15.703 -74.481,15.969 -8.828,0.261 -46.681,0.225 -51.543,3.291 0,0 40.923,27.525 -4.165,40.422 -45.08,12.896 -104.562,-5.774 -104.562,-5.774"
   inkscape:connector-curvature="0"
   style="fill:#f6f6f6" />
		<path
   d="m 956.554,494.227 0.311,-1.021 c 0.583,0.183 57.75,12.981 104.338,3.696 8.198,-1.635 17.837,-6.453 18.901,-13.198 1.332,-8.43 -10.802,-18.633 -15.592,-21.854 l -3.822,-2.569 3.9,-2.456 c 3.965,-2.5 19.989,-3.225 46.322,-3.625 2.881,-0.046 5.229,-0.078 6.738,-0.122 1.693,-0.054 4.857,0.281 9.639,0.781 15.244,1.594 50.942,5.337 60.172,-4.853 1.935,-2.131 2.523,-4.846 1.815,-8.298 -5.464,-26.565 -71.128,-34.658 -71.792,-34.734 l -10.386,-1.232 9.463,-4.463 c 0.42,-0.203 43.319,-20.354 71.963,-28.846 51.388,-15.236 63.882,-26.97 65.313,-34.128 0.697,-3.491 -1.178,-6.989 -5.731,-10.698 -21.234,-17.312 -111.499,9.974 -144.487,21.935 l -6.732,2.437 2.982,-6.506 c 5.426,-11.875 28.976,-25.64 29.967,-26.221 40.946,-23.789 47.51,-39.126 44.938,-44.434 -3.429,-7.065 -23.169,-7.952 -50.288,2.778 -52.383,20.732 -86.889,79.907 -108.589,114.812 l -2.664,4.26 c -21.466,34.424 -51.88,53.035 -53.065,53.896 l -0.755,-0.734 c 0.281,-0.205 18.011,-17.895 47.27,-57.679 l 2.284,-3.682 c 22.104,-35.53 59.085,-94.99 113.317,-116.448 28.556,-11.299 52.363,-11.216 57.881,0.176 5.952,12.268 -11.288,31.313 -47.31,52.244 -4.625,2.684 -15.055,9.458 -21.87,16.194 29.268,-9.871 117.007,-37.097 140.913,-17.678 6.348,5.168 8.983,10.731 7.826,16.531 -2.621,13.127 -24.707,25.422 -69.486,38.7 -20.293,6.017 -47.964,18.025 -62.062,24.373 19.746,3.567 62.046,13.937 66.981,37.944 1.104,5.378 0.016,9.934 -3.252,13.535 -11.271,12.437 -46.377,8.76 -65.238,6.787 -4.048,-0.426 -7.539,-0.791 -8.844,-0.754 -1.52,0.049 -3.896,0.085 -6.815,0.132 -7.77,0.117 -28.169,0.427 -38.062,1.604 5.89,5.058 14.59,14.314 13.086,23.833 -1.255,7.92 -8.638,15.891 -23.179,18.03 -83.949,12.37 -103.838,-7.669 -106.299,-8.445 z"
   id="path7"
   inkscape:connector-curvature="0"
   style="fill:#e0e0e0" />
	</g>
	<path
   id="inner_feathers"
   display="inline"
   stroke-miterlimit="10"
   d="m 1031.605,357.952 c 0,0 23.775,-27.773 41.041,-19.207 17.271,8.566 -13.301,53.356 -26.864,65.189 0,0 13.81,-5.459 29.359,-3.63 15.558,1.831 32.301,33.6 -56.605,64.026 0,0 31.021,20.854 -18.979,38.162"
   inkscape:connector-curvature="0"
   style="fill:none;stroke:#e0e0e0;stroke-width:6;stroke-miterlimit:10;display:inline" />
</g>
<g
   id="fill_gradiant"
   display="none"
   style="display:none"
   transform="translate(-490.85911,-76.787319)">
	<g
   display="inline"
   id="g11"
   style="display:inline">
		<g
   id="g13">
			<g
   id="g15">
				<defs
   id="defs17">
					<path
   id="SVGID_1_"
   d="m 1211.998,481.258 c 0,0 -132.5,40.625 -217.5,-16.25 -85,-56.875 -113.125,-73.75 -161.25,-73.75 0,0 -35.625,-46.875 -68.75,-12.5 l -13.75,25.625 -20,2.5 4.375,-40 c 0,0 1.875,-50.625 -54.375,-82.5 -56.25,-31.875 -130,1.25 -129.375,8.75 l -26.875,-16.25 c 0,0 -40.625,-24.375 -78.75,26.25 -38.125,50.625 -53.125,115.625 -3.75,161.25 0,0 -32.5,46.875 -25.625,93.125 0,0 23.75,145.625 171.875,146.25 l 4.375,11.25 c 0,0 -1.875,39.375 120,56.25 l 208.75,-23.125 184.375,20 c 0,0 71.25,1.25 101.875,-28.75 30.625,-30 20.625,-30.625 20.625,-30.625 0,0 75,-0.312 112.5,-41.562 37.5,-41.25 47.5,-78.438 45.938,-98.438 -1.562,-20 -6.875,-64.062 -60.938,-90.312 -54.063,-26.252 -113.75,2.812 -113.75,2.812 z"
   inkscape:connector-curvature="0" />
				</defs>
				<clipPath
   id="SVGID_2_">
					<use
   xlink:href="#SVGID_1_"
   overflow="visible"
   id="use21"
   style="overflow:visible"
   x="0"
   y="0"
   width="1154.251"
   height="181.125" />
				</clipPath>
				
					<linearGradient
   id="SVGID_3_"
   gradientUnits="userSpaceOnUse"
   x1="319.73221"
   y1="-213.67191"
   x2="319.73209"
   y2="306.32861"
   gradientTransform="translate(564.1406,473.0547)">
					<stop
   offset="0.4242"
   style="stop-color:#FFFFFF"
   id="stop24" />
					<stop
   offset="0.7152"
   style="stop-color:#FFFFFF"
   id="stop26" />
					<stop
   offset="1"
   style="stop-color:#74CFE6"
   id="stop28" />
				</linearGradient>
				<rect
   x="374.49701"
   y="259.383"
   clip-path="url(#SVGID_2_)"
   width="1018.751"
   height="520"
   id="rect30"
   style="fill:url(#SVGID_3_)" />
			</g>
		</g>
	</g>
</g>
<g
   id="outline"
   display="none"
   style="display:none"
   transform="translate(-490.85911,-76.787319)">
	
		<linearGradient
   id="SVGID_4_"
   gradientUnits="userSpaceOnUse"
   x1="332.75421"
   y1="-209.1436"
   x2="332.75409"
   y2="303.92871"
   gradientTransform="translate(564.1406,473.0547)">
		<stop
   offset="0.0061"
   style="stop-color:#C3E7EF"
   id="stop34" />
		<stop
   offset="0.6909"
   style="stop-color:#74CFE6"
   id="stop36" />
		<stop
   offset="1"
   style="stop-color:#005EA3"
   id="stop38" />
	</linearGradient>
	<path
   display="inline"
   d="m 558.247,373.133 c 2.539,-11.663 3.748,-22.883 3.169,-33.811 -0.557,-10.879 -3.262,-21.523 -8.947,-30.74 -5.586,-9.243 -13.586,-17.024 -22.697,-23.335 -2.283,-1.565 -4.632,-3.103 -7.021,-4.485 -2.134,-1.189 -4.59,-2.351 -6.986,-3.176 -4.85,-1.719 -9.979,-2.456 -15.12,-2.246 -10.314,0.425 -20.524,4.585 -29.572,10.598 -9.077,6.055 -17.103,13.936 -24.036,22.673 -13.792,17.576 -23.566,38.538 -28.296,60.391 -4.635,21.794 -3.551,45.142 6.257,64.875 5.104,9.946 11.388,19.275 19.248,27.007 7.809,7.685 17.249,13.646 27.666,16.225 10.364,2.666 21.545,1.873 31.52,-2.114 9.86,-3.882 19.072,-11.157 22.832,-20.535 0.869,-2.332 1.296,-4.746 1.193,-7.117 -0.148,-2.388 -0.724,-5.171 -1.574,-7.625 -1.722,-5.015 -4.79,-9.595 -8.745,-13.455 -8.016,-7.703 -18.864,-12.725 -30.138,-15.63 5.862,0.361 11.67,1.667 17.298,3.602 5.625,1.938 11.128,4.621 15.944,8.48 4.85,3.782 8.97,8.826 11.483,14.709 1.273,2.979 2.17,5.896 2.672,9.308 0.386,3.46 -0.078,6.925 -1.067,10.121 -4.331,12.851 -15.109,21.35 -26.509,26.352 -11.598,4.978 -24.845,6.033 -37.151,3.079 -12.371,-2.876 -23.438,-9.729 -32.339,-18.25 -8.934,-8.53 -15.98,-18.745 -21.665,-29.456 -11.423,-22.228 -12.832,-48.147 -8.146,-71.849 4.676,-23.877 15.168,-46.379 30.288,-65.452 7.59,-9.504 16.418,-18.193 26.797,-25.088 10.311,-6.838 22.532,-11.953 35.68,-12.258 6.521,-0.171 13.14,0.886 19.26,3.167 3.102,1.138 5.931,2.505 8.862,4.209 2.639,1.582 5.148,3.284 7.653,5.056 9.935,7.109 18.962,16.052 25.314,26.936 6.318,10.83 9.905,23.523 9.324,35.994 -0.607,12.399 -4.73,24.548 -12.451,33.84 z m 35.589,335.786 -2.428,-9.697 C 543.393,711.241 457.969,664.576 430.395,595.039 403.071,526.138 442.202,473.223 442.622,472.664 l -3.827,-3.203 -3.673,-3.594 c -1.854,2.456 -43.472,58.599 -14.022,132.857 26.497,66.818 100.646,112.37 153.909,112.37 6.642,0.003 12.966,-0.71 18.827,-2.175 z m -1.706,-20.557 c -3.636,9.358 -5.343,19.988 -3.346,30.696 1.033,5.317 3.198,10.549 6.383,15.029 3.169,4.502 7.243,8.203 11.62,11.162 2.202,1.46 4.479,2.749 6.803,3.911 l 1.753,0.825 c 0.554,0.269 1.364,0.62 1.849,0.806 l 3.402,1.354 c 4.528,1.758 9.069,3.406 13.641,4.988 18.273,6.301 36.932,11.521 56.016,15.178 19.067,3.577 38.646,5.757 58.5,4.114 19.411,-1.958 38.195,-4.956 57.136,-7.749 18.893,-2.837 37.742,-5.658 56.605,-8.036 18.86,-2.367 37.744,-4.354 56.572,-5.216 18.866,-0.774 37.497,-0.659 55.554,3.252 37.849,7.229 76.095,12.124 114.76,13.142 19.315,0.42 38.755,-0.19 58.114,-3.015 19.225,-2.969 38.927,-7.781 56.03,-19.351 4.214,-2.92 8.184,-6.323 11.68,-10.225 3.574,-4.038 6.201,-7.998 8.989,-12.092 5.425,-8.188 10.254,-16.819 14.16,-25.94 3.866,-9.126 6.898,-18.755 8.026,-28.94 1.051,-10.034 0.332,-21.321 -6.063,-30.874 -3.179,-4.683 -7.793,-8.452 -12.855,-10.723 -5.078,-2.314 -10.454,-3.271 -15.659,-3.521 -5.22,-0.242 -10.327,0.229 -15.282,1.101 l -1.93,0.371 -1.763,0.398 c -1.344,0.327 -2.622,0.693 -3.856,1.089 -2.506,0.82 -4.962,1.848 -7.313,3.11 -4.713,2.52 -8.862,6.157 -12.086,10.371 -3.231,4.231 -5.342,9.104 -6.737,13.989 -2.523,9.873 -2.235,20.005 0.42,29.312 0.298,-9.604 1.847,-19.043 5.436,-27.295 3.468,-8.286 9.396,-14.927 17.052,-18.462 14.894,-6.211 37.86,-7.72 46.537,5.723 4.396,6.538 5.265,15.571 4.233,24.309 -1.035,8.821 -3.823,17.617 -7.477,26.023 -3.678,8.418 -8.268,16.499 -13.446,24.194 -2.604,3.779 -5.354,7.759 -8.154,10.84 -2.9,3.193 -6.25,6.035 -9.902,8.525 -14.795,9.917 -33.262,14.53 -51.602,17.173 -18.491,2.554 -37.389,3.026 -56.245,2.471 -37.744,-1.265 -75.523,-6.377 -112.653,-13.76 -9.406,-2.148 -19.655,-3.35 -29.344,-3.662 -9.8,-0.386 -19.525,-0.189 -29.199,0.298 -19.343,0.996 -38.477,3.142 -57.507,5.642 -19.03,2.52 -37.954,5.469 -56.831,8.418 -18.835,2.898 -37.791,6.016 -56.389,8.008 -18.281,1.636 -37.075,-0.273 -55.516,-3.633 -18.47,-3.424 -36.738,-8.408 -54.613,-14.453 -4.466,-1.515 -8.911,-3.105 -13.299,-4.775 l -3.263,-1.273 c -0.632,-0.243 -0.918,-0.37 -1.438,-0.619 l -1.494,-0.686 c -1.956,-0.967 -3.844,-2.024 -5.631,-3.191 -7.147,-4.674 -12.243,-11.472 -13.796,-19.624 -1.727,-8.159 -0.062,-17.036 2.371,-25.681 2.401,-8.744 5.498,-17.494 8.423,-27.007 -7.872,6.247 -13.572,14.66 -17.376,23.981 z m 637.261,25.992 c 15.527,1.108 30.26,-0.691 44.907,-4.197 14.562,-3.562 28.618,-9.248 41.558,-16.88 12.931,-7.646 24.684,-17.257 34.801,-28.308 10.063,-11.028 18.877,-23.354 25.342,-37.041 12.905,-27.188 16.646,-59.021 8.434,-88.357 -4.071,-14.614 -11.206,-28.508 -21.206,-40.097 -9.966,-11.604 -22.754,-20.779 -36.831,-26.602 -14.063,-5.903 -29.219,-8.645 -44.219,-8.994 -7.49,-0.195 -15.055,0.205 -22.368,1.023 -7.479,0.823 -14.845,2.095 -22.145,3.992 -14.53,3.723 -28.893,10.007 -40.698,20.175 -11.781,10.083 -20.326,24.47 -22.655,40.078 -2.318,15.469 0.62,32.105 10.747,45.077 5.021,6.328 12.627,11.781 21.642,12.543 7.44,0.684 15,0.865 22.466,0.242 14.878,-1.316 29.883,-4.888 42.993,-12.776 6.416,-4.033 12.266,-9.612 15.37,-16.689 3.164,-7.08 2.837,-15.017 0.724,-21.909 1.162,7.173 0.194,14.646 -3.397,20.552 -3.501,5.976 -9.214,10.227 -15.396,13.235 -12.505,6.086 -26.852,7.785 -40.812,8.254 -7.031,0.179 -14.033,0.086 -21.04,-0.646 -5.63,-0.533 -10.957,-4.016 -14.883,-8.969 -7.936,-10.031 -10.729,-24.354 -8.683,-37.401 1.997,-13.213 9.142,-25.342 19.385,-34.138 10.27,-8.852 23.198,-14.622 36.709,-18.064 27.021,-6.553 56.914,-7.175 82.433,3.545 12.759,5.283 24.188,13.513 33.146,23.94 8.983,10.417 15.449,22.964 19.165,36.302 7.5,26.762 4.103,56.254 -7.865,81.428 -5.942,12.593 -14.204,24.165 -23.691,34.562 -9.496,10.359 -20.464,19.319 -32.533,26.454 -12.075,7.118 -25.221,12.438 -38.867,15.771 -13.54,3.301 -28.014,4.927 -41.471,3.955 l -1.062,9.94 z M 1095.908,502.298 c 64.342,-2.061 149.99,-25.357 150.851,-25.593 l -2.646,-9.646 c -0.846,0.232 -85.376,23.222 -148.524,25.242 -46.279,1.536 -93.545,-29.527 -135.277,-56.89 -15.498,-10.159 -30.138,-19.753 -44.236,-27.495 -43.623,-23.95 -82.969,-19.929 -84.624,-19.756 l 1.1,9.941 c 0.371,-0.05 37.832,-3.86 78.711,18.578 13.76,7.555 28.236,17.046 43.566,27.096 41.948,27.498 89.354,58.577 137.539,58.577 1.178,0.002 2.361,-0.018 3.54,-0.054 z M 850.532,459.949 c -5.648,6.477 -12.023,12.229 -19.368,15.935 -7.312,3.711 -15.451,5.351 -23.612,4.622 -8.169,-0.642 -16.276,-3.369 -23.898,-7.251 -7.318,-3.677 -13.513,-9.119 -18.091,-15.869 -9.176,-13.56 -11.699,-31.56 -8.675,-48.032 1.512,-8.244 4.365,-16.301 8.88,-23.034 4.465,-6.727 10.725,-11.971 17.959,-13.735 7.222,-1.873 15.215,-0.11 22.531,3.65 7.438,3.771 14.02,9.105 18.562,15.837 4.562,6.688 7.036,14.785 6.838,22.881 -0.145,7.981 -3.078,16.326 -8.639,20.994 -2.732,2.334 -5.995,3.386 -9.455,3.072 -3.494,-0.284 -7.104,-2.144 -10.431,-4.622 -6.665,-5.125 -12.059,-12.542 -17.313,-20.047 l -0.146,0.068 c 2.484,8.855 6.354,17.578 13.229,24.734 3.416,3.535 7.913,6.614 13.478,7.712 5.575,1.196 11.73,-0.691 16.061,-4.063 8.716,-7.012 12.083,-17.546 12.645,-27.507 0.492,-10.103 -2.368,-20.295 -7.853,-28.765 -5.464,-8.521 -13.354,-15.149 -21.997,-19.788 -8.607,-4.725 -19.495,-7.529 -30.127,-4.968 -10.641,2.468 -19.204,9.826 -24.822,18.088 -5.706,8.352 -9.191,17.769 -10.969,27.375 -3.379,19.119 -0.651,39.871 10.674,56.67 5.613,8.32 13.597,15.225 22.65,19.485 8.631,4.192 18.138,7.29 28.154,7.903 9.987,0.729 20.33,-1.538 29.133,-6.25 8.838,-4.707 16.185,-11.475 22.013,-19.05 5.9,-7.554 10.319,-15.986 13.721,-24.661 3.304,-8.716 5.771,-17.725 6.584,-26.953 -7.949,16.536 -16.466,32.417 -27.716,45.569 z m -122.5,-39.529 c 8.242,-8.228 17.666,-13.901 19.896,-13.132 l 8.141,-5.812 c -1.766,-2.471 -4.329,-3.913 -7.412,-4.167 -3.835,-0.308 -8.337,1.478 -12.578,3.989 16.349,-50.74 -3.137,-95.264 -54.307,-121.37 -56.362,-28.76 -119.686,-1.094 -134.305,6.094 0,0 2.161,1.858 3.438,3.359 1.328,1.563 3.766,4.331 3.766,4.331 17.279,-7.886 73.768,-29.771 122.557,-4.878 51.636,26.345 67.619,73.413 42.754,125.906 l -12.322,26.018 20.372,-20.338 z m 327.952,166.565 c -12.336,8.218 -23.327,18.843 -31.667,31.485 -4.077,6.364 -7.493,13.19 -10.032,20.329 -2.398,7.178 -4.149,14.59 -4.693,22.095 -1.299,14.985 1.177,29.963 6.575,43.486 -1.347,-14.507 -1.435,-28.772 1.158,-42.439 2.604,-13.635 7.77,-26.555 15.364,-38.015 7.419,-11.587 17.183,-21.68 27.942,-30.713 10.872,-8.94 22.757,-16.89 35.535,-23.833 -14.296,3.091 -27.857,9.399 -40.182,17.605 z"
   id="path40"
   inkscape:connector-curvature="0"
   style="fill:url(#SVGID_4_);display:inline" />
</g>
<g
   id="new_text"
   transform="matrix(0.161172,0,0,0.161172,281.68586,395.45774)">
	<g
   id="celestia">
		<g
   id="g44">
			<g
   id="g46">
				<g
   id="g48">
					<defs
   id="defs50">
						<path
   id="SVGID_5_"
   d="m 472.846,491.423 c 3.119,4.233 -1.002,9.605 -2.828,30.629 -1.562,17.965 -3.912,22.714 -5.943,22.087 -3.536,-1.092 -1.601,-4.12 -7.858,-10.125 -5.326,-5.108 -11.742,-9.085 -18.126,-9.939 -9.145,-1.228 -18.514,0.524 -28.167,10.502 -8.303,8.58 -8.601,23.224 -8.601,32.212 0,7.768 2.773,18.121 7.123,26.272 4.674,8.763 11.108,15.927 18.391,18.771 7.968,3.115 18.015,4.928 27.562,1.561 10.078,-3.555 10.252,-7.25 13.77,-11.403 2.574,-3.042 4.794,-6.438 6.719,-7.157 3.561,-1.332 -2.968,4.627 -2.868,22.783 0.098,17.791 2.623,23.501 -9.261,19.705 -6.969,-2.229 -13.573,2.812 -34.328,0.949 -9.999,-0.896 -18.177,-2.529 -29.5,-12.464 -10.905,-9.564 -16.703,-24.14 -18.213,-30.053 -1.511,-5.913 -4.009,-16.199 -3.771,-31.021 0.236,-14.806 2.758,-26.729 13.573,-41.707 9.026,-12.5 18.742,-20.848 30.098,-23.755 9.295,-2.382 18.975,-1.825 23.676,-0.319 9.845,3.153 15.699,2.979 18.364,-0.3 4.153,-5.118 9.263,-8.483 10.188,-7.228 z m 15.667,5.417 c 5.501,-2.927 20.011,-3.301 36.847,-0.723 18.084,2.771 32.529,7.188 40.012,10.72 5.868,2.771 -8.453,3.584 -15.17,6.173 -6.716,2.588 -11.953,12.469 -16.075,33.453 -5.737,29.203 -5.455,49.225 -5.216,66.799 9.095,0.241 11.329,3.069 20.613,1.764 9.092,-1.28 13.974,-6.123 18.186,-12.781 2.986,-4.725 6.892,-18.623 10.133,-14.952 4.216,4.771 7.063,11.55 6.977,26.841 -0.097,16.646 -0.781,18.857 -2.018,25.503 -6.096,0 -14.817,-4.024 -35.68,-3.926 -18.895,0.091 -23.302,2.642 -36.43,4.066 -11.716,1.271 -14.047,0.526 -15.938,-0.093 0.71,-2.219 4.15,-8.554 7.983,-21.889 7.136,-24.823 8.205,-54.82 5.502,-86.505 -0.83,-9.729 -7.076,-22.355 -11.999,-24.864 -3.886,-1.982 -11.062,-7.812 -7.727,-9.586 z m 766.096,-1.135 c 5.502,-2.928 20.011,-3.302 36.845,-0.723 18.086,2.77 32.531,7.188 40.015,10.719 5.866,2.771 -8.454,3.585 -15.172,6.173 -6.714,2.588 -11.952,12.469 -16.075,33.452 -5.736,29.203 -5.453,49.225 -5.214,66.799 9.093,0.242 11.328,3.07 20.612,1.763 9.091,-1.278 13.976,-6.124 18.186,-12.779 2.986,-4.726 6.892,-18.622 10.134,-14.952 4.216,4.771 7.063,11.551 6.977,26.84 -0.098,16.646 -0.781,18.856 -2.02,25.504 -6.096,0 -14.817,-4.026 -35.678,-3.926 -18.895,0.09 -23.302,2.641 -36.431,4.064 -11.716,1.271 -14.049,0.527 -15.939,-0.092 0.709,-2.219 4.152,-8.553 7.984,-21.889 7.137,-24.823 8.206,-54.819 5.502,-86.504 -0.83,-9.729 -7.075,-22.354 -11.999,-24.864 -3.887,-1.981 -11.061,-7.811 -7.727,-9.585 z M 624.141,548.83 c -2.358,12.607 -1.85,23.572 -1.753,31.25 0.102,8.025 3.708,14.727 10.718,19.791 7.036,5.084 18.07,6.672 25.688,-0.406 7.618,-7.078 9.646,-16.242 10.055,-28.459 0.421,-12.577 0.982,-20.07 -2.063,-30.354 -3.045,-10.284 -6.131,-13.714 -9.277,-16.234 -3.147,-2.52 -10.492,-3.976 -18.647,-0.253 -8.95,4.084 -12.483,12.7 -14.721,24.665 l 0,0 z m 13.798,-52.655 c 9.088,-0.937 13.68,0.652 18.446,2.653 4.768,2.001 10.127,4.825 15.103,11.043 4.974,6.218 7.341,10.257 10.348,19.396 3.251,9.892 4.905,15.511 5.204,32.305 0.313,17.567 -0.611,25.562 -4.166,40.016 -3.786,15.403 -8.922,23.881 -21.859,30.603 -6.16,3.199 -15.376,4.731 -29.978,4.261 -9.828,-0.317 -16.732,-3.994 -24.419,-11.73 -5.104,-5.139 -10.322,-15.934 -11.146,-20.584 -2.021,-11.432 -2.852,-22.194 -2.171,-40.395 0.525,-14.109 2.506,-24.539 5.812,-33.82 3.067,-8.613 7.367,-15.796 15.57,-23.465 8.228,-7.694 14.169,-9.346 23.256,-10.283 z m 49.534,8.941 c 2.238,-0.528 5.227,2.768 29.715,-3.773 23.816,-6.36 36.34,-7.483 32.529,-2.351 -4.867,6.559 -10.35,12.524 -12.113,22.501 -4.891,27.64 -4.889,60.339 8.931,83.565 3.321,5.582 10.858,7.7 15.89,3.481 5.03,-4.219 8.706,-12.521 6.879,-58.896 -1.563,-39.706 -4.71,-52.821 -10.502,-58.308 -3.702,-3.507 -10.452,-10.269 -9.028,-11.688 4.688,-4.678 23.836,-3.271 32.992,-1.256 8.29,1.823 16.738,1.163 24.78,2.291 -4.783,2.804 -7.582,5.563 -9.587,13.639 -2.465,9.923 -4.48,18.643 -5.128,42.025 -0.619,22.443 -0.881,42.136 -2.284,56.887 -1.269,13.318 -4.564,26.751 -13.095,34.855 -7.562,7.188 -25.882,13.163 -36.498,8.903 -10.281,-4.126 -17.595,-16.183 -22.774,-45.227 -6.561,-36.782 -9.433,-49.95 -15.908,-66.898 -2.091,-5.46 -9.738,-13.252 -14.799,-19.75 z m 169.056,21.728 c -2.271,10.466 -2.625,19.416 -3.21,34.395 -0.33,8.437 -1.119,21.914 0.791,29.799 2.921,12.062 7.747,18.283 12.646,18.361 11.281,0.182 20.335,-14.562 23.815,-23.906 3.467,-9.311 0.89,-37.506 -4.648,-52.771 -5.64,-15.551 -27.235,-15.823 -29.394,-5.878 z m -45.911,-37.241 c 2.943,-7.023 27.346,-0.352 34.966,1.331 7.929,1.752 17.986,4.882 30.881,9.649 16.018,5.924 24.158,13.099 30.432,25.517 14.868,29.434 7.525,62.08 -5.545,79.163 -16.224,21.205 -31.63,26.188 -48.453,28.094 -12.422,1.404 -24.846,3.331 -37.268,5.521 -8.99,1.584 -6.076,-4.502 -1.563,-7.72 5.634,-4.019 10.717,-9.381 14.232,-25.303 1.549,-7.011 0.508,-31.974 0.508,-47.825 0,-18.395 0.774,-34.308 -6.562,-50.025 -7.333,-15.722 -12.166,-17.118 -11.628,-18.402 z m 267.562,39.105 c -2.271,10.465 -2.623,19.417 -3.209,34.393 -0.33,8.438 -1.119,21.913 0.789,29.799 2.922,12.063 7.748,18.281 12.646,18.36 11.282,0.185 20.335,-14.56 23.815,-23.903 3.47,-9.312 0.891,-37.509 -4.646,-52.771 -5.639,-15.551 -27.236,-15.823 -29.395,-5.878 z m -45.91,-37.241 c 2.943,-7.024 27.347,-0.353 34.966,1.331 7.929,1.751 17.987,4.88 30.882,9.649 16.02,5.923 24.158,13.099 30.434,25.516 14.866,29.432 7.523,62.08 -5.547,79.164 -16.224,21.203 -31.631,26.186 -48.453,28.09 -12.422,1.406 -24.845,3.333 -37.268,5.522 -8.99,1.584 -6.076,-4.503 -1.562,-7.72 5.636,-4.02 10.72,-9.383 14.232,-25.303 1.549,-7.012 0.509,-31.973 0.509,-47.826 0,-18.394 0.772,-34.307 -6.561,-50.024 -7.338,-15.719 -12.172,-17.116 -11.632,-18.399 z m -23.732,-1.856 c 5.803,-4.449 8.53,-4.734 11.023,-4.65 -0.74,4.172 -5.066,10.595 -2.502,19.771 2.627,9.39 1.711,15.567 -0.663,24.11 -2.873,-1.94 -3.164,-6.481 -9.56,-10.391 -7.855,-4.803 -18.609,-7.063 -27.01,-4.86 -10.519,2.759 -16.698,10.165 -14.884,16.366 2.478,8.458 9.734,12.289 21.527,14.781 8.307,1.757 21.424,6.362 28.469,13.591 8.23,8.446 10.584,19.587 9.486,33.396 -1.06,13.323 -2.546,21.875 -11.289,34.095 -7.666,10.713 -16.758,13.744 -31.94,13.914 -8.579,0.097 -16.261,-1.73 -23.726,-9.193 -9.486,-9.481 -7.828,-16.391 -16.846,-31.139 -4.283,-7.006 -11.654,-8.226 -13.143,-14.425 5.858,-1.146 12.021,-3.104 30.621,-3.569 18.6,0.425 18.403,1.561 13.131,8.621 -5.736,7.681 -6.586,14.1 -2.662,18.627 3.389,3.91 11.118,5.199 17.106,2.238 5.014,-2.479 11.57,-9.65 11.752,-22.212 0.188,-13.466 -8.112,-16.854 -25.73,-23.104 -16.054,-5.693 -26.391,-11.682 -30.287,-21.281 -4.529,-11.162 -3.599,-28.489 4.065,-39.943 9.917,-14.823 22.402,-17.654 33.17,-16.473 14.08,1.546 12.585,5.079 17.551,6.11 3.463,0.72 6.748,-0.092 12.341,-4.38 z M 1189.62,591.52 c -4.048,0.104 -9.682,1.305 -10.689,2.373 -0.563,0.601 -1.541,2.007 -1.302,6.154 0.303,5.251 0.723,10.774 4.981,16.697 3.769,5.234 5.295,6.186 6.548,7.244 0.674,0.566 0.646,1.438 0.301,2.236 -0.299,0.691 -2.055,1.329 -4.288,1.73 -2.819,0.507 -16.371,1.15 -24.009,0.589 -15.552,-1.145 -19.634,-3.018 -22.519,-4.585 -0.617,-0.336 -1.271,-5.711 4.167,-12.665 5.585,-7.142 10.343,-11.062 13.702,-19.106 3.383,-8.104 8.322,-21.168 10.742,-31.438 4.008,-17.019 5.812,-29.574 5.622,-38.231 -0.174,-8.02 -1.942,-9.274 -5.847,-12.265 -3.052,-2.338 -7.118,-3.502 -9.428,-4.551 -2.247,-1.021 -3.886,-2.605 -3.516,-3.102 1.007,-1.34 3.206,-3.664 11.473,-3.691 9.974,-0.036 16.605,-0.361 29.463,-5.979 11.533,-5.04 14.826,-4.445 16.302,-2.53 1.551,2.017 3.188,11.712 4.241,25.779 1.356,18.127 3.724,36.466 6.329,53.486 2.91,19.008 6.613,36.628 14.52,53.469 3.324,7.083 8.667,12.098 12.871,18.098 0.591,0.841 0.181,2.062 -0.722,2.354 -3.424,1.11 -11.088,0.017 -15.059,-0.243 -10.286,-0.674 -16.663,0.283 -26.65,2.428 -3.439,0.739 -8.709,2.604 -9.915,3.062 -1.086,0.412 -3.789,0.877 -4.447,0.445 -1.748,-1.146 0.518,-4.274 1.016,-4.985 1.391,-1.981 2.221,-3.024 5.283,-7.571 3.062,-4.548 7.354,-12.68 7.316,-24.082 -0.023,-8.488 -0.871,-16.584 -1.75,-20.387 -5.065,-0.819 -8.608,-0.888 -14.736,-0.733 z m 9.956,-56.645 c -3.78,1.121 -8.529,8.758 -11.588,19.413 -3.648,12.719 -5.651,20.852 -5.651,20.852 0.437,0 5.938,-0.009 9.979,-0.102 4.456,-0.101 8.471,-0.385 10.231,-0.662 -0.873,-13.804 -2.234,-26.756 -2.971,-39.501 l 0,0 z m 259.492,-38.283 c 1.59,0.977 3.188,7.771 4.951,25.392 2.168,21.672 0.396,26.062 -1.05,27.007 -0.791,0.517 -2.37,-3.335 -6.628,-8.445 -3.654,-4.383 -8.26,-6.336 -15.966,-9.258 -8.839,-3.354 -31.336,-7.384 -40.25,-6.102 0.562,2.207 1.172,7.188 1.479,15.407 0.188,5.028 0.321,13.784 0.489,16.063 7.201,1.72 15.729,-0.066 20.157,-1.707 7.899,-2.926 9.427,-7.934 10.854,-6.996 1.627,1.065 3.396,7.331 0.771,16.608 -3.098,10.939 1.517,19.089 0.889,21.581 -0.459,1.826 -7.79,-4.588 -13.646,-5.801 -8.694,-1.801 -17.713,-1.021 -19.751,-1.021 -1.133,10.427 -1.591,25.771 -6.491,37.289 4.712,1.362 13.948,1.111 29.979,0.138 12.98,-0.79 23.467,-13.036 27.322,-19.255 3.299,-5.316 7.419,-8.233 8.182,-6.591 2.19,4.728 1.283,14.267 0.467,21.312 -0.815,7.045 -3.006,17.932 0.717,26.633 -9.483,1.248 -16.668,1.645 -47.718,-0.293 -24.632,-1.535 -37.215,-1.617 -45.313,-0.296 -5.563,0.907 -8.341,0.163 -7.741,-1.255 3.563,-8.404 12.053,-23.564 15.452,-47.014 2.852,-19.654 1.777,-50.991 -3.588,-67.411 -0.819,-2.511 -4.172,-11.374 -12.873,-22.217 5.238,0 11.115,0.31 25.771,2.004 14.658,1.692 20.523,2.372 38.021,3.982 17.496,1.612 22.55,-2.21 27.079,-5.135 2.637,-1.702 5.867,-6.191 8.435,-4.619 z"
   inkscape:connector-curvature="0" />
					</defs>
					<linearGradient
   id="SVGID_6_"
   gradientUnits="userSpaceOnUse"
   x1="376.92899"
   y1="562.98053"
   x2="1465.0315"
   y2="562.98053">
						<stop
   offset="0"
   style="stop-color:#FFFFFF"
   id="stop54" />
						<stop
   offset="0.6179"
   style="stop-color:#FCFCFC"
   id="stop56" />
						<stop
   offset="1"
   style="stop-color:#F5F5F5"
   id="stop58" />
					</linearGradient>
					<use
   xlink:href="#SVGID_5_"
   overflow="visible"
   id="use60"
   style="fill:url(#SVGID_6_);overflow:visible"
   x="0"
   y="0"
   width="1154.251"
   height="181.125" />
					<clipPath
   id="SVGID_7_">
						<use
   xlink:href="#SVGID_5_"
   overflow="visible"
   id="use63"
   style="overflow:visible"
   x="0"
   y="0"
   width="1154.251"
   height="181.125" />
					</clipPath>
					
						<linearGradient
   id="blue_1_"
   gradientUnits="userSpaceOnUse"
   x1="354.85721"
   y1="-1.3594"
   x2="354.85721"
   y2="179.7661"
   gradientTransform="translate(564.1406,473.0547)">
						<stop
   offset="0"
   style="stop-color:#FFFFFF"
   id="stop66" />
						<stop
   offset="0.6179"
   style="stop-color:#FCFCFC"
   id="stop68" />
						<stop
   offset="1"
   style="stop-color:#F5F5F5"
   id="stop70" />
					</linearGradient>
					
						<rect
   id="blue_4_"
   x="341.87201"
   y="471.69501"
   clip-path="url(#SVGID_7_)"
   width="1154.251"
   height="181.125"
   style="fill:url(#blue_1_)" />
				</g>
			</g>
		</g>
	</g>
	<g
   id="cel_outline">
		<g
   id="g4664_2_"
   transform="matrix(1,0,0,-1,0,6552)">
			<path
   d="m 437.452,5909.809 c -2.971,0 -6.112,0.146 -9.338,0.438 -9.939,0.893 -19.171,2.509 -31.495,13.318 -11.387,9.988 -17.602,25.182 -19.296,31.816 -1.341,5.252 -4.131,16.182 -3.879,31.945 0.242,15.144 2.708,27.733 14.235,43.699 10.063,13.938 20.554,22.146 32.064,25.097 4.414,1.13 9.273,1.728 14.053,1.728 4.503,0 8.608,-0.521 11.562,-1.465 4.348,-1.394 7.869,-2.1 10.469,-2.1 l 0,0 c 2.042,0 3.426,0.43 4.111,1.273 2.648,3.262 8.217,8.78 12.274,8.78 1.402,0 2.659,-0.615 3.449,-1.687 2.679,-3.635 1.931,-7.397 0.689,-13.633 -0.873,-4.396 -2.069,-10.416 -2.849,-19.375 -1.842,-21.19 -4.727,-25.338 -9.087,-25.338 -0.464,0 -0.927,0.068 -1.376,0.209 -3.211,0.992 -4.193,3.183 -4.981,4.939 -0.671,1.494 -1.506,3.354 -4.268,6.002 -5.337,5.121 -11.078,8.316 -16.168,8.998 -1.538,0.207 -3.031,0.312 -4.438,0.312 -7.699,0 -14.293,-3.106 -20.748,-9.778 -7.615,-7.869 -7.615,-22.666 -7.615,-29.776 0,-7.205 2.697,-17.103 6.711,-24.627 4.643,-8.701 10.529,-14.795 16.576,-17.158 9.054,-3.541 17.811,-4.101 25.124,-1.521 6.646,2.345 8.034,4.396 9.954,7.235 0.641,0.945 1.365,2.019 2.306,3.129 0.641,0.756 1.258,1.535 1.854,2.287 2.131,2.688 3.973,5.013 6.312,5.888 0.741,0.276 1.343,0.399 1.948,0.399 1.272,0 2.413,-0.578 3.13,-1.586 1.244,-1.748 0.62,-3.541 -0.103,-5.619 -1.108,-3.188 -3.173,-9.127 -3.116,-19.235 0.016,-2.91 0.098,-5.502 0.17,-7.787 0.232,-7.356 0.373,-11.799 -2.278,-14.537 -1.296,-1.34 -3.056,-2.019 -5.229,-2.019 -1.687,0 -3.748,0.406 -6.488,1.283 -2.202,0.703 -4.849,0.371 -8.854,-0.233 -3.857,-0.578 -8.656,-1.301 -15.385,-1.301 z m -3.655,141.041 c -4.202,0 -8.46,-0.521 -12.313,-1.508 -9.861,-2.525 -19.062,-9.856 -28.128,-22.414 -10.454,-14.478 -12.691,-25.93 -12.912,-39.713 -0.236,-14.828 2.396,-25.145 3.663,-30.102 1.214,-4.753 6.657,-19.102 17.13,-28.288 10.775,-9.453 18.196,-10.774 27.504,-11.608 3.02,-0.271 5.95,-0.408 8.712,-0.408 6.204,0 10.717,0.682 14.343,1.229 2.583,0.391 4.813,0.727 6.985,0.727 1.821,0 3.472,-0.242 5.041,-0.744 1.977,-0.631 3.441,-0.951 4.356,-0.951 0.104,0 0.186,0 0.248,0.01 0.521,1.248 0.385,5.524 0.264,9.321 -0.073,2.33 -0.156,4.97 -0.174,7.972 -0.023,4.479 0.338,8.271 0.856,11.426 -0.128,-0.188 -0.257,-0.379 -0.387,-0.57 -2.264,-3.346 -4.604,-6.805 -13.426,-9.916 -8.902,-3.141 -19.366,-2.557 -30,1.604 -7.601,2.972 -14.775,10.209 -20.202,20.383 -4.578,8.58 -7.535,19.541 -7.535,27.922 0,8.029 0,24.74 9.585,34.646 7.756,8.015 16.188,11.91 25.779,11.91 1.716,0 3.521,-0.125 5.367,-0.373 8.396,-1.125 15.557,-6.539 20.084,-10.883 3.121,-2.994 4.503,-5.414 5.353,-7.196 0.731,2.535 1.72,7.471 2.541,16.938 0.812,9.342 2.051,15.58 2.957,20.133 0.536,2.695 0.868,4.48 0.962,5.725 -1.387,-1.037 -3.236,-2.694 -5.079,-4.963 -2.081,-2.562 -5.292,-3.858 -9.544,-3.858 l 0,0 c -3.372,0 -7.495,0.795 -12.604,2.433 -2.214,0.693 -5.738,1.116 -9.426,1.116 z"
   id="path75"
   inkscape:connector-curvature="0"
   style="fill:#efefef" />
		</g>
		<g
   id="g4_26_"
   transform="matrix(1,0,0,-1,0,6552)">
			<path
   d="m 500.551,5908.029 c -3.649,0 -5.34,0.453 -6.889,0.961 l -3.305,1.08 1.061,3.312 c 0.24,0.752 0.628,1.646 1.214,3.001 1.489,3.438 3.981,9.196 6.739,18.788 6.474,22.516 8.282,51.195 5.378,85.241 -0.803,9.408 -6.862,20.394 -10.102,22.043 -0.104,0.054 -10.445,5.584 -10.496,11.354 -0.017,1.867 0.999,3.524 2.715,4.438 4.438,2.359 12.111,2.855 17.77,2.855 6.368,0 13.716,-0.609 21.251,-1.765 19.262,-2.951 33.796,-7.624 40.977,-11.015 3.078,-1.453 3.525,-3.44 3.358,-4.853 -0.419,-3.55 -4.245,-4.351 -10.583,-5.672 -2.85,-0.597 -6.078,-1.271 -8.182,-2.08 -5.627,-2.168 -10.304,-12.552 -13.899,-30.86 -5.319,-27.078 -5.399,-46.164 -5.191,-62.84 2.415,-0.248 4.336,-0.654 6.092,-1.027 2.18,-0.463 4.062,-0.861 6.52,-0.861 1.251,0 2.578,0.103 4.058,0.311 7.873,1.107 11.977,5.271 15.715,11.188 0.769,1.215 1.75,3.477 2.699,5.662 2.796,6.44 5.004,11.528 9.256,11.528 1.403,0 2.739,-0.638 3.76,-1.794 5.66,-6.407 7.936,-14.859 7.854,-29.18 -0.091,-15.629 -0.694,-18.818 -1.793,-24.609 l -0.815,-4.371 h -2.91 c -2.47,0 -5.091,0.523 -8.41,1.188 -5.781,1.155 -13.7,2.738 -26.502,2.738 l -0.75,0 c -12.03,-0.059 -18.007,-1.132 -24.335,-2.27 -3.469,-0.625 -7.056,-1.271 -11.734,-1.776 -4.442,-0.478 -7.883,-0.713 -10.521,-0.713 z m -0.875,7.012 c 0.271,-0.01 0.562,-0.012 0.875,-0.012 2.385,0 5.577,0.222 9.762,0.676 4.438,0.479 7.901,1.104 11.252,1.707 6.635,1.19 12.902,2.317 25.539,2.379 l 0.783,0 c 13.495,0 22.147,-1.729 27.875,-2.875 1.565,-0.313 2.958,-0.592 4.186,-0.783 0.831,4.525 1.292,8.297 1.37,21.754 0.075,12.979 -2.03,18.912 -4.626,22.641 -0.941,-1.697 -2.06,-4.27 -2.821,-6.025 -1.104,-2.543 -2.146,-4.942 -3.203,-6.617 -3.938,-6.225 -9.47,-12.801 -20.654,-14.375 -1.806,-0.254 -3.451,-0.379 -5.033,-0.379 -3.192,0 -5.622,0.518 -7.973,1.017 -2.314,0.491 -4.709,1 -8.188,1.092 l -3.361,0.09 -0.046,3.36 c -0.243,17.857 -0.519,38.006 5.28,67.521 4.264,21.707 9.895,32.823 18.252,36.044 2.473,0.953 5.729,1.659 8.689,2.278 -7.59,2.724 -18.856,5.75 -32.803,7.889 -7.189,1.102 -14.173,1.684 -20.191,1.684 -6.488,0 -10.291,-0.647 -12.431,-1.258 1.349,-1.363 3.646,-3.146 5.622,-4.154 6.679,-3.404 13.062,-17.93 13.896,-27.686 2.977,-34.899 1.084,-64.43 -5.625,-87.77 -2.514,-8.742 -4.895,-14.613 -6.426,-18.2 z"
   id="path78"
   inkscape:connector-curvature="0"
   style="fill:#efefef" />
		</g>
		<g
   id="g4_25_"
   transform="matrix(1,0,0,-1,0,6552)">
			<path
   d="m 1266.649,5909.166 c -3.652,0 -5.345,0.454 -6.892,0.961 l -3.307,1.081 1.061,3.312 c 0.241,0.752 0.629,1.646 1.215,3.002 1.49,3.438 3.984,9.194 6.74,18.787 6.476,22.521 8.284,51.197 5.379,85.24 -0.803,9.408 -6.862,20.396 -10.103,22.045 -0.104,0.054 -10.444,5.584 -10.494,11.354 -0.017,1.867 0.998,3.525 2.716,4.438 4.438,2.361 12.11,2.857 17.77,2.857 6.366,0 13.715,-0.609 21.25,-1.766 19.256,-2.949 33.793,-7.623 40.979,-11.014 3.077,-1.454 3.524,-3.439 3.357,-4.854 -0.42,-3.551 -4.246,-4.35 -10.587,-5.674 -2.849,-0.594 -6.076,-1.269 -8.181,-2.078 -5.624,-2.168 -10.302,-12.551 -13.897,-30.86 -5.319,-27.077 -5.398,-46.164 -5.19,-62.84 2.413,-0.247 4.334,-0.653 6.091,-1.026 2.18,-0.463 4.062,-0.862 6.521,-0.862 1.251,0 2.578,0.103 4.058,0.31 7.873,1.108 11.978,5.273 15.716,11.188 0.769,1.214 1.748,3.476 2.696,5.659 2.797,6.441 5.005,11.529 9.258,11.529 1.402,0 2.737,-0.636 3.76,-1.791 5.66,-6.408 7.937,-14.859 7.854,-29.179 -0.091,-15.638 -0.695,-18.828 -1.795,-24.621 l -0.814,-4.362 h -2.908 c -2.469,0 -5.091,0.524 -8.409,1.188 -5.781,1.155 -13.699,2.739 -26.5,2.739 l -0.75,0 c -12.031,-0.06 -18.011,-1.133 -24.339,-2.271 -3.468,-0.624 -7.053,-1.27 -11.73,-1.775 -4.445,-0.481 -7.887,-0.715 -10.525,-0.715 z m -0.878,7.011 c 0.271,-0.01 0.563,-0.011 0.878,-0.011 2.384,0 5.575,0.221 9.76,0.674 4.437,0.48 7.899,1.104 11.248,1.707 6.638,1.191 12.904,2.318 25.544,2.381 l 0.783,0 c 13.494,0 22.146,-1.73 27.873,-2.877 1.565,-0.313 2.958,-0.59 4.186,-0.781 0.832,4.523 1.293,8.297 1.37,21.754 0.075,12.979 -2.028,18.912 -4.625,22.641 -0.942,-1.696 -2.062,-4.271 -2.822,-6.026 -1.104,-2.543 -2.146,-4.942 -3.202,-6.614 -3.938,-6.226 -9.469,-12.801 -20.654,-14.377 -1.807,-0.254 -3.452,-0.377 -5.033,-0.377 -3.192,0 -5.624,0.518 -7.974,1.016 -2.314,0.492 -4.709,1 -8.188,1.092 l -3.361,0.09 -0.046,3.361 c -0.244,17.856 -0.521,38.006 5.278,67.521 4.267,21.705 9.895,32.821 18.252,36.043 2.473,0.953 5.729,1.658 8.69,2.278 -7.593,2.724 -18.86,5.75 -32.806,7.888 -7.188,1.103 -14.171,1.685 -20.188,1.685 -6.489,0 -10.291,-0.648 -12.432,-1.26 1.35,-1.361 3.646,-3.146 5.621,-4.152 6.681,-3.404 13.063,-17.932 13.896,-27.686 2.979,-34.896 1.086,-64.426 -5.626,-87.771 -2.507,-8.741 -4.888,-14.612 -6.422,-18.201 z"
   id="path81"
   inkscape:connector-curvature="0"
   style="fill:#efefef" />
		</g>
		<g
   id="g4_24_"
   transform="matrix(1,0,0,-1,0,6552)">
			<path
   d="m 636.027,5911.967 c -1.625,0 -3.342,0.027 -5.104,0.086 -10.354,0.334 -18.116,4.031 -26.789,12.762 -5.487,5.525 -11.11,16.795 -12.108,22.441 -2.263,12.793 -2.864,23.941 -2.223,41.135 0.512,13.703 2.422,24.782 6.014,34.863 3.534,9.924 8.463,17.354 16.479,24.848 8.737,8.168 15.37,10.182 25.285,11.205 1.896,0.195 3.702,0.294 5.369,0.294 6.616,0 10.771,-1.515 14.792,-3.202 5.073,-2.13 10.999,-5.23 16.479,-12.083 4.935,-6.169 7.685,-10.592 10.938,-20.492 3.325,-10.112 5.073,-16.188 5.38,-33.333 0.312,-17.454 -0.566,-25.866 -4.268,-40.914 -3.675,-14.948 -8.722,-25.12 -23.646,-32.872 -6.22,-3.232 -14.673,-4.738 -26.598,-4.738 z m 6.921,140.635 c -1.43,0 -2.993,-0.086 -4.65,-0.258 -8.719,-0.897 -13.852,-2.463 -21.225,-9.354 -7.239,-6.769 -11.487,-13.165 -14.665,-22.083 -3.39,-9.52 -5.121,-19.628 -5.61,-32.775 -0.711,-19.02 0.283,-29.272 2.12,-39.653 0.703,-3.978 5.647,-14.161 10.183,-18.728 7.376,-7.424 13.559,-10.424 22.048,-10.699 13.246,-0.43 22.39,0.821 28.25,3.867 11.237,5.838 16.304,12.985 20.075,28.332 3.568,14.514 4.367,22.189 4.064,39.117 -0.288,16.17 -1.836,21.558 -5.029,31.271 -2.896,8.805 -5.072,12.45 -9.755,18.307 -4.488,5.61 -9.248,8.123 -13.724,10.002 -3.584,1.502 -6.751,2.654 -12.082,2.654 z m 3.448,-108.34 h -0.002 c -5.322,0 -10.914,1.834 -15.339,5.03 -7.846,5.669 -12.053,13.479 -12.167,22.584 -0.011,0.829 -0.025,1.696 -0.042,2.603 -0.132,7.49 -0.313,17.75 1.854,29.336 2.08,11.119 5.543,22.109 16.708,27.205 3.74,1.709 7.559,2.574 11.346,2.574 4.352,0 8.341,-1.194 10.942,-3.277 4.031,-3.229 7.353,-7.521 10.445,-17.975 2.966,-10.012 2.703,-17.391 2.307,-28.559 l -0.102,-2.906 c -0.367,-11.004 -1.977,-22.362 -11.171,-30.904 -4.019,-3.739 -9.131,-5.711 -14.779,-5.711 z m 2.357,82.331 c -2.738,0 -5.656,-0.671 -8.438,-1.94 -6.763,-3.086 -10.332,-9.291 -12.732,-22.125 -2.037,-10.888 -1.863,-20.733 -1.736,-27.926 0.017,-0.916 0.032,-1.797 0.042,-2.638 0.087,-6.897 3.205,-12.617 9.269,-16.998 3.259,-2.354 7.354,-3.705 11.239,-3.705 h 0.002 c 2.685,0 6.603,0.666 10.017,3.839 6.912,6.421 8.572,15.042 8.938,26.012 l 0.103,2.92 c 0.387,10.854 0.619,17.406 -2.021,26.324 -2.865,9.681 -5.578,12.47 -8.108,14.496 -1.058,0.839 -3.338,1.741 -6.575,1.741 z"
   id="path84"
   inkscape:connector-curvature="0"
   style="fill:#efefef" />
		</g>
		<g
   id="g4_23_"
   transform="matrix(1,0,0,-1,0,6552)">
			<path
   d="m 749.347,5910.079 c -3.661,0 -6.924,0.563 -9.695,1.677 -12.368,4.963 -19.82,19.275 -24.918,47.859 -6.501,36.455 -9.354,49.576 -15.732,66.264 -1.264,3.305 -5.521,8.339 -9.281,12.781 -1.71,2.021 -3.479,4.108 -5.007,6.071 l -3.354,4.306 5.312,1.252 c 0.983,0.231 2.057,0.143 3.145,-0.01 0.87,-0.121 1.953,-0.271 3.675,-0.271 5.122,0 12.792,1.354 22.796,4.026 14.166,3.785 24.202,5.703 29.828,5.703 1.567,0 5.733,0 7.292,-3.098 0.508,-1.012 1.07,-3.1 -0.877,-5.725 -0.671,-0.902 -1.354,-1.797 -2.037,-2.689 -4.146,-5.428 -8.063,-10.553 -9.44,-18.334 -3.407,-19.256 -6.833,-55.406 8.493,-81.168 1.444,-2.43 4.09,-3.998 6.738,-3.998 1.47,0 2.778,0.475 3.895,1.408 3.671,3.08 7.438,10.207 5.631,56.078 -1.383,35.125 -4.021,50.799 -9.412,55.904 -10.265,9.723 -10.297,12.176 -10.314,13.643 -0.016,1.176 0.418,2.266 1.223,3.064 2.806,2.799 8.39,4.16 17.074,4.16 6.207,0 13.722,-0.771 19.143,-1.963 4.513,-0.994 9.271,-1.211 13.872,-1.422 3.49,-0.16 7.1,-0.326 10.643,-0.824 l 9.969,-1.396 -8.686,-5.088 c -3.724,-2.182 -6.116,-4.039 -7.959,-11.461 -2.248,-9.051 -4.371,-17.602 -5.024,-41.279 -0.115,-4.17 -0.219,-8.246 -0.318,-12.211 -0.443,-17.588 -0.826,-32.778 -1.98,-44.908 -1.66,-17.457 -6.295,-29.58 -14.167,-37.063 -6.785,-6.435 -19.904,-11.29 -30.528,-11.29 z m -54.172,132.97 c 4.284,-5.064 8.689,-10.291 10.363,-14.67 6.583,-17.225 9.493,-30.573 16.085,-67.535 4.561,-25.559 10.923,-38.695 20.634,-42.592 1.939,-0.777 4.325,-1.173 7.089,-1.173 9.784,0 20.955,4.86 25.693,9.365 6.595,6.269 10.526,16.948 12.021,32.651 1.132,11.888 1.513,26.965 1.952,44.422 0.102,3.973 0.203,8.053 0.319,12.229 0.675,24.438 2.887,33.344 5.229,42.773 1.114,4.485 2.514,7.605 4.309,10.006 -0.595,0.027 -1.194,0.057 -1.8,0.084 -4.896,0.224 -9.958,0.457 -15.056,1.578 -3.773,0.83 -10.658,1.799 -17.639,1.799 -5.583,0 -8.682,-0.625 -10.35,-1.197 1.147,-1.486 3.354,-3.961 7.183,-7.586 6.199,-5.873 9.883,-17.287 11.592,-60.711 1.771,-44.924 -1.349,-56.029 -8.127,-61.717 -2.375,-1.992 -5.276,-3.045 -8.393,-3.045 -5.146,0 -10.032,2.844 -12.754,7.42 -16.483,27.707 -12.946,65.754 -9.37,85.965 1.673,9.459 6.299,15.512 10.771,21.365 0.062,0.08 0.121,0.158 0.183,0.236 -3.854,-0.168 -11.583,-1.318 -27.02,-5.441 -9.737,-2.6 -17.263,-3.989 -22.914,-4.226 z"
   id="path87"
   inkscape:connector-curvature="0"
   style="fill:#efefef" />
		</g>
		<g
   id="g4_22_"
   transform="matrix(1,0,0,-1,0,6552)">
			<path
   d="m 813.047,5909.366 c -4.758,0 -6.144,2.726 -6.519,3.896 -1.172,3.658 1.922,7.875 5.507,10.434 4.639,3.309 9.45,7.82 12.849,23.207 1.025,4.646 0.794,19.254 0.591,32.145 -0.086,5.379 -0.166,10.459 -0.166,14.929 0,1.626 0.006,3.233 0.012,4.821 0.062,16.15 0.113,30.101 -6.244,43.724 -4.694,10.063 -8.223,13.869 -9.919,15.696 -1.121,1.209 -2.812,3.035 -1.768,5.535 2.222,5.299 9.453,5.299 11.829,5.299 7.686,0 18.012,-2.433 24.182,-3.885 1.139,-0.269 2.134,-0.502 2.938,-0.682 8.166,-1.805 18.417,-5.004 31.34,-9.784 16.452,-6.085 25.521,-13.717 32.343,-27.222 15.015,-29.725 8.402,-64.188 -5.89,-82.869 -16.466,-21.521 -32.23,-27.334 -50.839,-29.44 -11.102,-1.257 -23.222,-3.054 -37.055,-5.491 -1.174,-0.206 -2.247,-0.313 -3.191,-0.313 z m 2.394,152.34 c 2.175,-2.476 5.688,-7.032 9.979,-16.229 7.019,-15.041 6.961,-30.424 6.899,-46.709 -0.007,-1.58 -0.013,-3.179 -0.013,-4.795 0,-4.414 0.08,-9.467 0.165,-14.816 0.23,-14.562 0.449,-28.316 -0.754,-33.766 -3.537,-16.018 -8.803,-22.537 -15.619,-27.396 -0.702,-0.502 -1.278,-1.035 -1.726,-1.524 0.207,0.027 0.424,0.063 0.649,0.104 13.976,2.463 26.234,4.277 37.48,5.552 17.311,1.962 31.055,7.119 46.066,26.741 12.966,16.945 18.916,48.309 5.2,75.458 -6.006,11.892 -13.735,18.345 -28.521,23.813 -12.62,4.666 -22.571,7.777 -30.422,9.514 -0.831,0.184 -1.857,0.425 -3.034,0.702 -5.873,1.383 -15.704,3.698 -22.575,3.698 -1.753,-0.01 -2.958,-0.158 -3.774,-0.347 z m 51.523,-122.604 c -0.001,0 0,0 0,0 l -0.264,0 c -7.055,0.113 -12.734,7.584 -15.993,21.037 -1.851,7.646 -1.35,19.604 -0.984,28.34 l 0.1,2.42 c 0.59,15.102 0.945,24.213 3.287,35 1.255,5.783 6.948,9.521 14.505,9.521 8.054,0 17.854,-4.621 21.601,-14.944 5.428,-14.959 8.652,-44.408 4.64,-55.186 -3.626,-9.73 -13.367,-26.19 -26.892,-26.19 z m 0.65,89.316 c -3.382,0 -7.063,-1.238 -7.665,-4.004 -2.211,-10.188 -2.559,-19.068 -3.133,-33.787 l -0.101,-2.439 c -0.328,-7.85 -0.823,-19.713 0.795,-26.397 2.595,-10.716 6.641,-15.644 9.302,-15.687 l 0.15,0 c 9.005,0 17.091,12.938 20.33,21.631 3.156,8.479 0.631,35.771 -4.66,50.354 -2.587,7.138 -9.407,10.331 -15.018,10.331 z"
   id="path90"
   inkscape:connector-curvature="0"
   style="fill:#efefef" />
		</g>
		<g
   id="g4_21_"
   transform="matrix(1,0,0,-1,0,6552)">
			<path
   d="m 1034.698,5907.502 c -4.759,0 -6.145,2.727 -6.52,3.896 -1.171,3.66 1.923,7.877 5.509,10.432 4.638,3.309 9.45,7.824 12.847,23.206 1.026,4.647 0.797,19.258 0.593,32.147 -0.087,5.377 -0.166,10.455 -0.166,14.924 0,1.623 0.01,3.229 0.012,4.814 0.062,16.152 0.113,30.104 -6.243,43.729 -4.695,10.063 -8.225,13.869 -9.921,15.697 -1.12,1.208 -2.813,3.035 -1.767,5.536 2.221,5.298 9.452,5.298 11.829,5.298 7.688,0 18.015,-2.432 24.186,-3.885 1.138,-0.268 2.13,-0.502 2.935,-0.68 8.165,-1.806 18.417,-5.004 31.342,-9.785 16.449,-6.082 25.519,-13.715 32.343,-27.221 15.016,-29.727 8.401,-64.188 -5.893,-82.87 -16.466,-21.521 -32.231,-27.335 -50.839,-29.438 -11.09,-1.256 -23.208,-3.054 -37.054,-5.492 -1.174,-0.203 -2.248,-0.308 -3.193,-0.308 z m 2.394,152.34 c 2.176,-2.477 5.688,-7.032 9.979,-16.229 7.02,-15.045 6.961,-30.431 6.898,-46.717 -0.01,-1.578 -0.013,-3.174 -0.013,-4.789 0,-4.412 0.08,-9.465 0.166,-14.813 0.229,-14.563 0.447,-28.319 -0.756,-33.771 -3.535,-16.017 -8.802,-22.535 -15.619,-27.396 -0.702,-0.502 -1.279,-1.035 -1.726,-1.524 0.207,0.027 0.424,0.062 0.648,0.104 13.986,2.465 26.247,4.281 37.479,5.553 17.311,1.961 31.053,7.117 46.067,26.739 12.966,16.946 18.916,48.31 5.201,75.459 -6.01,11.892 -13.738,18.345 -28.521,23.812 -12.621,4.668 -22.573,7.78 -30.423,9.516 -0.83,0.184 -1.855,0.424 -3.028,0.701 -5.875,1.384 -15.707,3.699 -22.579,3.699 -1.752,0 -2.958,-0.157 -3.773,-0.344 z m 51.523,-122.606 c -10e-4,0 -10e-4,0 0,0 l -0.265,0 c -7.056,0.113 -12.733,7.586 -15.991,21.039 -1.852,7.64 -1.351,19.596 -0.984,28.326 l 0.101,2.432 c 0.591,15.104 0.947,24.221 3.285,34.999 1.256,5.784 6.95,9.521 14.507,9.521 8.054,0 17.854,-4.621 21.602,-14.942 5.429,-14.963 8.65,-44.414 4.638,-55.188 -3.625,-9.728 -13.365,-26.189 -26.891,-26.189 z m 0.651,89.319 c -3.383,0 -7.064,-1.237 -7.666,-4.006 -2.208,-10.179 -2.557,-19.062 -3.132,-33.787 l -0.102,-2.449 c -0.327,-7.848 -0.823,-19.705 0.794,-26.387 2.597,-10.717 6.643,-15.645 9.304,-15.688 l 0.15,0 c 9.003,0 17.09,12.936 20.328,21.629 3.157,8.476 0.634,35.771 -4.657,50.355 -2.589,7.139 -9.41,10.335 -15.019,10.335 z"
   id="path93"
   inkscape:connector-curvature="0"
   style="fill:#efefef" />
		</g>
		<g
   id="g4_20_"
   transform="matrix(1,0,0,-1,0,6552)">
			<path
   d="m 980.569,5908.76 c -10.613,0 -18.499,3.152 -25.57,10.223 -5.937,5.936 -7.91,11.002 -10.197,16.869 -1.618,4.15 -3.452,8.856 -7.158,14.92 -1.636,2.676 -3.938,4.42 -6.166,6.107 -3.098,2.348 -6.302,4.775 -7.394,9.325 l -0.852,3.551 3.582,0.7 c 0.87,0.171 1.748,0.359 2.674,0.559 5.246,1.127 12.435,2.672 28.531,3.076 l 0.084,0 0.084,0 c 12.459,-0.285 17.336,-0.738 19.131,-4.422 1.594,-3.272 -0.771,-6.439 -3.275,-9.793 -3.2,-4.287 -6.29,-10.236 -2.82,-14.24 1.396,-1.611 4.265,-2.653 7.306,-2.653 1.998,0 3.938,0.438 5.604,1.263 4.428,2.188 9.651,8.512 9.804,19.123 0.153,10.849 -5.895,13.547 -23.399,19.756 -13.903,4.932 -27.447,11.162 -32.359,23.264 -5.275,12.998 -3.384,31.573 4.397,43.208 8.108,12.12 18.806,18.265 31.789,18.265 1.522,0 3.096,-0.088 4.673,-0.261 10.025,-1.101 13.128,-3.304 15.393,-4.912 0.971,-0.69 1.458,-1.036 2.487,-1.25 0.515,-0.106 0.982,-0.158 1.438,-0.158 l 0,0 c 1.388,0 3.559,0.442 8.06,3.894 5.826,4.467 9.229,5.383 12.543,5.383 0.246,0 0.487,-0.01 0.729,-0.014 l 4.034,-0.137 -0.706,-3.976 c -0.244,-1.375 -0.746,-2.797 -1.278,-4.304 -1.354,-3.847 -2.895,-8.205 -1.299,-13.912 2.767,-9.892 1.9,-16.767 -0.663,-25.992 l -1.303,-4.688 -4.029,2.725 c -1.741,1.18 -2.75,2.785 -3.725,4.34 -1.239,1.979 -2.521,4.022 -5.699,5.965 -5.318,3.252 -12.125,5.192 -18.205,5.192 -2.188,0 -4.236,-0.247 -6.091,-0.731 -5.391,-1.414 -9.754,-4.285 -11.673,-7.679 -0.604,-1.065 -1.221,-2.679 -0.739,-4.319 1.875,-6.402 7.173,-9.862 18.894,-12.34 9.326,-1.973 22.845,-6.973 30.251,-14.571 8.414,-8.633 11.739,-20.108 10.471,-36.117 -1.035,-13.033 -2.427,-22.567 -11.934,-35.854 -9.005,-12.58 -19.972,-15.211 -34.748,-15.377 l -0.677,-0.01 z m -47.54,55.847 c 0.719,-0.654 1.607,-1.342 2.675,-2.149 2.487,-1.885 5.584,-4.231 7.911,-8.037 4.029,-6.592 5.983,-11.604 7.708,-16.028 2.164,-5.554 3.729,-9.563 8.625,-14.459 5.807,-5.806 11.78,-8.174 20.621,-8.174 l 0.591,0 c 15.242,0.17 22.595,3.313 29.134,12.451 8.476,11.846 9.677,20.117 10.646,32.334 1.101,13.85 -1.603,23.597 -8.505,30.68 -5.905,6.062 -17.657,10.699 -26.687,12.607 -10.076,2.129 -20.829,5.842 -24.163,17.224 -0.924,3.153 -0.45,6.521 1.364,9.731 2.874,5.08 8.702,9.09 15.991,11.002 2.433,0.639 5.078,0.961 7.865,0.961 7.424,0 15.391,-2.268 21.854,-6.221 2.85,-1.741 4.686,-3.607 6.012,-5.322 0.812,4.918 0.64,9.314 -0.983,15.114 -1.807,6.459 -0.64,11.802 0.638,15.774 -1.002,-0.572 -2.203,-1.373 -3.659,-2.49 -4.881,-3.74 -8.563,-5.336 -12.316,-5.336 l 0,0 c -0.938,0 -1.871,0.1 -2.857,0.304 -2.468,0.513 -3.876,1.515 -5.12,2.397 -1.729,1.229 -3.883,2.758 -12.103,3.66 -12.29,1.35 -22.338,-3.664 -29.879,-14.938 -7.255,-10.843 -7.594,-27.166 -3.73,-36.683 3.13,-7.711 11.305,-13.303 28.214,-19.299 17.036,-6.043 28.291,-10.033 28.062,-26.451 -0.197,-13.771 -7.504,-22.235 -13.701,-25.301 -2.628,-1.299 -5.64,-1.984 -8.708,-1.984 -5.136,0 -9.844,1.896 -12.595,5.068 -2.945,3.398 -6.537,10.908 2.503,23.016 0.395,0.523 1.097,1.467 1.646,2.29 -3.033,0.524 -9.242,0.673 -11.97,0.733 -13.434,-0.337 -20.115,-1.448 -25.084,-2.478 z"
   id="path96"
   inkscape:connector-curvature="0"
   style="fill:#efefef" />
		</g>
		<g
   id="g4_19_"
   transform="matrix(1,0,0,-1,0,6552)">
			<path
   d="m 1193.463,5899.052 c -1.193,0 -2.111,0.237 -2.888,0.746 -1.126,0.735 -1.886,1.87 -2.139,3.19 -0.484,2.528 1.006,5.021 2.168,6.676 0.448,0.642 0.813,1.146 1.196,1.684 0.91,1.268 1.941,2.705 4.088,5.891 4.484,6.658 6.745,14.101 6.721,22.115 -0.021,6.754 -0.577,13.236 -1.222,17.285 -3.485,0.426 -6.73,0.467 -11.682,0.345 -3.31,-0.084 -7.058,-0.924 -8.312,-1.446 -0.142,-0.354 -0.394,-1.306 -0.271,-3.381 0.271,-4.724 0.555,-9.605 4.329,-14.854 3.049,-4.234 4.383,-5.32 5.455,-6.191 0.177,-0.146 0.346,-0.283 0.511,-0.422 1.798,-1.52 2.278,-3.936 1.253,-6.303 -0.824,-1.91 -2.947,-3.078 -6.881,-3.785 -2.51,-0.451 -10.769,-0.861 -17.328,-0.861 -2.964,0 -5.506,0.076 -7.557,0.229 -15.723,1.155 -20.443,3.104 -23.933,5 -1.071,0.582 -1.766,1.603 -2.062,3.028 -0.626,3.023 0.344,8.73 5.143,14.867 1.623,2.074 3.144,3.847 4.611,5.558 3.586,4.176 6.418,7.476 8.617,12.744 1.771,4.24 7.764,19 10.564,30.894 3.854,16.362 5.714,28.93 5.529,37.354 -0.136,6.24 -0.857,6.793 -4.331,9.453 l -0.145,0.109 c -1.845,1.414 -4.373,2.396 -6.403,3.186 -0.845,0.328 -1.642,0.639 -2.343,0.957 -1.109,0.504 -4.785,2.361 -5.493,5.127 -0.296,1.146 -0.066,2.334 0.624,3.258 1.77,2.355 4.984,5.062 14.261,5.096 9.699,0.035 15.785,0.314 28.074,5.687 6.587,2.879 11.138,4.22 14.317,4.22 2.676,0 4.748,-0.929 6.157,-2.758 2.123,-2.763 3.791,-12.064 4.959,-27.654 1.19,-15.916 3.252,-33.324 6.299,-53.219 2.619,-17.112 6.156,-35.318 14.228,-52.512 2.001,-4.262 4.821,-7.734 7.811,-11.415 1.595,-1.964 3.243,-3.995 4.761,-6.159 0.915,-1.305 1.155,-2.997 0.644,-4.527 -0.504,-1.506 -1.683,-2.688 -3.15,-3.166 -1.386,-0.449 -3.127,-0.658 -5.479,-0.658 -2.625,0 -5.604,0.273 -7.999,0.494 -1.076,0.101 -2.062,0.189 -2.888,0.246 -2.109,0.138 -4.032,0.205 -5.878,0.205 -6.655,0 -11.895,-0.863 -19.812,-2.563 -3.043,-0.653 -7.962,-2.362 -9.408,-2.911 -1.075,-0.425 -3.097,-0.859 -4.716,-0.859 z m 0.549,64.995 c 4.091,0 7.147,-0.236 10.904,-0.842 l 2.323,-0.374 0.529,-2.293 c 0.867,-3.754 1.813,-11.979 1.841,-21.165 0.029,-9.439 -2.634,-18.204 -7.914,-26.047 -2.204,-3.271 -3.27,-4.753 -4.207,-6.061 -0.059,-0.082 -0.113,-0.16 -0.172,-0.239 2.229,0.78 5.993,2.022 8.805,2.626 10.479,2.25 17.147,3.186 27.615,2.498 0.876,-0.057 1.928,-0.152 3.071,-0.259 2.368,-0.218 5.054,-0.465 7.356,-0.465 0.094,0 0.187,0 0.273,10e-4 -0.798,1.023 -1.627,2.046 -2.48,3.1 -3.121,3.845 -6.349,7.816 -8.711,12.854 -8.448,17.996 -12.11,36.794 -14.812,54.427 -3.074,20.074 -5.154,37.658 -6.359,53.754 -1.229,16.408 -2.905,22.666 -3.521,23.88 -0.091,0.021 -0.28,0.059 -0.612,0.059 -1.46,0 -4.644,-0.631 -11.517,-3.633 -13.259,-5.795 -20.501,-6.235 -30.853,-6.272 -2.225,-0.01 -4.054,-0.19 -5.479,-0.543 0.299,-0.119 0.614,-0.241 0.941,-0.369 2.316,-0.899 5.489,-2.134 8.125,-4.153 l 0.143,-0.107 c 4.513,-3.454 6.876,-5.686 7.073,-14.857 0.199,-9.141 -1.67,-21.934 -5.714,-39.109 -2.925,-12.413 -9.099,-27.62 -10.921,-31.984 -2.626,-6.291 -6.094,-10.33 -9.766,-14.604 -1.418,-1.651 -2.886,-3.36 -4.409,-5.312 -2.999,-3.836 -3.666,-6.756 -3.793,-8.178 2.467,-1.127 7.054,-2.5 19.644,-3.426 1.881,-0.139 4.25,-0.209 7.043,-0.209 7.048,0 14.197,0.438 16.009,0.736 -1.136,1.137 -2.617,2.848 -4.698,5.737 -4.966,6.901 -5.337,13.354 -5.637,18.541 -0.235,4.097 0.479,6.879 2.249,8.756 2.517,2.67 11.013,3.416 13.147,3.472 1.658,0.034 3.122,0.06 4.484,0.06 z m -11.675,9.314 h -4.468 l 1.067,4.336 c 0.021,0.082 2.062,8.345 5.688,20.979 2.679,9.334 7.752,19.963 13.957,21.805 l 4.233,1.254 0.255,-4.408 c 0.381,-6.602 0.923,-13.16 1.496,-20.104 0.518,-6.263 1.053,-12.735 1.473,-19.379 l 0.201,-3.185 -3.149,-0.494 c -2.05,-0.324 -6.351,-0.605 -10.696,-0.705 -4.273,-0.094 -10.001,-0.099 -10.057,-0.099 z m 14.249,35.944 c -1.718,-2.815 -3.633,-6.979 -5.232,-12.558 -2.028,-7.071 -3.555,-12.751 -4.5,-16.362 1.729,0.017 3.688,0.039 5.382,0.078 2.499,0.058 4.798,0.17 6.597,0.301 -0.373,5.412 -0.812,10.723 -1.238,15.885 -0.361,4.33 -0.706,8.51 -1.009,12.656 z"
   id="path99"
   inkscape:connector-curvature="0"
   style="fill:#efefef" />
		</g>
		<g
   id="g4_18_"
   transform="matrix(1,0,0,-1,0,6552)">
			<path
   d="m 1445.439,5908.607 c -7.066,0 -16.886,0.416 -31.834,1.349 -13.321,0.83 -22.87,1.217 -30.049,1.217 -6.191,0 -10.795,-0.28 -14.483,-0.882 -1.802,-0.294 -3.424,-0.443 -4.82,-0.443 0,0 -0.01,0 -0.013,0 -1.184,0 -4.727,0.01 -6.346,2.453 -0.804,1.211 -0.931,2.69 -0.351,4.063 0.626,1.478 1.369,3.093 2.23,4.965 4.072,8.847 10.229,22.215 12.979,41.188 2.681,18.483 1.936,49.345 -3.451,65.819 -0.535,1.64 -3.643,10.354 -12.274,21.112 l -4.566,5.69 h 7.297 c 5.472,0 11.509,-0.332 26.175,-2.026 14.463,-1.672 20.448,-2.363 37.939,-3.977 2.649,-0.244 5.117,-0.368 7.337,-0.368 9.9,0 13.495,2.339 16.974,4.601 l 0.551,0.357 c 0.539,0.348 1.277,1.01 1.994,1.65 2.021,1.809 4.308,3.855 7.185,3.855 1.065,0 2.069,-0.284 2.983,-0.846 2.373,-1.455 4.233,-4.315 6.605,-28.023 2.477,-24.752 0.062,-28.534 -2.618,-30.286 -0.616,-0.401 -1.332,-0.617 -2.065,-0.617 -2.299,0 -3.432,1.701 -5,4.058 -0.974,1.461 -2.307,3.465 -4.164,5.693 -3.004,3.604 -6.73,5.271 -14.52,8.229 -7.259,2.754 -24.785,6.117 -34.895,6.117 0,0 -0.01,0 -0.01,0 0.389,-3.08 0.687,-7.183 0.866,-12.021 0.081,-2.168 0.152,-5.023 0.222,-7.759 0.049,-1.935 0.098,-3.901 0.146,-5.472 0.973,-0.107 1.996,-0.164 3.062,-0.164 4.861,0 9.646,1.131 12.506,2.189 3.959,1.466 5.93,3.455 7.367,4.908 1.18,1.189 2.396,2.421 4.338,2.421 0.808,0 1.597,-0.237 2.28,-0.688 3.856,-2.523 4.813,-11.334 2.222,-20.487 -1.867,-6.599 -0.529,-12.157 0.354,-15.836 0.562,-2.336 0.968,-4.022 0.561,-5.647 -0.446,-1.775 -1.998,-2.971 -3.86,-2.972 -1.695,0 -3.314,0.942 -5.999,2.506 -2.443,1.424 -5.485,3.192 -7.891,3.69 -3.582,0.742 -7.768,1.119 -12.439,1.119 -1.283,0 -2.438,-0.026 -3.423,-0.062 -0.099,-1.058 -0.195,-2.151 -0.295,-3.274 -0.756,-8.527 -1.67,-18.857 -4.616,-27.871 1.554,-0.131 3.425,-0.195 5.634,-0.195 4.335,0 10.129,0.24 19.372,0.805 11.215,0.683 20.97,11.813 24.562,17.604 0.901,1.454 5.642,8.703 10.395,8.703 1.717,0 3.228,-0.952 3.938,-2.483 2.432,-5.244 1.807,-14.244 0.769,-23.188 -0.108,-0.956 -0.246,-1.981 -0.39,-3.063 -0.893,-6.74 -2.001,-15.129 0.847,-21.789 l 1.815,-4.244 -4.576,-0.603 c -5.188,-0.678 -9.562,-1.075 -16.562,-1.075 z m -61.881,9.566 c 7.327,0 17.015,-0.392 30.483,-1.229 14.799,-0.924 24.481,-1.334 31.397,-1.334 4.725,0 8.101,0.182 11.457,0.521 -1.75,7.312 -0.715,15.129 0.076,21.107 0.137,1.043 0.269,2.031 0.375,2.953 0.424,3.644 1.297,11.183 0.651,16.203 -0.845,-0.883 -1.846,-2.112 -2.85,-3.729 -1.258,-2.026 -12.79,-19.853 -30.083,-20.901 -9.394,-0.571 -15.312,-0.815 -19.798,-0.815 -5.271,0 -8.775,0.335 -11.367,1.085 l -3.794,1.1 1.547,3.635 c 3.762,8.834 4.794,20.496 5.624,29.865 0.202,2.28 0.395,4.443 0.609,6.432 l 0.339,3.122 h 3.142 c 0.302,0 0.771,0.021 1.38,0.045 1.223,0.049 3.065,0.122 5.223,0.122 5.147,0 9.813,-0.425 13.858,-1.264 2.896,-0.601 5.834,-2.119 8.39,-3.571 -0.884,4.163 -1.646,10.03 0.293,16.88 1.258,4.443 1.35,7.938 1.082,10.21 -1.74,-1.543 -4.317,-3.423 -8.123,-4.833 -1.662,-0.615 -7.652,-2.626 -14.938,-2.626 -2.599,0 -5.036,0.271 -7.25,0.797 l -2.489,0.597 -0.188,2.551 c -0.104,1.388 -0.186,4.69 -0.279,8.519 -0.066,2.705 -0.138,5.528 -0.218,7.671 -0.379,10.111 -1.146,13.786 -1.373,14.671 l -0.966,3.776 3.857,0.555 c 1.289,0.186 2.842,0.279 4.613,0.279 11.106,0 29.528,-3.597 37.375,-6.572 8.037,-3.047 13.221,-5.262 17.413,-10.291 0.932,-1.117 1.734,-2.168 2.435,-3.131 0.164,3.498 0.047,9.359 -0.928,19.104 -1.438,14.367 -2.646,19.908 -3.332,22.035 -0.599,-0.457 -1.308,-1.092 -1.81,-1.539 -0.916,-0.82 -1.864,-1.67 -2.865,-2.316 l -0.528,-0.344 c -3.928,-2.556 -8.813,-5.732 -20.791,-5.732 0,0 0,0 0,0 -2.434,0 -5.116,0.133 -7.979,0.396 -17.573,1.619 -23.583,2.313 -38.104,3.992 -8.55,0.987 -14.07,1.502 -18.241,1.756 5.92,-8.627 8.379,-15.285 9.071,-17.406 5.689,-17.408 6.521,-49.73 3.726,-69 -2.896,-19.977 -9.308,-33.896 -13.55,-43.109 -0.239,-0.521 -0.472,-1.022 -0.69,-1.506 0.757,0.056 1.604,0.158 2.503,0.306 4.075,0.653 9.036,0.963 15.615,0.963 z"
   id="path102"
   inkscape:connector-curvature="0"
   style="fill:#efefef" />
		</g>
	</g>
</g>
</svg>