<?xml version="1.0" encoding="utf-8"?>
<!-- Generator: Adobe Illustrator 15.1.0, SVG Export Plug-In . SVG Version: 6.00 Build 0)  -->
<!DOCTYPE svg PUBLIC "-//W3C//DTD SVG 1.1//EN" "http://www.w3.org/Graphics/SVG/1.1/DTD/svg11.dtd">
<svg version="1.1" id="Layer_1" xmlns="http://www.w3.org/2000/svg" xmlns:xlink="http://www.w3.org/1999/xlink" x="0px" y="0px"
	 width="1154.251px" height="181.125px" viewBox="341.872 471.695 1154.251 181.125"
	 enable-background="new 341.872 471.695 1154.251 181.125" xml:space="preserve">
<g id="wing" display="none">
	<g display="inline">
		<path id="outer_feathers_1_" fill="#F6F6F6" d="M959.181,447.891c0,0,28.637-20.835,50.039-55.158
			c21.398-34.321,58.932-97.079,114.16-118.929c55.233-21.851,85.874,1.769,7.964,47.039c0,0-23.656,13.73-28.75,24.873
			c0,0,120.21-43.569,147.412-21.438c27.188,22.129-31.87,41.504-60.625,50.028c-28.756,8.525-71.543,28.685-71.543,28.685
			s68.418,8.101,74.38,37.11c5.962,29.011-65.653,15.703-74.481,15.969c-8.828,0.261-46.681,0.225-51.543,3.291
			c0,0,40.923,27.525-4.165,40.422c-45.08,12.896-104.562-5.774-104.562-5.774"/>
		<path fill="#E0E0E0" d="M956.554,494.227l0.311-1.021c0.583,0.183,57.75,12.981,104.338,3.696
			c8.198-1.635,17.837-6.453,18.901-13.198c1.332-8.43-10.802-18.633-15.592-21.854l-3.822-2.569l3.9-2.456
			c3.965-2.5,19.989-3.225,46.322-3.625c2.881-0.046,5.229-0.078,6.738-0.122c1.693-0.054,4.857,0.281,9.639,0.781
			c15.244,1.594,50.942,5.337,60.172-4.853c1.935-2.131,2.523-4.846,1.815-8.298c-5.464-26.565-71.128-34.658-71.792-34.734
			l-10.386-1.232l9.463-4.463c0.42-0.203,43.319-20.354,71.963-28.846c51.388-15.236,63.882-26.97,65.313-34.128
			c0.697-3.491-1.178-6.989-5.731-10.698c-21.234-17.312-111.499,9.974-144.487,21.935l-6.732,2.437l2.982-6.506
			c5.426-11.875,28.976-25.64,29.967-26.221c40.946-23.789,47.51-39.126,44.938-44.434c-3.429-7.065-23.169-7.952-50.288,2.778
			c-52.383,20.732-86.889,79.907-108.589,114.812l-2.664,4.26c-21.466,34.424-51.88,53.035-53.065,53.896l-0.755-0.734
			c0.281-0.205,18.011-17.895,47.27-57.679l2.284-3.682c22.104-35.53,59.085-94.99,113.317-116.448
			c28.556-11.299,52.363-11.216,57.881,0.176c5.952,12.268-11.288,31.313-47.31,52.244c-4.625,2.684-15.055,9.458-21.87,16.194
			c29.268-9.871,117.007-37.097,140.913-17.678c6.348,5.168,8.983,10.731,7.826,16.531c-2.621,13.127-24.707,25.422-69.486,38.7
			c-20.293,6.017-47.964,18.025-62.062,24.373c19.746,3.567,62.046,13.937,66.981,37.944c1.104,5.378,0.016,9.934-3.252,13.535
			c-11.271,12.437-46.377,8.76-65.238,6.787c-4.048-0.426-7.539-0.791-8.844-0.754c-1.52,0.049-3.896,0.085-6.815,0.132
			c-7.77,0.117-28.169,0.427-38.062,1.604c5.89,5.058,14.59,14.314,13.086,23.833c-1.255,7.92-8.638,15.891-23.179,18.03
			C978.904,515.042,959.015,495.003,956.554,494.227z"/>
	</g>
	<path id="inner_feathers" display="inline" fill="none" stroke="#E0E0E0" stroke-width="6" stroke-miterlimit="10" d="
		M1031.605,357.952c0,0,23.775-27.773,41.041-19.207c17.271,8.566-13.301,53.356-26.864,65.189c0,0,13.81-5.459,29.359-3.63
		c15.558,1.831,32.301,33.6-56.605,64.026c0,0,31.021,20.854-18.979,38.162"/>
</g>
<g id="fill_gradiant" display="none">
	<g display="inline">
		<g>
			<g>
				<defs>
					<path id="SVGID_1_" d="M1211.998,481.258c0,0-132.5,40.625-217.5-16.25s-113.125-73.75-161.25-73.75
						c0,0-35.625-46.875-68.75-12.5l-13.75,25.625l-20,2.5l4.375-40c0,0,1.875-50.625-54.375-82.5s-130,1.25-129.375,8.75
						l-26.875-16.25c0,0-40.625-24.375-78.75,26.25s-53.125,115.625-3.75,161.25c0,0-32.5,46.875-25.625,93.125
						c0,0,23.75,145.625,171.875,146.25l4.375,11.25c0,0-1.875,39.375,120,56.25l208.75-23.125l184.375,20
						c0,0,71.25,1.25,101.875-28.75s20.625-30.625,20.625-30.625s75-0.312,112.5-41.562s47.5-78.438,45.938-98.438
						s-6.875-64.062-60.938-90.312C1271.685,452.194,1211.998,481.258,1211.998,481.258z"/>
				</defs>
				<clipPath id="SVGID_2_">
					<use xlink:href="#SVGID_1_"  overflow="visible"/>
				</clipPath>
				
					<linearGradient id="SVGID_3_" gradientUnits="userSpaceOnUse" x1="319.7322" y1="-213.6719" x2="319.7321" y2="306.3286" gradientTransform="matrix(1 0 0 1 564.1406 473.0547)">
					<stop  offset="0.4242" style="stop-color:#FFFFFF"/>
					<stop  offset="0.7152" style="stop-color:#FFFFFF"/>
					<stop  offset="1" style="stop-color:#74CFE6"/>
				</linearGradient>
				<rect x="374.497" y="259.383" clip-path="url(#SVGID_2_)" fill="url(#SVGID_3_)" width="1018.751" height="520"/>
			</g>
		</g>
	</g>
</g>
<g id="outline" display="none">
	
		<linearGradient id="SVGID_4_" gradientUnits="userSpaceOnUse" x1="332.7542" y1="-209.1436" x2="332.7541" y2="303.9287" gradientTransform="matrix(1 0 0 1 564.1406 473.0547)">
		<stop  offset="0.0061" style="stop-color:#C3E7EF"/>
		<stop  offset="0.6909" style="stop-color:#74CFE6"/>
		<stop  offset="1" style="stop-color:#005EA3"/>
	</linearGradient>
	<path display="inline" fill="url(#SVGID_4_)" d="M558.247,373.133c2.539-11.663,3.748-22.883,3.169-33.811
		c-0.557-10.879-3.262-21.523-8.947-30.74c-5.586-9.243-13.586-17.024-22.697-23.335c-2.283-1.565-4.632-3.103-7.021-4.485
		c-2.134-1.189-4.59-2.351-6.986-3.176c-4.85-1.719-9.979-2.456-15.12-2.246c-10.314,0.425-20.524,4.585-29.572,10.598
		c-9.077,6.055-17.103,13.936-24.036,22.673c-13.792,17.576-23.566,38.538-28.296,60.391c-4.635,21.794-3.551,45.142,6.257,64.875
		c5.104,9.946,11.388,19.275,19.248,27.007c7.809,7.685,17.249,13.646,27.666,16.225c10.364,2.666,21.545,1.873,31.52-2.114
		c9.86-3.882,19.072-11.157,22.832-20.535c0.869-2.332,1.296-4.746,1.193-7.117c-0.148-2.388-0.724-5.171-1.574-7.625
		c-1.722-5.015-4.79-9.595-8.745-13.455c-8.016-7.703-18.864-12.725-30.138-15.63c5.862,0.361,11.67,1.667,17.298,3.602
		c5.625,1.938,11.128,4.621,15.944,8.48c4.85,3.782,8.97,8.826,11.483,14.709c1.273,2.979,2.17,5.896,2.672,9.308
		c0.386,3.46-0.078,6.925-1.067,10.121c-4.331,12.851-15.109,21.35-26.509,26.352c-11.598,4.978-24.845,6.033-37.151,3.079
		c-12.371-2.876-23.438-9.729-32.339-18.25c-8.934-8.53-15.98-18.745-21.665-29.456c-11.423-22.228-12.832-48.147-8.146-71.849
		c4.676-23.877,15.168-46.379,30.288-65.452c7.59-9.504,16.418-18.193,26.797-25.088c10.311-6.838,22.532-11.953,35.68-12.258
		c6.521-0.171,13.14,0.886,19.26,3.167c3.102,1.138,5.931,2.505,8.862,4.209c2.639,1.582,5.148,3.284,7.653,5.056
		c9.935,7.109,18.962,16.052,25.314,26.936c6.318,10.83,9.905,23.523,9.324,35.994C570.091,351.692,565.968,363.841,558.247,373.133
		z M593.836,708.919l-2.428-9.697c-48.015,12.019-133.439-34.646-161.013-104.183c-27.324-68.901,11.807-121.816,12.227-122.375
		l-3.827-3.203l-3.673-3.594c-1.854,2.456-43.472,58.599-14.022,132.857c26.497,66.818,100.646,112.37,153.909,112.37
		C581.651,711.097,587.975,710.384,593.836,708.919z M592.13,688.362c-3.636,9.358-5.343,19.988-3.346,30.696
		c1.033,5.317,3.198,10.549,6.383,15.029c3.169,4.502,7.243,8.203,11.62,11.162c2.202,1.46,4.479,2.749,6.803,3.911l1.753,0.825
		c0.554,0.269,1.364,0.62,1.849,0.806l3.402,1.354c4.528,1.758,9.069,3.406,13.641,4.988c18.273,6.301,36.932,11.521,56.016,15.178
		c19.067,3.577,38.646,5.757,58.5,4.114c19.411-1.958,38.195-4.956,57.136-7.749c18.893-2.837,37.742-5.658,56.605-8.036
		c18.86-2.367,37.744-4.354,56.572-5.216c18.866-0.774,37.497-0.659,55.554,3.252c37.849,7.229,76.095,12.124,114.76,13.142
		c19.315,0.42,38.755-0.19,58.114-3.015c19.225-2.969,38.927-7.781,56.03-19.351c4.214-2.92,8.184-6.323,11.68-10.225
		c3.574-4.038,6.201-7.998,8.989-12.092c5.425-8.188,10.254-16.819,14.16-25.94c3.866-9.126,6.898-18.755,8.026-28.94
		c1.051-10.034,0.332-21.321-6.063-30.874c-3.179-4.683-7.793-8.452-12.855-10.723c-5.078-2.314-10.454-3.271-15.659-3.521
		c-5.22-0.242-10.327,0.229-15.282,1.101l-1.93,0.371l-1.763,0.398c-1.344,0.327-2.622,0.693-3.856,1.089
		c-2.506,0.82-4.962,1.848-7.313,3.11c-4.713,2.52-8.862,6.157-12.086,10.371c-3.231,4.231-5.342,9.104-6.737,13.989
		c-2.523,9.873-2.235,20.005,0.42,29.312c0.298-9.604,1.847-19.043,5.436-27.295c3.468-8.286,9.396-14.927,17.052-18.462
		c14.894-6.211,37.86-7.72,46.537,5.723c4.396,6.538,5.265,15.571,4.233,24.309c-1.035,8.821-3.823,17.617-7.477,26.023
		c-3.678,8.418-8.268,16.499-13.446,24.194c-2.604,3.779-5.354,7.759-8.154,10.84c-2.9,3.193-6.25,6.035-9.902,8.525
		c-14.795,9.917-33.262,14.53-51.602,17.173c-18.491,2.554-37.389,3.026-56.245,2.471c-37.744-1.265-75.523-6.377-112.653-13.76
		c-9.406-2.148-19.655-3.35-29.344-3.662c-9.8-0.386-19.525-0.189-29.199,0.298c-19.343,0.996-38.477,3.142-57.507,5.642
		c-19.03,2.52-37.954,5.469-56.831,8.418c-18.835,2.898-37.791,6.016-56.389,8.008c-18.281,1.636-37.075-0.273-55.516-3.633
		c-18.47-3.424-36.738-8.408-54.613-14.453c-4.466-1.515-8.911-3.105-13.299-4.775l-3.263-1.273
		c-0.632-0.243-0.918-0.37-1.438-0.619l-1.494-0.686c-1.956-0.967-3.844-2.024-5.631-3.191
		c-7.147-4.674-12.243-11.472-13.796-19.624c-1.727-8.159-0.062-17.036,2.371-25.681c2.401-8.744,5.498-17.494,8.423-27.007
		C601.634,670.628,595.934,679.041,592.13,688.362z M1229.391,714.354c15.527,1.108,30.26-0.691,44.907-4.197
		c14.562-3.562,28.618-9.248,41.558-16.88c12.931-7.646,24.684-17.257,34.801-28.308c10.063-11.028,18.877-23.354,25.342-37.041
		c12.905-27.188,16.646-59.021,8.434-88.357c-4.071-14.614-11.206-28.508-21.206-40.097c-9.966-11.604-22.754-20.779-36.831-26.602
		c-14.063-5.903-29.219-8.645-44.219-8.994c-7.49-0.195-15.055,0.205-22.368,1.023c-7.479,0.823-14.845,2.095-22.145,3.992
		c-14.53,3.723-28.893,10.007-40.698,20.175c-11.781,10.083-20.326,24.47-22.655,40.078c-2.318,15.469,0.62,32.105,10.747,45.077
		c5.021,6.328,12.627,11.781,21.642,12.543c7.44,0.684,15,0.865,22.466,0.242c14.878-1.316,29.883-4.888,42.993-12.776
		c6.416-4.033,12.266-9.612,15.37-16.689c3.164-7.08,2.837-15.017,0.724-21.909c1.162,7.173,0.194,14.646-3.397,20.552
		c-3.501,5.976-9.214,10.227-15.396,13.235c-12.505,6.086-26.852,7.785-40.812,8.254c-7.031,0.179-14.033,0.086-21.04-0.646
		c-5.63-0.533-10.957-4.016-14.883-8.969c-7.936-10.031-10.729-24.354-8.683-37.401c1.997-13.213,9.142-25.342,19.385-34.138
		c10.27-8.852,23.198-14.622,36.709-18.064c27.021-6.553,56.914-7.175,82.433,3.545c12.759,5.283,24.188,13.513,33.146,23.94
		c8.983,10.417,15.449,22.964,19.165,36.302c7.5,26.762,4.103,56.254-7.865,81.428c-5.942,12.593-14.204,24.165-23.691,34.562
		c-9.496,10.359-20.464,19.319-32.533,26.454c-12.075,7.118-25.221,12.438-38.867,15.771c-13.54,3.301-28.014,4.927-41.471,3.955
		L1229.391,714.354z M1095.908,502.298c64.342-2.061,149.99-25.357,150.851-25.593l-2.646-9.646
		c-0.846,0.232-85.376,23.222-148.524,25.242c-46.279,1.536-93.545-29.527-135.277-56.89
		c-15.498-10.159-30.138-19.753-44.236-27.495c-43.623-23.95-82.969-19.929-84.624-19.756l1.1,9.941
		c0.371-0.05,37.832-3.86,78.711,18.578c13.76,7.555,28.236,17.046,43.566,27.096c41.948,27.498,89.354,58.577,137.539,58.577
		C1093.546,502.354,1094.729,502.334,1095.908,502.298z M850.532,459.949c-5.648,6.477-12.023,12.229-19.368,15.935
		c-7.312,3.711-15.451,5.351-23.612,4.622c-8.169-0.642-16.276-3.369-23.898-7.251c-7.318-3.677-13.513-9.119-18.091-15.869
		c-9.176-13.56-11.699-31.56-8.675-48.032c1.512-8.244,4.365-16.301,8.88-23.034c4.465-6.727,10.725-11.971,17.959-13.735
		c7.222-1.873,15.215-0.11,22.531,3.65c7.438,3.771,14.02,9.105,18.562,15.837c4.562,6.688,7.036,14.785,6.838,22.881
		c-0.145,7.981-3.078,16.326-8.639,20.994c-2.732,2.334-5.995,3.386-9.455,3.072c-3.494-0.284-7.104-2.144-10.431-4.622
		c-6.665-5.125-12.059-12.542-17.313-20.047l-0.146,0.068c2.484,8.855,6.354,17.578,13.229,24.734
		c3.416,3.535,7.913,6.614,13.478,7.712c5.575,1.196,11.73-0.691,16.061-4.063c8.716-7.012,12.083-17.546,12.645-27.507
		c0.492-10.103-2.368-20.295-7.853-28.765c-5.464-8.521-13.354-15.149-21.997-19.788c-8.607-4.725-19.495-7.529-30.127-4.968
		c-10.641,2.468-19.204,9.826-24.822,18.088c-5.706,8.352-9.191,17.769-10.969,27.375c-3.379,19.119-0.651,39.871,10.674,56.67
		c5.613,8.32,13.597,15.225,22.65,19.485c8.631,4.192,18.138,7.29,28.154,7.903c9.987,0.729,20.33-1.538,29.133-6.25
		c8.838-4.707,16.185-11.475,22.013-19.05c5.9-7.554,10.319-15.986,13.721-24.661c3.304-8.716,5.771-17.725,6.584-26.953
		C870.299,430.916,861.782,446.797,850.532,459.949z M728.032,420.42c8.242-8.228,17.666-13.901,19.896-13.132l8.141-5.812
		c-1.766-2.471-4.329-3.913-7.412-4.167c-3.835-0.308-8.337,1.478-12.578,3.989c16.349-50.74-3.137-95.264-54.307-121.37
		c-56.362-28.76-119.686-1.094-134.305,6.094c0,0,2.161,1.858,3.438,3.359c1.328,1.563,3.766,4.331,3.766,4.331
		c17.279-7.886,73.768-29.771,122.557-4.878c51.636,26.345,67.619,73.413,42.754,125.906l-12.322,26.018L728.032,420.42z
		 M1055.984,586.985c-12.336,8.218-23.327,18.843-31.667,31.485c-4.077,6.364-7.493,13.19-10.032,20.329
		c-2.398,7.178-4.149,14.59-4.693,22.095c-1.299,14.985,1.177,29.963,6.575,43.486c-1.347-14.507-1.435-28.772,1.158-42.439
		c2.604-13.635,7.77-26.555,15.364-38.015c7.419-11.587,17.183-21.68,27.942-30.713c10.872-8.94,22.757-16.89,35.535-23.833
		C1081.87,572.471,1068.309,578.779,1055.984,586.985z"/>
</g>
<g id="new_text">
	<g id="celestia">
		<g>
			<g>
				<g>
					<defs>
						<path id="SVGID_5_" d="M472.846,491.423c3.119,4.233-1.002,9.605-2.828,30.629c-1.562,17.965-3.912,22.714-5.943,22.087
							c-3.536-1.092-1.601-4.12-7.858-10.125c-5.326-5.108-11.742-9.085-18.126-9.939c-9.145-1.228-18.514,0.524-28.167,10.502
							c-8.303,8.58-8.601,23.224-8.601,32.212c0,7.768,2.773,18.121,7.123,26.272c4.674,8.763,11.108,15.927,18.391,18.771
							c7.968,3.115,18.015,4.928,27.562,1.561c10.078-3.555,10.252-7.25,13.77-11.403c2.574-3.042,4.794-6.438,6.719-7.157
							c3.561-1.332-2.968,4.627-2.868,22.783c0.098,17.791,2.623,23.501-9.261,19.705c-6.969-2.229-13.573,2.812-34.328,0.949
							c-9.999-0.896-18.177-2.529-29.5-12.464c-10.905-9.564-16.703-24.14-18.213-30.053c-1.511-5.913-4.009-16.199-3.771-31.021
							c0.236-14.806,2.758-26.729,13.573-41.707c9.026-12.5,18.742-20.848,30.098-23.755c9.295-2.382,18.975-1.825,23.676-0.319
							c9.845,3.153,15.699,2.979,18.364-0.3C466.811,493.533,471.921,490.168,472.846,491.423z M488.513,496.84
							c5.501-2.927,20.011-3.301,36.847-0.723c18.084,2.771,32.529,7.188,40.012,10.72c5.868,2.771-8.453,3.584-15.17,6.173
							c-6.716,2.588-11.953,12.469-16.075,33.453c-5.737,29.203-5.455,49.225-5.216,66.799c9.095,0.241,11.329,3.069,20.613,1.764
							c9.092-1.28,13.974-6.123,18.186-12.781c2.986-4.725,6.892-18.623,10.133-14.952c4.216,4.771,7.063,11.55,6.977,26.841
							c-0.097,16.646-0.781,18.857-2.018,25.503c-6.096,0-14.817-4.024-35.68-3.926c-18.895,0.091-23.302,2.642-36.43,4.066
							c-11.716,1.271-14.047,0.526-15.938-0.093c0.71-2.219,4.15-8.554,7.983-21.889c7.136-24.823,8.205-54.82,5.502-86.505
							c-0.83-9.729-7.076-22.355-11.999-24.864C492.354,504.444,485.178,498.614,488.513,496.84z M1254.609,495.705
							c5.502-2.928,20.011-3.302,36.845-0.723c18.086,2.77,32.531,7.188,40.015,10.719c5.866,2.771-8.454,3.585-15.172,6.173
							c-6.714,2.588-11.952,12.469-16.075,33.452c-5.736,29.203-5.453,49.225-5.214,66.799c9.093,0.242,11.328,3.07,20.612,1.763
							c9.091-1.278,13.976-6.124,18.186-12.779c2.986-4.726,6.892-18.622,10.134-14.952c4.216,4.771,7.063,11.551,6.977,26.84
							c-0.098,16.646-0.781,18.856-2.02,25.504c-6.096,0-14.817-4.026-35.678-3.926c-18.895,0.09-23.302,2.641-36.431,4.064
							c-11.716,1.271-14.049,0.527-15.939-0.092c0.709-2.219,4.152-8.553,7.984-21.889c7.137-24.823,8.206-54.819,5.502-86.504
							c-0.83-9.729-7.075-22.354-11.999-24.864C1258.449,503.309,1251.275,497.479,1254.609,495.705z M624.141,548.83
							c-2.358,12.607-1.85,23.572-1.753,31.25c0.102,8.025,3.708,14.727,10.718,19.791c7.036,5.084,18.07,6.672,25.688-0.406
							s9.646-16.242,10.055-28.459c0.421-12.577,0.982-20.07-2.063-30.354c-3.045-10.284-6.131-13.714-9.277-16.234
							c-3.147-2.52-10.492-3.976-18.647-0.253C629.912,528.249,626.379,536.865,624.141,548.83L624.141,548.83z M637.939,496.175
							c9.088-0.937,13.68,0.652,18.446,2.653c4.768,2.001,10.127,4.825,15.103,11.043c4.974,6.218,7.341,10.257,10.348,19.396
							c3.251,9.892,4.905,15.511,5.204,32.305c0.313,17.567-0.611,25.562-4.166,40.016c-3.786,15.403-8.922,23.881-21.859,30.603
							c-6.16,3.199-15.376,4.731-29.978,4.261c-9.828-0.317-16.732-3.994-24.419-11.73c-5.104-5.139-10.322-15.934-11.146-20.584
							c-2.021-11.432-2.852-22.194-2.171-40.395c0.525-14.109,2.506-24.539,5.812-33.82c3.067-8.613,7.367-15.796,15.57-23.465
							C622.911,498.764,628.852,497.112,637.939,496.175z M687.473,505.116c2.238-0.528,5.227,2.768,29.715-3.773
							c23.816-6.36,36.34-7.483,32.529-2.351c-4.867,6.559-10.35,12.524-12.113,22.501c-4.891,27.64-4.889,60.339,8.931,83.565
							c3.321,5.582,10.858,7.7,15.89,3.481c5.03-4.219,8.706-12.521,6.879-58.896c-1.563-39.706-4.71-52.821-10.502-58.308
							c-3.702-3.507-10.452-10.269-9.028-11.688c4.688-4.678,23.836-3.271,32.992-1.256c8.29,1.823,16.738,1.163,24.78,2.291
							c-4.783,2.804-7.582,5.563-9.587,13.639c-2.465,9.923-4.48,18.643-5.128,42.025c-0.619,22.443-0.881,42.136-2.284,56.887
							c-1.269,13.318-4.564,26.751-13.095,34.855c-7.562,7.188-25.882,13.163-36.498,8.903
							c-10.281-4.126-17.595-16.183-22.774-45.227c-6.561-36.782-9.433-49.95-15.908-66.898
							C700.181,519.406,692.534,511.614,687.473,505.116z M856.529,526.844c-2.271,10.466-2.625,19.416-3.21,34.395
							c-0.33,8.437-1.119,21.914,0.791,29.799c2.921,12.062,7.747,18.283,12.646,18.361c11.281,0.182,20.335-14.562,23.815-23.906
							c3.467-9.311,0.89-37.506-4.648-52.771C880.283,517.171,858.688,516.899,856.529,526.844z M810.618,489.603
							c2.943-7.023,27.346-0.352,34.966,1.331c7.929,1.752,17.986,4.882,30.881,9.649c16.018,5.924,24.158,13.099,30.432,25.517
							c14.868,29.434,7.525,62.08-5.545,79.163c-16.224,21.205-31.63,26.188-48.453,28.094c-12.422,1.404-24.846,3.331-37.268,5.521
							c-8.99,1.584-6.076-4.502-1.563-7.72c5.634-4.019,10.717-9.381,14.232-25.303c1.549-7.011,0.508-31.974,0.508-47.825
							c0-18.395,0.774-34.308-6.562-50.025C814.913,492.283,810.08,490.887,810.618,489.603z M1078.18,528.708
							c-2.271,10.465-2.623,19.417-3.209,34.393c-0.33,8.438-1.119,21.913,0.789,29.799c2.922,12.063,7.748,18.281,12.646,18.36
							c11.282,0.185,20.335-14.56,23.815-23.903c3.47-9.312,0.891-37.509-4.646-52.771
							C1101.936,519.035,1080.339,518.763,1078.18,528.708z M1032.27,491.467c2.943-7.024,27.347-0.353,34.966,1.331
							c7.929,1.751,17.987,4.88,30.882,9.649c16.02,5.923,24.158,13.099,30.434,25.516c14.866,29.432,7.523,62.08-5.547,79.164
							c-16.224,21.203-31.631,26.186-48.453,28.09c-12.422,1.406-24.845,3.333-37.268,5.522c-8.99,1.584-6.076-4.503-1.562-7.72
							c5.636-4.02,10.72-9.383,14.232-25.303c1.549-7.012,0.509-31.973,0.509-47.826c0-18.394,0.772-34.307-6.561-50.024
							C1036.564,494.147,1031.73,492.75,1032.27,491.467z M1008.538,489.611c5.803-4.449,8.53-4.734,11.023-4.65
							c-0.74,4.172-5.066,10.595-2.502,19.771c2.627,9.39,1.711,15.567-0.663,24.11c-2.873-1.94-3.164-6.481-9.56-10.391
							c-7.855-4.803-18.609-7.063-27.01-4.86c-10.519,2.759-16.698,10.165-14.884,16.366c2.478,8.458,9.734,12.289,21.527,14.781
							c8.307,1.757,21.424,6.362,28.469,13.591c8.23,8.446,10.584,19.587,9.486,33.396c-1.06,13.323-2.546,21.875-11.289,34.095
							c-7.666,10.713-16.758,13.744-31.94,13.914c-8.579,0.097-16.261-1.73-23.726-9.193c-9.486-9.481-7.828-16.391-16.846-31.139
							c-4.283-7.006-11.654-8.226-13.143-14.425c5.858-1.146,12.021-3.104,30.621-3.569c18.6,0.425,18.403,1.561,13.131,8.621
							c-5.736,7.681-6.586,14.1-2.662,18.627c3.389,3.91,11.118,5.199,17.106,2.238c5.014-2.479,11.57-9.65,11.752-22.212
							c0.188-13.466-8.112-16.854-25.73-23.104c-16.054-5.693-26.391-11.682-30.287-21.281c-4.529-11.162-3.599-28.489,4.065-39.943
							c9.917-14.823,22.402-17.654,33.17-16.473c14.08,1.546,12.585,5.079,17.551,6.11
							C999.66,494.711,1002.945,493.899,1008.538,489.611z M1189.62,591.52c-4.048,0.104-9.682,1.305-10.689,2.373
							c-0.563,0.601-1.541,2.007-1.302,6.154c0.303,5.251,0.723,10.774,4.981,16.697c3.769,5.234,5.295,6.186,6.548,7.244
							c0.674,0.566,0.646,1.438,0.301,2.236c-0.299,0.691-2.055,1.329-4.288,1.73c-2.819,0.507-16.371,1.15-24.009,0.589
							c-15.552-1.145-19.634-3.018-22.519-4.585c-0.617-0.336-1.271-5.711,4.167-12.665c5.585-7.142,10.343-11.062,13.702-19.106
							c3.383-8.104,8.322-21.168,10.742-31.438c4.008-17.019,5.812-29.574,5.622-38.231c-0.174-8.02-1.942-9.274-5.847-12.265
							c-3.052-2.338-7.118-3.502-9.428-4.551c-2.247-1.021-3.886-2.605-3.516-3.102c1.007-1.34,3.206-3.664,11.473-3.691
							c9.974-0.036,16.605-0.361,29.463-5.979c11.533-5.04,14.826-4.445,16.302-2.53c1.551,2.017,3.188,11.712,4.241,25.779
							c1.356,18.127,3.724,36.466,6.329,53.486c2.91,19.008,6.613,36.628,14.52,53.469c3.324,7.083,8.667,12.098,12.871,18.098
							c0.591,0.841,0.181,2.062-0.722,2.354c-3.424,1.11-11.088,0.017-15.059-0.243c-10.286-0.674-16.663,0.283-26.65,2.428
							c-3.439,0.739-8.709,2.604-9.915,3.062c-1.086,0.412-3.789,0.877-4.447,0.445c-1.748-1.146,0.518-4.274,1.016-4.985
							c1.391-1.981,2.221-3.024,5.283-7.571c3.062-4.548,7.354-12.68,7.316-24.082c-0.023-8.488-0.871-16.584-1.75-20.387
							C1199.291,591.434,1195.748,591.365,1189.62,591.52z M1199.576,534.875c-3.78,1.121-8.529,8.758-11.588,19.413
							c-3.648,12.719-5.651,20.852-5.651,20.852c0.437,0,5.938-0.009,9.979-0.102c4.456-0.101,8.471-0.385,10.231-0.662
							C1201.674,560.572,1200.313,547.62,1199.576,534.875L1199.576,534.875z M1459.068,496.592
							c1.59,0.977,3.188,7.771,4.951,25.392c2.168,21.672,0.396,26.062-1.05,27.007c-0.791,0.517-2.37-3.335-6.628-8.445
							c-3.654-4.383-8.26-6.336-15.966-9.258c-8.839-3.354-31.336-7.384-40.25-6.102c0.562,2.207,1.172,7.188,1.479,15.407
							c0.188,5.028,0.321,13.784,0.489,16.063c7.201,1.72,15.729-0.066,20.157-1.707c7.899-2.926,9.427-7.934,10.854-6.996
							c1.627,1.065,3.396,7.331,0.771,16.608c-3.098,10.939,1.517,19.089,0.889,21.581c-0.459,1.826-7.79-4.588-13.646-5.801
							c-8.694-1.801-17.713-1.021-19.751-1.021c-1.133,10.427-1.591,25.771-6.491,37.289c4.712,1.362,13.948,1.111,29.979,0.138
							c12.98-0.79,23.467-13.036,27.322-19.255c3.299-5.316,7.419-8.233,8.182-6.591c2.19,4.728,1.283,14.267,0.467,21.312
							c-0.815,7.045-3.006,17.932,0.717,26.633c-9.483,1.248-16.668,1.645-47.718-0.293c-24.632-1.535-37.215-1.617-45.313-0.296
							c-5.563,0.907-8.341,0.163-7.741-1.255c3.563-8.404,12.053-23.564,15.452-47.014c2.852-19.654,1.777-50.991-3.588-67.411
							c-0.819-2.511-4.172-11.374-12.873-22.217c5.238,0,11.115,0.31,25.771,2.004c14.658,1.692,20.523,2.372,38.021,3.982
							c17.496,1.612,22.55-2.21,27.079-5.135C1453.27,499.509,1456.5,495.02,1459.068,496.592z"/>
					</defs>
					<linearGradient id="SVGID_6_" gradientUnits="userSpaceOnUse" x1="376.929" y1="562.9805" x2="1465.0315" y2="562.9805">
						<stop  offset="0" style="stop-color:#FFFFFF"/>
						<stop  offset="0.6179" style="stop-color:#FCFCFC"/>
						<stop  offset="1" style="stop-color:#F5F5F5"/>
					</linearGradient>
					<use xlink:href="#SVGID_5_"  overflow="visible" fill="url(#SVGID_6_)"/>
					<clipPath id="SVGID_7_">
						<use xlink:href="#SVGID_5_"  overflow="visible"/>
					</clipPath>
					
						<linearGradient id="blue_1_" gradientUnits="userSpaceOnUse" x1="354.8572" y1="-1.3594" x2="354.8572" y2="179.7661" gradientTransform="matrix(1 0 0 1 564.1406 473.0547)">
						<stop  offset="0" style="stop-color:#FFFFFF"/>
						<stop  offset="0.6179" style="stop-color:#FCFCFC"/>
						<stop  offset="1" style="stop-color:#F5F5F5"/>
					</linearGradient>
					
						<rect id="blue_4_" x="341.872" y="471.695" clip-path="url(#SVGID_7_)" fill="url(#blue_1_)" width="1154.251" height="181.125"/>
				</g>
			</g>
		</g>
	</g>
	<g id="cel_outline">
		<g id="g4664_2_" transform="matrix(1 0 0 -1 0 6552)">
			<path fill="#EFEFEF" d="M437.452,5909.809c-2.971,0-6.112,0.146-9.338,0.438c-9.939,0.893-19.171,2.509-31.495,13.318
				c-11.387,9.988-17.602,25.182-19.296,31.816c-1.341,5.252-4.131,16.182-3.879,31.945c0.242,15.144,2.708,27.733,14.235,43.699
				c10.063,13.938,20.554,22.146,32.064,25.097c4.414,1.13,9.273,1.728,14.053,1.728c4.503,0,8.608-0.521,11.562-1.465
				c4.348-1.394,7.869-2.1,10.469-2.1l0,0c2.042,0,3.426,0.43,4.111,1.273c2.648,3.262,8.217,8.78,12.274,8.78
				c1.402,0,2.659-0.615,3.449-1.687c2.679-3.635,1.931-7.397,0.689-13.633c-0.873-4.396-2.069-10.416-2.849-19.375
				c-1.842-21.19-4.727-25.338-9.087-25.338c-0.464,0-0.927,0.068-1.376,0.209c-3.211,0.992-4.193,3.183-4.981,4.939
				c-0.671,1.494-1.506,3.354-4.268,6.002c-5.337,5.121-11.078,8.316-16.168,8.998c-1.538,0.207-3.031,0.312-4.438,0.312
				c-7.699,0-14.293-3.106-20.748-9.778c-7.615-7.869-7.615-22.666-7.615-29.776c0-7.205,2.697-17.103,6.711-24.627
				c4.643-8.701,10.529-14.795,16.576-17.158c9.054-3.541,17.811-4.101,25.124-1.521c6.646,2.345,8.034,4.396,9.954,7.235
				c0.641,0.945,1.365,2.019,2.306,3.129c0.641,0.756,1.258,1.535,1.854,2.287c2.131,2.688,3.973,5.013,6.312,5.888
				c0.741,0.276,1.343,0.399,1.948,0.399c1.272,0,2.413-0.578,3.13-1.586c1.244-1.748,0.62-3.541-0.103-5.619
				c-1.108-3.188-3.173-9.127-3.116-19.235c0.016-2.91,0.098-5.502,0.17-7.787c0.232-7.356,0.373-11.799-2.278-14.537
				c-1.296-1.34-3.056-2.019-5.229-2.019c-1.687,0-3.748,0.406-6.488,1.283c-2.202,0.703-4.849,0.371-8.854-0.233
				C448.98,5910.532,444.181,5909.809,437.452,5909.809z M433.797,6050.85c-4.202,0-8.46-0.521-12.313-1.508
				c-9.861-2.525-19.062-9.856-28.128-22.414c-10.454-14.478-12.691-25.93-12.912-39.713c-0.236-14.828,2.396-25.145,3.663-30.102
				c1.214-4.753,6.657-19.102,17.13-28.288c10.775-9.453,18.196-10.774,27.504-11.608c3.02-0.271,5.95-0.408,8.712-0.408
				c6.204,0,10.717,0.682,14.343,1.229c2.583,0.391,4.813,0.727,6.985,0.727c1.821,0,3.472-0.242,5.041-0.744
				c1.977-0.631,3.441-0.951,4.356-0.951c0.104,0,0.186,0.004,0.248,0.01c0.521,1.248,0.385,5.524,0.264,9.321
				c-0.073,2.33-0.156,4.97-0.174,7.972c-0.023,4.479,0.338,8.271,0.856,11.426c-0.128-0.188-0.257-0.379-0.387-0.57
				c-2.264-3.346-4.604-6.805-13.426-9.916c-8.902-3.141-19.366-2.557-30,1.604c-7.601,2.972-14.775,10.209-20.202,20.383
				c-4.578,8.58-7.535,19.541-7.535,27.922c0,8.029,0,24.74,9.585,34.646c7.756,8.015,16.188,11.91,25.779,11.91
				c1.716,0,3.521-0.125,5.367-0.373c8.396-1.125,15.557-6.539,20.084-10.883c3.121-2.994,4.503-5.414,5.353-7.196
				c0.731,2.535,1.72,7.471,2.541,16.938c0.812,9.342,2.051,15.58,2.957,20.133c0.536,2.695,0.868,4.48,0.962,5.725
				c-1.387-1.037-3.236-2.694-5.079-4.963c-2.081-2.562-5.292-3.858-9.544-3.858l0,0c-3.372,0-7.495,0.795-12.604,2.433
				C441.009,6050.427,437.485,6050.85,433.797,6050.85z"/>
		</g>
		<g id="g4_26_" transform="matrix(1 0 0 -1 0 6552)">
			<path fill="#EFEFEF" d="M500.551,5908.029c-3.649,0-5.34,0.453-6.889,0.961l-3.305,1.08l1.061,3.312
				c0.24,0.752,0.628,1.646,1.214,3.001c1.489,3.438,3.981,9.196,6.739,18.788c6.474,22.516,8.282,51.195,5.378,85.241
				c-0.803,9.408-6.862,20.394-10.102,22.043c-0.104,0.054-10.445,5.584-10.496,11.354c-0.017,1.867,0.999,3.524,2.715,4.438
				c4.438,2.359,12.111,2.855,17.77,2.855c6.368,0,13.716-0.609,21.251-1.765c19.262-2.951,33.796-7.624,40.977-11.015
				c3.078-1.453,3.525-3.44,3.358-4.853c-0.419-3.55-4.245-4.351-10.583-5.672c-2.85-0.597-6.078-1.271-8.182-2.08
				c-5.627-2.168-10.304-12.552-13.899-30.86c-5.319-27.078-5.399-46.164-5.191-62.84c2.415-0.248,4.336-0.654,6.092-1.027
				c2.18-0.463,4.062-0.861,6.52-0.861c1.251,0,2.578,0.103,4.058,0.311c7.873,1.107,11.977,5.271,15.715,11.188
				c0.769,1.215,1.75,3.477,2.699,5.662c2.796,6.44,5.004,11.528,9.256,11.528c1.403,0,2.739-0.638,3.76-1.794
				c5.66-6.407,7.936-14.859,7.854-29.18c-0.091-15.629-0.694-18.818-1.793-24.609l-0.815-4.371h-2.91
				c-2.47,0-5.091,0.523-8.41,1.188c-5.781,1.155-13.7,2.738-26.502,2.738l-0.75-0.002c-12.03-0.059-18.007-1.132-24.335-2.27
				c-3.469-0.625-7.056-1.271-11.734-1.776C506.63,5908.264,503.189,5908.029,500.551,5908.029z M499.676,5915.041
				c0.271-0.008,0.562-0.012,0.875-0.012c2.385,0,5.577,0.222,9.762,0.676c4.438,0.479,7.901,1.104,11.252,1.707
				c6.635,1.19,12.902,2.317,25.539,2.379l0.783,0.002c13.495,0,22.147-1.729,27.875-2.875c1.565-0.313,2.958-0.592,4.186-0.783
				c0.831,4.525,1.292,8.297,1.37,21.754c0.075,12.979-2.03,18.912-4.626,22.641c-0.941-1.697-2.06-4.27-2.821-6.025
				c-1.104-2.543-2.146-4.942-3.203-6.617c-3.938-6.225-9.47-12.801-20.654-14.375c-1.806-0.254-3.451-0.379-5.033-0.379
				c-3.192,0-5.622,0.518-7.973,1.017c-2.314,0.491-4.709,1-8.188,1.092l-3.361,0.09l-0.046,3.36
				c-0.243,17.857-0.519,38.006,5.28,67.521c4.264,21.707,9.895,32.823,18.252,36.044c2.473,0.953,5.729,1.659,8.689,2.278
				c-7.59,2.724-18.856,5.75-32.803,7.889c-7.189,1.102-14.173,1.684-20.191,1.684c-6.488,0-10.291-0.647-12.431-1.258
				c1.349-1.363,3.646-3.146,5.622-4.154c6.679-3.404,13.062-17.93,13.896-27.686c2.977-34.899,1.084-64.43-5.625-87.77
				C503.588,5924.499,501.207,5918.628,499.676,5915.041z"/>
		</g>
		<g id="g4_25_" transform="matrix(1 0 0 -1 0 6552)">
			<path fill="#EFEFEF" d="M1266.649,5909.166c-3.652,0-5.345,0.454-6.892,0.961l-3.307,1.081l1.061,3.312
				c0.241,0.752,0.629,1.646,1.215,3.002c1.49,3.438,3.984,9.194,6.74,18.787c6.476,22.521,8.284,51.197,5.379,85.24
				c-0.803,9.408-6.862,20.396-10.103,22.045c-0.104,0.054-10.444,5.584-10.494,11.354c-0.017,1.867,0.998,3.525,2.716,4.438
				c4.438,2.361,12.11,2.857,17.77,2.857c6.366,0,13.715-0.609,21.25-1.766c19.256-2.949,33.793-7.623,40.979-11.014
				c3.077-1.454,3.524-3.439,3.357-4.854c-0.42-3.551-4.246-4.35-10.587-5.674c-2.849-0.594-6.076-1.269-8.181-2.078
				c-5.624-2.168-10.302-12.551-13.897-30.86c-5.319-27.077-5.398-46.164-5.19-62.84c2.413-0.247,4.334-0.653,6.091-1.026
				c2.18-0.463,4.062-0.862,6.521-0.862c1.251,0,2.578,0.103,4.058,0.31c7.873,1.108,11.978,5.273,15.716,11.188
				c0.769,1.214,1.748,3.476,2.696,5.659c2.797,6.441,5.005,11.529,9.258,11.529c1.402,0,2.737-0.636,3.76-1.791
				c5.66-6.408,7.937-14.859,7.854-29.179c-0.091-15.638-0.695-18.828-1.795-24.621l-0.814-4.362h-2.908
				c-2.469,0-5.091,0.524-8.409,1.188c-5.781,1.155-13.699,2.739-26.5,2.739l-0.75-0.002c-12.031-0.06-18.011-1.133-24.339-2.271
				c-3.468-0.624-7.053-1.27-11.73-1.775C1272.729,5909.4,1269.287,5909.166,1266.649,5909.166z M1265.771,5916.177
				c0.271-0.007,0.563-0.011,0.878-0.011c2.384,0,5.575,0.221,9.76,0.674c4.437,0.48,7.899,1.104,11.248,1.707
				c6.638,1.191,12.904,2.318,25.544,2.381l0.783,0.002c13.494,0,22.146-1.73,27.873-2.877c1.565-0.313,2.958-0.59,4.186-0.781
				c0.832,4.523,1.293,8.297,1.37,21.754c0.075,12.979-2.028,18.912-4.625,22.641c-0.942-1.696-2.062-4.271-2.822-6.026
				c-1.104-2.543-2.146-4.942-3.202-6.614c-3.938-6.226-9.469-12.801-20.654-14.377c-1.807-0.254-3.452-0.377-5.033-0.377
				c-3.192,0-5.624,0.518-7.974,1.016c-2.314,0.492-4.709,1-8.188,1.092l-3.361,0.09l-0.046,3.361
				c-0.244,17.856-0.521,38.006,5.278,67.521c4.267,21.705,9.895,32.821,18.252,36.043c2.473,0.953,5.729,1.658,8.69,2.278
				c-7.593,2.724-18.86,5.75-32.806,7.888c-7.188,1.103-14.171,1.685-20.188,1.685c-6.489,0-10.291-0.648-12.432-1.26
				c1.35-1.361,3.646-3.146,5.621-4.152c6.681-3.404,13.063-17.932,13.896-27.686c2.979-34.896,1.086-64.426-5.626-87.771
				C1269.686,5925.637,1267.305,5919.766,1265.771,5916.177z"/>
		</g>
		<g id="g4_24_" transform="matrix(1 0 0 -1 0 6552)">
			<path fill="#EFEFEF" d="M636.027,5911.967c-1.625,0-3.342,0.027-5.104,0.086c-10.354,0.334-18.116,4.031-26.789,12.762
				c-5.487,5.525-11.11,16.795-12.108,22.441c-2.263,12.793-2.864,23.941-2.223,41.135c0.512,13.703,2.422,24.782,6.014,34.863
				c3.534,9.924,8.463,17.354,16.479,24.848c8.737,8.168,15.37,10.182,25.285,11.205c1.896,0.195,3.702,0.294,5.369,0.294
				c6.616,0,10.771-1.515,14.792-3.202c5.073-2.13,10.999-5.23,16.479-12.083c4.935-6.169,7.685-10.592,10.938-20.492
				c3.325-10.112,5.073-16.188,5.38-33.333c0.312-17.454-0.566-25.866-4.268-40.914c-3.675-14.948-8.722-25.12-23.646-32.872
				C656.405,5913.473,647.952,5911.967,636.027,5911.967z M642.948,6052.602c-1.43,0-2.993-0.086-4.65-0.258
				c-8.719-0.897-13.852-2.463-21.225-9.354c-7.239-6.769-11.487-13.165-14.665-22.083c-3.39-9.52-5.121-19.628-5.61-32.775
				c-0.711-19.02,0.283-29.272,2.12-39.653c0.703-3.978,5.647-14.161,10.183-18.728c7.376-7.424,13.559-10.424,22.048-10.699
				c13.246-0.43,22.39,0.821,28.25,3.867c11.237,5.838,16.304,12.985,20.075,28.332c3.568,14.514,4.367,22.189,4.064,39.117
				c-0.288,16.17-1.836,21.558-5.029,31.271c-2.896,8.805-5.072,12.45-9.755,18.307c-4.488,5.61-9.248,8.123-13.724,10.002
				C651.446,6051.45,648.279,6052.602,642.948,6052.602z M646.396,5944.262h-0.002c-5.322,0-10.914,1.834-15.339,5.03
				c-7.846,5.669-12.053,13.479-12.167,22.584c-0.011,0.829-0.025,1.696-0.042,2.603c-0.132,7.49-0.313,17.75,1.854,29.336
				c2.08,11.119,5.543,22.109,16.708,27.205c3.74,1.709,7.559,2.574,11.346,2.574c4.352,0,8.341-1.194,10.942-3.277
				c4.031-3.229,7.353-7.521,10.445-17.975c2.966-10.012,2.703-17.391,2.307-28.559l-0.102-2.906
				c-0.367-11.004-1.977-22.362-11.171-30.904C657.156,5946.234,652.044,5944.262,646.396,5944.262z M648.753,6026.593
				c-2.738,0-5.656-0.671-8.438-1.94c-6.763-3.086-10.332-9.291-12.732-22.125c-2.037-10.888-1.863-20.733-1.736-27.926
				c0.017-0.916,0.032-1.797,0.042-2.638c0.087-6.897,3.205-12.617,9.269-16.998c3.259-2.354,7.354-3.705,11.239-3.705h0.002
				c2.685,0,6.603,0.666,10.017,3.839c6.912,6.421,8.572,15.042,8.938,26.012l0.103,2.92c0.387,10.854,0.619,17.406-2.021,26.324
				c-2.865,9.681-5.578,12.47-8.108,14.496C654.27,6025.691,651.99,6026.593,648.753,6026.593z"/>
		</g>
		<g id="g4_23_" transform="matrix(1 0 0 -1 0 6552)">
			<path fill="#EFEFEF" d="M749.347,5910.079c-3.661,0-6.924,0.563-9.695,1.677c-12.368,4.963-19.82,19.275-24.918,47.859
				c-6.501,36.455-9.354,49.576-15.732,66.264c-1.264,3.305-5.521,8.339-9.281,12.781c-1.71,2.021-3.479,4.108-5.007,6.071
				l-3.354,4.306l5.312,1.252c0.983,0.231,2.057,0.143,3.145-0.008c0.87-0.121,1.953-0.271,3.675-0.271
				c5.122,0,12.792,1.354,22.796,4.026c14.166,3.785,24.202,5.703,29.828,5.703c1.567,0,5.733,0,7.292-3.098
				c0.508-1.012,1.07-3.1-0.877-5.725c-0.671-0.902-1.354-1.797-2.037-2.689c-4.146-5.428-8.063-10.553-9.44-18.334
				c-3.407-19.256-6.833-55.406,8.493-81.168c1.444-2.43,4.09-3.998,6.738-3.998c1.47,0,2.778,0.475,3.895,1.408
				c3.671,3.08,7.438,10.207,5.631,56.078c-1.383,35.125-4.021,50.799-9.412,55.904c-10.265,9.723-10.297,12.176-10.314,13.643
				c-0.016,1.176,0.418,2.266,1.223,3.064c2.806,2.799,8.39,4.16,17.074,4.16c6.207,0,13.722-0.771,19.143-1.963
				c4.513-0.994,9.271-1.211,13.872-1.422c3.49-0.16,7.1-0.326,10.643-0.824l9.969-1.396l-8.686-5.088
				c-3.724-2.182-6.116-4.039-7.959-11.461c-2.248-9.051-4.371-17.602-5.024-41.279c-0.115-4.17-0.219-8.246-0.318-12.211
				c-0.443-17.588-0.826-32.778-1.98-44.908c-1.66-17.457-6.295-29.58-14.167-37.063
				C773.09,5914.934,759.971,5910.079,749.347,5910.079z M695.175,6043.049c4.284-5.064,8.689-10.291,10.363-14.67
				c6.583-17.225,9.493-30.573,16.085-67.535c4.561-25.559,10.923-38.695,20.634-42.592c1.939-0.777,4.325-1.173,7.089-1.173
				c9.784,0,20.955,4.86,25.693,9.365c6.595,6.269,10.526,16.948,12.021,32.651c1.132,11.888,1.513,26.965,1.952,44.422
				c0.102,3.973,0.203,8.053,0.319,12.229c0.675,24.438,2.887,33.344,5.229,42.773c1.114,4.485,2.514,7.605,4.309,10.006
				c-0.595,0.027-1.194,0.057-1.8,0.084c-4.896,0.224-9.958,0.457-15.056,1.578c-3.773,0.83-10.658,1.799-17.639,1.799
				c-5.583,0-8.682-0.625-10.35-1.197c1.147-1.486,3.354-3.961,7.183-7.586c6.199-5.873,9.883-17.287,11.592-60.711
				c1.771-44.924-1.349-56.029-8.127-61.717c-2.375-1.992-5.276-3.045-8.393-3.045c-5.146,0-10.032,2.844-12.754,7.42
				c-16.483,27.707-12.946,65.754-9.37,85.965c1.673,9.459,6.299,15.512,10.771,21.365c0.062,0.08,0.121,0.158,0.183,0.236
				c-3.854-0.168-11.583-1.318-27.02-5.441C708.352,6044.675,700.826,6043.286,695.175,6043.049z"/>
		</g>
		<g id="g4_22_" transform="matrix(1 0 0 -1 0 6552)">
			<path fill="#EFEFEF" d="M813.047,5909.366c-4.758,0-6.144,2.726-6.519,3.896c-1.172,3.658,1.922,7.875,5.507,10.434
				c4.639,3.309,9.45,7.82,12.849,23.207c1.025,4.646,0.794,19.254,0.591,32.145c-0.086,5.379-0.166,10.459-0.166,14.929
				c0,1.626,0.006,3.233,0.012,4.821c0.062,16.15,0.113,30.101-6.244,43.724c-4.694,10.063-8.223,13.869-9.919,15.696
				c-1.121,1.209-2.812,3.035-1.768,5.535c2.222,5.299,9.453,5.299,11.829,5.299c7.686,0,18.012-2.433,24.182-3.885
				c1.139-0.269,2.134-0.502,2.938-0.682c8.166-1.805,18.417-5.004,31.34-9.784c16.452-6.085,25.521-13.717,32.343-27.222
				c15.015-29.725,8.402-64.188-5.89-82.869c-16.466-21.521-32.23-27.334-50.839-29.44c-11.102-1.257-23.222-3.054-37.055-5.491
				C815.064,5909.473,813.991,5909.366,813.047,5909.366z M815.441,6061.706c2.175-2.476,5.688-7.032,9.979-16.229
				c7.019-15.041,6.961-30.424,6.899-46.709c-0.007-1.58-0.013-3.179-0.013-4.795c0-4.414,0.08-9.467,0.165-14.816
				c0.23-14.562,0.449-28.316-0.754-33.766c-3.537-16.018-8.803-22.537-15.619-27.396c-0.702-0.502-1.278-1.035-1.726-1.524
				c0.207,0.027,0.424,0.063,0.649,0.104c13.976,2.463,26.234,4.277,37.48,5.552c17.311,1.962,31.055,7.119,46.066,26.741
				c12.966,16.945,18.916,48.309,5.2,75.458c-6.006,11.892-13.735,18.345-28.521,23.813c-12.62,4.666-22.571,7.777-30.422,9.514
				c-0.831,0.184-1.857,0.425-3.034,0.702c-5.873,1.383-15.704,3.698-22.575,3.698
				C817.462,6062.048,816.257,6061.895,815.441,6061.706z M866.964,5939.102C866.963,5939.102,866.964,5939.102,866.964,5939.102
				l-0.264,0.002c-7.055,0.113-12.734,7.584-15.993,21.037c-1.851,7.646-1.35,19.604-0.984,28.34l0.1,2.42
				c0.59,15.102,0.945,24.213,3.287,35c1.255,5.783,6.948,9.521,14.505,9.521c8.054,0,17.854-4.621,21.601-14.944
				c5.428-14.959,8.652-44.408,4.64-55.186C890.23,5955.562,880.489,5939.102,866.964,5939.102z M867.614,6028.418
				c-3.382,0-7.063-1.238-7.665-4.004c-2.211-10.188-2.559-19.068-3.133-33.787l-0.101-2.439c-0.328-7.85-0.823-19.713,0.795-26.397
				c2.595-10.716,6.641-15.644,9.302-15.687l0.15-0.002c9.005,0,17.091,12.938,20.33,21.631c3.156,8.479,0.631,35.771-4.66,50.354
				C880.045,6025.225,873.225,6028.418,867.614,6028.418z"/>
		</g>
		<g id="g4_21_" transform="matrix(1 0 0 -1 0 6552)">
			<path fill="#EFEFEF" d="M1034.698,5907.502c-4.759,0-6.145,2.727-6.52,3.896c-1.171,3.66,1.923,7.877,5.509,10.432
				c4.638,3.309,9.45,7.824,12.847,23.206c1.026,4.647,0.797,19.258,0.593,32.147c-0.087,5.377-0.166,10.455-0.166,14.924
				c0,1.623,0.006,3.229,0.012,4.814c0.062,16.152,0.113,30.104-6.243,43.729c-4.695,10.063-8.225,13.869-9.921,15.697
				c-1.12,1.208-2.813,3.035-1.767,5.536c2.221,5.298,9.452,5.298,11.829,5.298c7.688,0,18.015-2.432,24.186-3.885
				c1.138-0.268,2.13-0.502,2.935-0.68c8.165-1.806,18.417-5.004,31.342-9.785c16.449-6.082,25.519-13.715,32.343-27.221
				c15.016-29.727,8.401-64.188-5.893-82.87c-16.466-21.521-32.231-27.335-50.839-29.438c-11.09-1.256-23.208-3.054-37.054-5.492
				C1036.717,5907.607,1035.643,5907.502,1034.698,5907.502z M1037.092,6059.842c2.176-2.477,5.688-7.032,9.979-16.229
				c7.02-15.045,6.961-30.431,6.898-46.717c-0.006-1.578-0.013-3.174-0.013-4.789c0-4.412,0.08-9.465,0.166-14.813
				c0.229-14.563,0.447-28.319-0.756-33.771c-3.535-16.017-8.802-22.535-15.619-27.396c-0.702-0.502-1.279-1.035-1.726-1.524
				c0.207,0.027,0.424,0.062,0.648,0.104c13.986,2.465,26.247,4.281,37.479,5.553c17.311,1.961,31.053,7.117,46.067,26.739
				c12.966,16.946,18.916,48.31,5.201,75.459c-6.01,11.892-13.738,18.345-28.521,23.812c-12.621,4.668-22.573,7.78-30.423,9.516
				c-0.83,0.184-1.855,0.424-3.028,0.701c-5.875,1.384-15.707,3.699-22.579,3.699
				C1039.113,6060.186,1037.907,6060.029,1037.092,6059.842z M1088.615,5937.236c-0.001,0-0.001,0-0.002,0l-0.265,0.002
				c-7.056,0.113-12.733,7.586-15.991,21.039c-1.852,7.64-1.351,19.596-0.984,28.326l0.101,2.432
				c0.591,15.104,0.947,24.221,3.285,34.999c1.256,5.784,6.95,9.521,14.507,9.521c8.054,0,17.854-4.621,21.602-14.942
				c5.429-14.963,8.65-44.414,4.638-55.188C1111.881,5953.697,1102.141,5937.236,1088.615,5937.236z M1089.266,6026.555
				c-3.383,0-7.064-1.237-7.666-4.006c-2.208-10.179-2.557-19.062-3.132-33.787l-0.102-2.449
				c-0.327-7.848-0.823-19.705,0.794-26.387c2.597-10.717,6.643-15.645,9.304-15.688l0.15-0.002c9.003,0,17.09,12.936,20.328,21.629
				c3.157,8.476,0.634,35.771-4.657,50.355C1101.696,6023.359,1094.875,6026.555,1089.266,6026.555z"/>
		</g>
		<g id="g4_20_" transform="matrix(1 0 0 -1 0 6552)">
			<path fill="#EFEFEF" d="M980.569,5908.76c-10.613,0-18.499,3.152-25.57,10.223c-5.937,5.936-7.91,11.002-10.197,16.869
				c-1.618,4.15-3.452,8.856-7.158,14.92c-1.636,2.676-3.938,4.42-6.166,6.107c-3.098,2.348-6.302,4.775-7.394,9.325l-0.852,3.551
				l3.582,0.7c0.87,0.171,1.748,0.359,2.674,0.559c5.246,1.127,12.435,2.672,28.531,3.076l0.084,0.002l0.084-0.002
				c12.459-0.285,17.336-0.738,19.131-4.422c1.594-3.272-0.771-6.439-3.275-9.793c-3.2-4.287-6.29-10.236-2.82-14.24
				c1.396-1.611,4.265-2.653,7.306-2.653c1.998,0,3.938,0.438,5.604,1.263c4.428,2.188,9.651,8.512,9.804,19.123
				c0.153,10.849-5.895,13.547-23.399,19.756c-13.903,4.932-27.447,11.162-32.359,23.264c-5.275,12.998-3.384,31.573,4.397,43.208
				c8.108,12.12,18.806,18.265,31.789,18.265c1.522,0,3.096-0.088,4.673-0.261c10.025-1.101,13.128-3.304,15.393-4.912
				c0.971-0.69,1.458-1.036,2.487-1.25c0.515-0.106,0.982-0.158,1.438-0.158l0,0c1.388,0,3.559,0.442,8.06,3.894
				c5.826,4.467,9.229,5.383,12.543,5.383c0.246,0,0.487-0.006,0.729-0.014l4.034-0.137l-0.706-3.976
				c-0.244-1.375-0.746-2.797-1.278-4.304c-1.354-3.847-2.895-8.205-1.299-13.912c2.767-9.892,1.9-16.767-0.663-25.992l-1.303-4.688
				l-4.029,2.725c-1.741,1.18-2.75,2.785-3.725,4.34c-1.239,1.979-2.521,4.022-5.699,5.965c-5.318,3.252-12.125,5.192-18.205,5.192
				c-2.188,0-4.236-0.247-6.091-0.731c-5.391-1.414-9.754-4.285-11.673-7.679c-0.604-1.065-1.221-2.679-0.739-4.319
				c1.875-6.402,7.173-9.862,18.894-12.34c9.326-1.973,22.845-6.973,30.251-14.571c8.414-8.633,11.739-20.108,10.471-36.117
				c-1.035-13.033-2.427-22.567-11.934-35.854c-9.005-12.58-19.972-15.211-34.748-15.377L980.569,5908.76z M933.029,5964.607
				c0.719-0.654,1.607-1.342,2.675-2.149c2.487-1.885,5.584-4.231,7.911-8.037c4.029-6.592,5.983-11.604,7.708-16.028
				c2.164-5.554,3.729-9.563,8.625-14.459c5.807-5.806,11.78-8.174,20.621-8.174l0.591,0.004
				c15.242,0.17,22.595,3.313,29.134,12.451c8.476,11.846,9.677,20.117,10.646,32.334c1.101,13.85-1.603,23.597-8.505,30.68
				c-5.905,6.062-17.657,10.699-26.687,12.607c-10.076,2.129-20.829,5.842-24.163,17.224c-0.924,3.153-0.45,6.521,1.364,9.731
				c2.874,5.08,8.702,9.09,15.991,11.002c2.433,0.639,5.078,0.961,7.865,0.961c7.424,0,15.391-2.268,21.854-6.221
				c2.85-1.741,4.686-3.607,6.012-5.322c0.812,4.918,0.64,9.314-0.983,15.114c-1.807,6.459-0.64,11.802,0.638,15.774
				c-1.002-0.572-2.203-1.373-3.659-2.49c-4.881-3.74-8.563-5.336-12.316-5.336l0,0c-0.938,0-1.871,0.1-2.857,0.304
				c-2.468,0.513-3.876,1.515-5.12,2.397c-1.729,1.229-3.883,2.758-12.103,3.66c-12.29,1.35-22.338-3.664-29.879-14.938
				c-7.255-10.843-7.594-27.166-3.73-36.683c3.13-7.711,11.305-13.303,28.214-19.299c17.036-6.043,28.291-10.033,28.062-26.451
				c-0.197-13.771-7.504-22.235-13.701-25.301c-2.628-1.299-5.64-1.984-8.708-1.984c-5.136,0-9.844,1.896-12.595,5.068
				c-2.945,3.398-6.537,10.908,2.503,23.016c0.395,0.523,1.097,1.467,1.646,2.29c-3.033,0.524-9.242,0.673-11.97,0.733
				C944.679,5966.748,937.998,5965.637,933.029,5964.607z"/>
		</g>
		<g id="g4_19_" transform="matrix(1 0 0 -1 0 6552)">
			<path fill="#EFEFEF" d="M1193.463,5899.052c-1.193,0-2.111,0.237-2.888,0.746c-1.126,0.735-1.886,1.87-2.139,3.19
				c-0.484,2.528,1.006,5.021,2.168,6.676c0.448,0.642,0.813,1.146,1.196,1.684c0.91,1.268,1.941,2.705,4.088,5.891
				c4.484,6.658,6.745,14.101,6.721,22.115c-0.021,6.754-0.577,13.236-1.222,17.285c-3.485,0.426-6.73,0.467-11.682,0.345
				c-3.31-0.084-7.058-0.924-8.312-1.446c-0.142-0.354-0.394-1.306-0.271-3.381c0.271-4.724,0.555-9.605,4.329-14.854
				c3.049-4.234,4.383-5.32,5.455-6.191c0.177-0.146,0.346-0.283,0.511-0.422c1.798-1.52,2.278-3.936,1.253-6.303
				c-0.824-1.91-2.947-3.078-6.881-3.785c-2.51-0.451-10.769-0.861-17.328-0.861c-2.964,0-5.506,0.076-7.557,0.229
				c-15.723,1.155-20.443,3.104-23.933,5c-1.071,0.582-1.766,1.603-2.062,3.028c-0.626,3.023,0.344,8.73,5.143,14.867
				c1.623,2.074,3.144,3.847,4.611,5.558c3.586,4.176,6.418,7.476,8.617,12.744c1.771,4.24,7.764,19,10.564,30.894
				c3.854,16.362,5.714,28.93,5.529,37.354c-0.136,6.24-0.857,6.793-4.331,9.453l-0.145,0.109c-1.845,1.414-4.373,2.396-6.403,3.186
				c-0.845,0.328-1.642,0.639-2.343,0.957c-1.109,0.504-4.785,2.361-5.493,5.127c-0.296,1.146-0.066,2.334,0.624,3.258
				c1.77,2.355,4.984,5.062,14.261,5.096c9.699,0.035,15.785,0.314,28.074,5.687c6.587,2.879,11.138,4.22,14.317,4.22
				c2.676,0,4.748-0.929,6.157-2.758c2.123-2.763,3.791-12.064,4.959-27.654c1.19-15.916,3.252-33.324,6.299-53.219
				c2.619-17.112,6.156-35.318,14.228-52.512c2.001-4.262,4.821-7.734,7.811-11.415c1.595-1.964,3.243-3.995,4.761-6.159
				c0.915-1.305,1.155-2.997,0.644-4.527c-0.504-1.506-1.683-2.688-3.15-3.166c-1.386-0.449-3.127-0.658-5.479-0.658
				c-2.625,0-5.604,0.273-7.999,0.494c-1.076,0.101-2.062,0.189-2.888,0.246c-2.109,0.138-4.032,0.205-5.878,0.205
				c-6.655,0-11.895-0.863-19.812-2.563c-3.043-0.653-7.962-2.362-9.408-2.911
				C1197.104,5899.486,1195.082,5899.052,1193.463,5899.052z M1194.012,5964.047c4.091,0,7.147-0.236,10.904-0.842l2.323-0.374
				l0.529-2.293c0.867-3.754,1.813-11.979,1.841-21.165c0.029-9.439-2.634-18.204-7.914-26.047c-2.204-3.271-3.27-4.753-4.207-6.061
				c-0.059-0.082-0.113-0.16-0.172-0.239c2.229,0.78,5.993,2.022,8.805,2.626c10.479,2.25,17.147,3.186,27.615,2.498
				c0.876-0.057,1.928-0.152,3.071-0.259c2.368-0.218,5.054-0.465,7.356-0.465c0.094,0,0.187,0,0.273,0.001
				c-0.798,1.023-1.627,2.046-2.48,3.1c-3.121,3.845-6.349,7.816-8.711,12.854c-8.448,17.996-12.11,36.794-14.812,54.427
				c-3.074,20.074-5.154,37.658-6.359,53.754c-1.229,16.408-2.905,22.666-3.521,23.88c-0.091,0.021-0.28,0.059-0.612,0.059
				c-1.46,0-4.644-0.631-11.517-3.633c-13.259-5.795-20.501-6.235-30.853-6.272c-2.225-0.008-4.054-0.19-5.479-0.543
				c0.299-0.119,0.614-0.241,0.941-0.369c2.316-0.899,5.489-2.134,8.125-4.153l0.143-0.107c4.513-3.454,6.876-5.686,7.073-14.857
				c0.199-9.141-1.67-21.934-5.714-39.109c-2.925-12.413-9.099-27.62-10.921-31.984c-2.626-6.291-6.094-10.33-9.766-14.604
				c-1.418-1.651-2.886-3.36-4.409-5.312c-2.999-3.836-3.666-6.756-3.793-8.178c2.467-1.127,7.054-2.5,19.644-3.426
				c1.881-0.139,4.25-0.209,7.043-0.209c7.048,0,14.197,0.438,16.009,0.736c-1.136,1.137-2.617,2.848-4.698,5.737
				c-4.966,6.901-5.337,13.354-5.637,18.541c-0.235,4.097,0.479,6.879,2.249,8.756c2.517,2.67,11.013,3.416,13.147,3.472
				C1191.186,5964.021,1192.65,5964.047,1194.012,5964.047z M1182.337,5973.361h-4.468l1.067,4.336
				c0.021,0.082,2.062,8.345,5.688,20.979c2.679,9.334,7.752,19.963,13.957,21.805l4.233,1.254l0.255-4.408
				c0.381-6.602,0.923-13.16,1.496-20.104c0.518-6.263,1.053-12.735,1.473-19.379l0.201-3.185l-3.149-0.494
				c-2.05-0.324-6.351-0.605-10.696-0.705C1188.121,5973.366,1182.393,5973.361,1182.337,5973.361z M1196.586,6009.305
				c-1.718-2.815-3.633-6.979-5.232-12.558c-2.028-7.071-3.555-12.751-4.5-16.362c1.729,0.017,3.688,0.039,5.382,0.078
				c2.499,0.058,4.798,0.17,6.597,0.301c-0.373,5.412-0.812,10.723-1.238,15.885
				C1197.234,6000.979,1196.889,6005.159,1196.586,6009.305z"/>
		</g>
		<g id="g4_18_" transform="matrix(1 0 0 -1 0 6552)">
			<path fill="#EFEFEF" d="M1445.439,5908.607c-7.066,0-16.886,0.416-31.834,1.349c-13.321,0.83-22.87,1.217-30.049,1.217
				c-6.191,0-10.795-0.28-14.483-0.882c-1.802-0.294-3.424-0.443-4.82-0.443c-0.005,0-0.009,0-0.013,0
				c-1.184,0-4.727,0.01-6.346,2.453c-0.804,1.211-0.931,2.69-0.351,4.063c0.626,1.478,1.369,3.093,2.23,4.965
				c4.072,8.847,10.229,22.215,12.979,41.188c2.681,18.483,1.936,49.345-3.451,65.819c-0.535,1.64-3.643,10.354-12.274,21.112
				l-4.566,5.69h7.297c5.472,0,11.509-0.332,26.175-2.026c14.463-1.672,20.448-2.363,37.939-3.977
				c2.649-0.244,5.117-0.368,7.337-0.368c9.9,0,13.495,2.339,16.974,4.601l0.551,0.357c0.539,0.348,1.277,1.01,1.994,1.65
				c2.021,1.809,4.308,3.855,7.185,3.855c1.065,0,2.069-0.284,2.983-0.846c2.373-1.455,4.233-4.315,6.605-28.023
				c2.477-24.752,0.062-28.534-2.618-30.286c-0.616-0.401-1.332-0.617-2.065-0.617c-2.299,0-3.432,1.701-5,4.058
				c-0.974,1.461-2.307,3.465-4.164,5.693c-3.004,3.604-6.73,5.271-14.52,8.229c-7.259,2.754-24.785,6.117-34.895,6.117
				c-0.002,0-0.005,0-0.005,0c0.389-3.08,0.687-7.183,0.866-12.021c0.081-2.168,0.152-5.023,0.222-7.759
				c0.049-1.935,0.098-3.901,0.146-5.472c0.973-0.107,1.996-0.164,3.062-0.164c4.861,0,9.646,1.131,12.506,2.189
				c3.959,1.466,5.93,3.455,7.367,4.908c1.18,1.189,2.396,2.421,4.338,2.421c0.808,0,1.597-0.237,2.28-0.688
				c3.856-2.523,4.813-11.334,2.222-20.487c-1.867-6.599-0.529-12.157,0.354-15.836c0.562-2.336,0.968-4.022,0.561-5.647
				c-0.446-1.775-1.998-2.971-3.86-2.972c-1.695,0-3.314,0.942-5.999,2.506c-2.443,1.424-5.485,3.192-7.891,3.69
				c-3.582,0.742-7.768,1.119-12.439,1.119c-1.283,0-2.438-0.026-3.423-0.062c-0.099-1.058-0.195-2.151-0.295-3.274
				c-0.756-8.527-1.67-18.857-4.616-27.871c1.554-0.131,3.425-0.195,5.634-0.195c4.335,0,10.129,0.24,19.372,0.805
				c11.215,0.683,20.97,11.813,24.562,17.604c0.901,1.454,5.642,8.703,10.395,8.703c1.717,0,3.228-0.952,3.938-2.483
				c2.432-5.244,1.807-14.244,0.769-23.188c-0.108-0.956-0.246-1.981-0.39-3.063c-0.893-6.74-2.001-15.129,0.847-21.789l1.815-4.244
				l-4.576-0.603C1456.813,5909.004,1452.439,5908.607,1445.439,5908.607z M1383.558,5918.173c7.327,0,17.015-0.392,30.483-1.229
				c14.799-0.924,24.481-1.334,31.397-1.334c4.725,0,8.101,0.182,11.457,0.521c-1.75,7.312-0.715,15.129,0.076,21.107
				c0.137,1.043,0.269,2.031,0.375,2.953c0.424,3.644,1.297,11.183,0.651,16.203c-0.845-0.883-1.846-2.112-2.85-3.729
				c-1.258-2.026-12.79-19.853-30.083-20.901c-9.394-0.571-15.312-0.815-19.798-0.815c-5.271,0-8.775,0.335-11.367,1.085l-3.794,1.1
				l1.547,3.635c3.762,8.834,4.794,20.496,5.624,29.865c0.202,2.28,0.395,4.443,0.609,6.432l0.339,3.122h3.142
				c0.302,0,0.771,0.021,1.38,0.045c1.223,0.049,3.065,0.122,5.223,0.122c5.147,0,9.813-0.425,13.858-1.264
				c2.896-0.601,5.834-2.119,8.39-3.571c-0.884,4.163-1.646,10.03,0.293,16.88c1.258,4.443,1.35,7.938,1.082,10.21
				c-1.74-1.543-4.317-3.423-8.123-4.833c-1.662-0.615-7.652-2.626-14.938-2.626c-2.599,0-5.036,0.271-7.25,0.797l-2.489,0.597
				l-0.188,2.551c-0.104,1.388-0.186,4.69-0.279,8.519c-0.066,2.705-0.138,5.528-0.218,7.671
				c-0.379,10.111-1.146,13.786-1.373,14.671l-0.966,3.776l3.857,0.555c1.289,0.186,2.842,0.279,4.613,0.279
				c11.106,0,29.528-3.597,37.375-6.572c8.037-3.047,13.221-5.262,17.413-10.291c0.932-1.117,1.734-2.168,2.435-3.131
				c0.164,3.498,0.047,9.359-0.928,19.104c-1.438,14.367-2.646,19.908-3.332,22.035c-0.599-0.457-1.308-1.092-1.81-1.539
				c-0.916-0.82-1.864-1.67-2.865-2.316l-0.528-0.344c-3.928-2.556-8.813-5.732-20.791-5.732c-0.002,0,0,0,0,0
				c-2.434,0-5.116,0.133-7.979,0.396c-17.573,1.619-23.583,2.313-38.104,3.992c-8.55,0.987-14.07,1.502-18.241,1.756
				c5.92-8.627,8.379-15.285,9.071-17.406c5.689-17.408,6.521-49.73,3.726-69c-2.896-19.977-9.308-33.896-13.55-43.109
				c-0.239-0.521-0.472-1.022-0.69-1.506c0.757,0.056,1.604,0.158,2.503,0.306
				C1372.018,5917.863,1376.979,5918.173,1383.558,5918.173z"/>
		</g>
	</g>
</g>
</svg>
